/* XPM */
static char *result[] = {
/* columns rows colors chars-per-pixel */
"60 60 123 2 ",
"   c #00B8BA",
".  c #00B9BB",
"X  c #00BABC",
"o  c #01BABC",
"O  c #02BABC",
"+  c #03BABC",
"@  c #02BBBC",
"#  c #02BBBD",
"$  c #03BBBD",
"%  c #04BBBD",
"&  c #09BCBE",
"*  c #0ABCBE",
"=  c #0CBDBF",
"-  c #0DBDBF",
";  c #0EBDBF",
":  c #0FBEC0",
">  c #10BEC0",
",  c #11BEC0",
"<  c #12BEC0",
"1  c #13BFC1",
"2  c #14BFC1",
"3  c #15BFC1",
"4  c #17C0C2",
"5  c #19C0C2",
"6  c #1AC1C2",
"7  c #1CC1C3",
"8  c #1DC1C3",
"9  c #1EC2C3",
"0  c #1EC2C4",
"q  c #20C2C4",
"w  c #21C3C4",
"e  c #23C3C5",
"r  c #24C3C5",
"t  c #27C4C6",
"y  c #28C5C6",
"u  c #29C5C6",
"i  c #2AC5C7",
"p  c #2EC6C8",
"a  c #2FC7C8",
"s  c #35C8CA",
"d  c #37C8CA",
"f  c #37C9CA",
"g  c #3BCACB",
"h  c #3DCACC",
"j  c #40CBCC",
"k  c #47CDCE",
"l  c #4BCECF",
"z  c #4CCED0",
"x  c #4DCFD0",
"c  c #4FCFD0",
"v  c #4FCFD1",
"b  c #50CFD1",
"n  c #50D0D1",
"m  c #52D0D1",
"M  c #54D0D2",
"N  c #58D1D3",
"B  c #59D2D3",
"V  c #5BD2D4",
"C  c #5CD3D4",
"Z  c #60D4D5",
"A  c #62D4D6",
"S  c #63D4D6",
"D  c #63D5D6",
"F  c #64D5D6",
"G  c #66D5D7",
"H  c #67D6D7",
"J  c #69D6D7",
"K  c #6AD7D8",
"L  c #6BD7D8",
"P  c #6CD7D8",
"I  c #6DD7D9",
"U  c #6FD8D9",
"Y  c #71D8DA",
"T  c #72D9DA",
"R  c #75DADB",
"E  c #77DADB",
"W  c #7DDCDD",
"Q  c #7FDCDD",
"!  c #80DCDE",
"~  c #81DDDE",
"^  c #84DEDF",
"/  c #85DEDF",
"(  c #91E1E2",
")  c #97E3E4",
"_  c #9DE5E5",
"`  c #9EE5E5",
"'  c #A0E5E6",
"]  c #A5E7E7",
"[  c #ADE9EA",
"{  c #B0EAEA",
"}  c #B1EAEB",
"|  c #B5EBEC",
" . c #B6EBEC",
".. c #BDEDEE",
"X. c #C2EFEF",
"o. c #C7F0F1",
"O. c #C9F1F1",
"+. c #CDF2F2",
"@. c #D0F2F3",
"#. c #D0F3F3",
"$. c #D2F3F3",
"%. c #D6F4F4",
"&. c #D6F4F5",
"*. c #D9F5F5",
"=. c #DAF5F5",
"-. c #DAF5F6",
";. c #DBF5F6",
":. c #DDF6F6",
">. c #DEF6F6",
",. c #DEF6F7",
"<. c #DFF7F7",
"1. c #E0F7F7",
"2. c #E3F8F8",
"3. c #E4F8F8",
"4. c #E6F9F9",
"5. c #E9F9FA",
"6. c #EBFAFA",
"7. c #ECFAFA",
"8. c #EFFBFB",
"9. c #F0FBFB",
"0. c #F7FDFD",
"q. c #FBFEFE",
"w. c None",
/* pixels */
"w.w.w.w.w.w.w.w.w.w.w.w.w.w.w.w.w.w.w.w.w.w.w.w.w.w.w.w.w.w.w.w.w.w.w.w.w.w.w.w.w.w.w.w.w.w.w.w.w.w.w.w.w.w.w.w.w.w.w.w.",
"w.w.w.w.w.w.w.w.w.w.w.w.w.w.w.w.w.w.w.w.w.w.w.w.w.w.w.w.w.w.w.w.w.w.w.w.w.w.w.w.w.w.w.w.w.w.w.w.w.w.w.w.w.w.w.w.w.w.w.w.",
"w.w.w.w.w.w.w.w.w.w.w.w.w.w.w.w.w.w.w.w.w.w.w.w.w.w.w.w.w.w.w.w.w.w.w.w.w.w.w.w.w.w.w.w.w.w.w.w.w.w.w.w.w.w.w.w.w.w.w.w.",
"w.w.w.w.w.w.w.w.w.w.w.w.w.w.w.w.w.w.w.w.w.w.w.w.w.w.w.w.w.w.w.w.w.w.w.w.w.w.w.w.w.w.w.w.w.w.w.w.w.w.w.w.w.w.w.w.w.w.w.w.",
"w.w.w.w.w.w.w.w.w.w.w.w.w.w.w.w.w.w.w.w.w.w.w.w.w.w.w.w.w.w.w.w.w.w.w.w.w.w.w.w.w.w.w.w.w.w.w.w.w.w.w.w.w.w.w.w.w.w.w.w.",
"w.w.w.w.w.w.w.w.w.w.w.w.w.w.w.w.w.w.w.w.w.w.w.w.w.w.# # O O O O # # # w.w.w.w.w.w.w.w.w.w.w.w.w.w.w.w.w.w.w.w.w.w.w.w.w.",
"w.w.w.w.w.w.w.w.w.w.w.w.w.w.w.w.w.w.w.w.w.w.w.# O O O O O O O O O O O O @ # w.w.w.w.w.w.w.w.w.w.w.w.w.w.w.w.w.w.w.w.w.w.",
"w.w.w.w.w.w.w.w.w.w.w.w.w.w.w.w.w.w.w.w.w.# O O O O O O O O O O O O O O O O O # w.w.w.w.w.w.w.w.w.w.w.w.w.w.w.w.w.w.w.w.",
"w.w.w.w.w.w.w.w.w.w.w.w.w.w.w.w.w.w.w.# O O O O O O O O O O O O O O O O O O O O O # w.w.w.w.w.w.w.w.w.w.w.w.w.w.w.w.w.w.",
"w.w.w.w.w.w.w.w.w.w.w.w.w.w.w.w.w.w.O O O O O O O O O O O O O O O O O O O O O O O O # w.w.w.w.w.w.w.w.w.w.w.w.w.w.w.w.w.",
"w.w.w.w.w.w.w.w.w.w.w.w.w.w.w.w.w.O O O O O O O O O O O O O O O O O O O O O O O O O O O w.w.w.w.w.w.w.w.w.w.w.w.w.w.w.w.",
"w.w.w.w.w.w.w.w.w.w.w.w.w.w.w.w.O O O O O O O O O O O O O O O O O O O O O O O O O O O O O w.w.w.w.w.w.w.w.w.w.w.w.w.w.w.",
"w.w.w.w.w.w.w.w.w.w.w.w.w.w.w.O O O O O O O O O O O O O O O O O O O O O O O O O O O O O O # w.w.w.w.w.w.w.w.w.w.w.w.w.w.",
"w.w.w.w.w.w.w.w.w.w.w.w.w.w.O O O O O O O O O O O O O O O O O O O O O O O O O O O O O O O O # w.w.w.w.w.w.w.w.w.w.w.w.w.",
"w.w.w.w.w.w.w.w.w.w.w.w.w.# O O O O O O O O O O O O O O O O O O O O O O O O O O O O O O O O O # w.w.w.w.w.w.w.w.w.w.w.w.",
"w.w.w.w.w.w.w.w.w.w.w.w.# O O O O O O O O O O O O O O O O O O O O O O O O O O O O O O O O O O O w.w.w.w.w.w.w.w.w.w.w.w.",
"w.w.w.w.w.w.w.w.w.w.w.w.O O O O O O O O O O O O O O O O O O O O O O O O O O O O O O O O O O O O O w.w.w.w.w.w.w.w.w.w.w.",
"w.w.w.w.w.w.w.w.w.w.w.# O O O O O O O O O O O O O O O O O O O O O O O O O O O O O O O O O O O O O # w.w.w.w.w.w.w.w.w.w.",
"w.w.w.w.w.w.w.w.w.w.w.O O O O O O O O O O O O O O O O O O O O O O O O O O O O O O O O O O O O O O @ w.w.w.w.w.w.w.w.w.w.",
"w.w.w.w.w.w.w.w.w.w.# O O O O O O O O O O O O O O O O O O O O O O O O O O O O O O O O O O O O O O O # w.w.w.w.w.w.w.w.w.",
"w.w.w.w.w.w.w.w.w.w.O O O O O O O O O O O O O O O O O O O O O O O O O O O O O O O O O O O O O O O O @ w.w.w.w.w.w.w.w.w.",
"w.w.w.w.w.w.w.w.w.w.O O O O O O O O O O O O O O O O O O O O O O O O O O O O O O O O O O O O O O O O O w.w.w.w.w.w.w.w.w.",
"w.w.w.w.w.w.w.w.w.# O O O O O O O O O O O O O O O O O O O O O O O O O O O O O O O O O O O O O O O O O # w.w.w.w.w.w.w.w.",
"w.w.w.w.w.w.w.w.w.O O O O O O O O O O O O O O O O O O O O O O O O O O O O O O O O O O O O O O O O O O # w.w.w.w.w.w.w.w.",
"w.w.w.w.w.w.w.w.w.O O O O O O O O O O O O O O O O O o O o o O O O O o . o O O O O O O O O O O O O O O O w.w.w.w.w.w.w.w.",
"w.w.w.w.w.w.w.w.# O O O O O O O O O O O O o . O O O 1 & ; 5 % O O o = r 1 o o O O O O O O O O O O O O O w.w.w.w.w.w.w.w.",
"w.w.w.w.w.w.w.w.# O O O O O O O O O O O . f T : X > [ C N | > . o * ) 2.~ 4 , X O O O O O O O O O O O O w.w.w.w.w.w.w.w.",
"w.w.w.w.w.w.w.w.# O O O O O O O O O O O . K >.7 . * R g H $.i 0 o t 3._ f ` Y ; O O O O O O O O O O O O # w.w.w.w.w.w.w.",
"w.w.w.w.w.w.w.w.# O O O O O O O O O O O . J ;.7 . , { V D 6.+.*.v ! q.=.' 8.5.Q o O O O O O O O O O O O # w.w.w.w.w.w.w.",
"w.w.w.w.w.w.w.w.# O O O O O O O O O O O . J ;.7 . 2 $.I A 9.U X.} n 5.W x 3.( y O O O O O O O O O O O O # w.w.w.w.w.w.w.",
"w.w.w.w.w.w.w.w.$ O O O O O O O O O O O . J -.6 . 1 #.P F &.< ^ o.a <.z 3 -.G   O O O O O O O O O O O O # w.w.w.w.w.w.w.",
"w.w.w.w.w.w.w.w.$ O O O O O O O O O O O . J <.d 8 9 @.P S 4.h ] ..p 1.v 4 -.E - O O O O O O O O O O O O # w.w.w.w.w.w.w.",
"w.w.w.w.w.w.w.w.# O O O O O O O O O O O . G 0.,.%.B O.L Z 7.&.9.T r :.c &  .6./ + O O O O O O O O O O O # w.w.w.w.w.w.w.",
"w.w.w.w.w.w.w.w.# O O O O O O O O O O O o w b m b q j e q h l M - = k 6 . u F s O O O O O O O O O O O O # w.w.w.w.w.w.w.",
"w.w.w.w.w.w.w.w.# O O O O O O O O O O O O X . . . X . X X . . . o o . o O . . . O O O O O O O O O O O O # w.w.w.w.w.w.w.",
"w.w.w.w.w.w.w.w.# O O O O O O O O O O O O O O O O O O O O O O O O O O O O O O O O O O O O O O O O O O O w.w.w.w.w.w.w.w.",
"w.w.w.w.w.w.w.w.w.O O O O O O O O O O O O O O O O O O O O O O O O O O O O O O O O O O O O O O O O O O O w.w.w.w.w.w.w.w.",
"w.w.w.w.w.w.w.w.w.O O O O O O O O O O O O O O O O O O O O O O O O O O O O O O O O O O O O O O O O O O O w.w.w.w.w.w.w.w.",
"w.w.w.w.w.w.w.w.w.@ O O O O O O O O O O O O O O O O O O O O O O O O O O O O O O O O O O O O O O O O O # w.w.w.w.w.w.w.w.",
"w.w.w.w.w.w.w.w.w.# O O O O O O O O O O O O O O O O O O O O O O O O O O O O O O O O O O O O O O O O O # w.w.w.w.w.w.w.w.",
"w.w.w.w.w.w.w.w.w.w.O O O O O O O O O O O O O O O O O O O O O O O O O O O O O O O O O O O O O O O O O w.w.w.w.w.w.w.w.w.",
"w.w.w.w.w.w.w.w.w.w.O O O O O O O O O O O O O O O O O O O O O O O O O O O O O O O O O O O O O O O O @ w.w.w.w.w.w.w.w.w.",
"w.w.w.w.w.w.w.w.w.w.# O O O O O O O O O O O O O O O O O O O O O O O O O O O O O O O O O O O O O O O w.w.w.w.w.w.w.w.w.w.",
"w.w.w.w.w.w.w.w.w.w.w.O O O O O O O O O O O O O O O O O O O O O O O O O O O O O O O O O O O O O O O w.w.w.w.w.w.w.w.w.w.",
"w.w.w.w.w.w.w.w.w.w.w.# O O O O O O O O O O O O O O O O O O O O O O O O O O O O O O O O O O O O O w.w.w.w.w.w.w.w.w.w.w.",
"w.w.w.w.w.w.w.w.w.w.w.w.O O O O O O O O O O O O O O O O O O O O O O O O O O O O O O O O O O O O @ w.w.w.w.w.w.w.w.w.w.w.",
"w.w.w.w.w.w.w.w.w.w.w.w.w.O O O O O O O O O O O O O O O O O O O O O O O O O O O O O O O O O O O w.w.w.w.w.w.w.w.w.w.w.w.",
"w.w.w.w.w.w.w.w.w.w.w.w.w.# O O O O O O O O O O O O O O O O O O O O O O O O O O O O O O O O O # w.w.w.w.w.w.w.w.w.w.w.w.",
"w.w.w.w.w.w.w.w.w.w.w.w.w.w.O O O O O O O O O O O O O O O O O O O O O O O O O O O O O O O O # w.w.w.w.w.w.w.w.w.w.w.w.w.",
"w.w.w.w.w.w.w.w.w.w.w.w.w.w.w.O O O O O O O O O O O O O O O O O O O O O O O O O O O O O O # w.w.w.w.w.w.w.w.w.w.w.w.w.w.",
"w.w.w.w.w.w.w.w.w.w.w.w.w.w.w.w.O O O O O O O O O O O O O O O O O O O O O O O O O O O O # w.w.w.w.w.w.w.w.w.w.w.w.w.w.w.",
"w.w.w.w.w.w.w.w.w.w.w.w.w.w.w.w.w.O O O O O O O O O O O O O O O O O O O O O O O O O O # w.w.w.w.w.w.w.w.w.w.w.w.w.w.w.w.",
"w.w.w.w.w.w.w.w.w.w.w.w.w.w.w.w.w.w.# O O O O O O O O O O O O O O O O O O O O O O O # w.w.w.w.w.w.w.w.w.w.w.w.w.w.w.w.w.",
"w.w.w.w.w.w.w.w.w.w.w.w.w.w.w.w.w.w.w.# O O O O O O O O O O O O O O O O O O O O # w.w.w.w.w.w.w.w.w.w.w.w.w.w.w.w.w.w.w.",
"w.w.w.w.w.w.w.w.w.w.w.w.w.w.w.w.w.w.w.w.w.# O O O O O O O O O O O O O O O O O # w.w.w.w.w.w.w.w.w.w.w.w.w.w.w.w.w.w.w.w.",
"w.w.w.w.w.w.w.w.w.w.w.w.w.w.w.w.w.w.w.w.w.w.w.# # O O O O O O O O O O O # w.w.w.w.w.w.w.w.w.w.w.w.w.w.w.w.w.w.w.w.w.w.w.",
"w.w.w.w.w.w.w.w.w.w.w.w.w.w.w.w.w.w.w.w.w.w.w.w.w.w.w.# # # O # # # w.w.w.w.w.w.w.w.w.w.w.w.w.w.w.w.w.w.w.w.w.w.w.w.w.w.",
"w.w.w.w.w.w.w.w.w.w.w.w.w.w.w.w.w.w.w.w.w.w.w.w.w.w.w.w.w.w.w.w.w.w.w.w.w.w.w.w.w.w.w.w.w.w.w.w.w.w.w.w.w.w.w.w.w.w.w.w.",
"w.w.w.w.w.w.w.w.w.w.w.w.w.w.w.w.w.w.w.w.w.w.w.w.w.w.w.w.w.w.w.w.w.w.w.w.w.w.w.w.w.w.w.w.w.w.w.w.w.w.w.w.w.w.w.w.w.w.w.w.",
"w.w.w.w.w.w.w.w.w.w.w.w.w.w.w.w.w.w.w.w.w.w.w.w.w.w.w.w.w.w.w.w.w.w.w.w.w.w.w.w.w.w.w.w.w.w.w.w.w.w.w.w.w.w.w.w.w.w.w.w."
};
