/* XPM */
static char *result[] = {
/* columns rows colors chars-per-pixel */
"60 60 244 2 ",
"   c #3B2216",
".  c #1A1D27",
"X  c #1D222B",
"o  c #192637",
"O  c #2A2426",
"+  c #22252D",
"@  c #2C252A",
"#  c #2D292D",
"$  c #232628",
"%  c #372A2A",
"&  c #252531",
"*  c #262B34",
"=  c #2A2B33",
"-  c #2A2936",
";  c #332D35",
":  c #2D3338",
">  c #333237",
",  c #34343B",
"<  c #3B3C3D",
"1  c #3F312B",
"2  c #1D191E",
"3  c #4A2B19",
"4  c #542E18",
"5  c #6A391E",
"6  c #71371C",
"7  c #4A2D25",
"8  c #4A3329",
"9  c #5C3B2D",
"0  c #573728",
"q  c #4C3533",
"w  c #4A3A35",
"e  c #4C3B3B",
"r  c #443738",
"t  c #543A34",
"y  c #5D3C32",
"u  c #533936",
"i  c #502E32",
"p  c #6B3C23",
"a  c #633C2B",
"s  c #6A3829",
"d  c #713A24",
"f  c #623C31",
"g  c #663933",
"h  c #5B433B",
"j  c #5F402F",
"k  c #6C432B",
"l  c #684129",
"z  c #73442B",
"x  c #78492A",
"c  c #6C4C3C",
"v  c #694737",
"b  c #734A34",
"n  c #774A35",
"m  c #79533A",
"M  c #6F503F",
"N  c #2B2E44",
"B  c #3C3D44",
"V  c #353A48",
"C  c #2C3142",
"Z  c #4A3E43",
"A  c #453C46",
"S  c #533E41",
"D  c #583F43",
"F  c #3C4249",
"G  c #434344",
"H  c #44444D",
"J  c #4A444B",
"K  c #4B4548",
"L  c #514444",
"P  c #53434A",
"I  c #5C4C4C",
"U  c #584948",
"Y  c #454454",
"T  c #444A53",
"R  c #4B4A55",
"E  c #4C4C5B",
"W  c #4A4754",
"Q  c #544B54",
"!  c #5A4C53",
"~  c #534E5C",
"^  c #594E59",
"/  c #524751",
"(  c #4D525D",
")  c #5D5255",
"_  c #53535D",
"`  c #5B535B",
"'  c #5A585B",
"]  c #5D514E",
"[  c #634D44",
"{  c #634D4B",
"}  c #694C46",
"|  c #65524B",
" . c #6A544C",
".. c #6A5144",
"X. c #745444",
"o. c #7B5443",
"O. c #7C5B42",
"+. c #73554D",
"@. c #745A4D",
"#. c #7C5C4C",
"$. c #795648",
"%. c #624D55",
"&. c #645555",
"*. c #6D5A53",
"=. c #61545B",
"-. c #655A5C",
";. c #6C5C5B",
":. c #665756",
">. c #705653",
",. c #725D5C",
"<. c #785C55",
"1. c #724D47",
"2. c #6D605B",
"3. c #7C6254",
"4. c #79625D",
"5. c #79604F",
"6. c #514E62",
"7. c #4D5265",
"8. c #545463",
"9. c #5A5464",
"0. c #565965",
"q. c #5C5A65",
"w. c #54556A",
"e. c #545A6B",
"r. c #5C5B6B",
"t. c #5B5769",
"y. c #5A5A71",
"u. c #4B5168",
"i. c #645B62",
"p. c #6A5E63",
"a. c #625B6A",
"s. c #745C61",
"d. c #5B636C",
"f. c #5B6467",
"g. c #5D6575",
"h. c #64626B",
"j. c #6A6467",
"k. c #776465",
"l. c #676975",
"z. c #6B7479",
"x. c #727A7D",
"c. c #787A7C",
"v. c #7F6B73",
"b. c #8B5535",
"n. c #82553A",
"m. c #8C593C",
"M. c #865639",
"N. c #935E3D",
"B. c #9A5D38",
"V. c #844F33",
"C. c #99623C",
"Z. c #8E623F",
"A. c #A8743F",
"S. c #835B45",
"D. c #845D4B",
"F. c #895B45",
"G. c #8E5C4B",
"H. c #83614D",
"J. c #8B634B",
"K. c #8B6445",
"L. c #946344",
"P. c #9C6545",
"I. c #94644B",
"U. c #956A4D",
"Y. c #9C6B4C",
"T. c #9B6748",
"R. c #836253",
"E. c #8D6551",
"W. c #886958",
"Q. c #936B53",
"!. c #9B6C52",
"~. c #946A57",
"^. c #9A735A",
"/. c #9B724E",
"(. c #A36B44",
"). c #A36C4B",
"_. c #AA6E4C",
"`. c #A86A44",
"'. c #AB7146",
"]. c #A5714C",
"[. c #AB714C",
"{. c #AA7648",
"}. c #B3744C",
"|. c #B4784E",
" X c #A26C51",
".X c #A57254",
"XX c #AD7453",
"oX c #A9775A",
"OX c #B17653",
"+X c #B47955",
"@X c #B36F4A",
"#X c #846A64",
"$X c #947367",
"%X c #AB7162",
"&X c #747C81",
"*X c #7A7F87",
"=X c #6B7781",
"-X c #7D868B",
";X c #788487",
":X c #7E8C92",
">X c #818A8E",
",X c #80868B",
"<X c #858C91",
"1X c #888D93",
"2X c #8B9395",
"3X c #8B959B",
"4X c #8D999C",
"5X c #869297",
"6X c #929B9D",
"7X c #93979B",
"8X c #8D99A4",
"9X c #939DA2",
"0X c #969DA8",
"qX c #96A2A5",
"wX c #9AA3A6",
"eX c #94A2AA",
"rX c #9BA5AA",
"tX c #9DA9AD",
"yX c #9EACB2",
"uX c #9CAAB4",
"iX c #97A8AD",
"pX c #A3ABAD",
"aX c #A4A8AA",
"sX c #A4ADB2",
"dX c #A9AEB3",
"fX c #A9AEB9",
"gX c #A5B1B3",
"hX c #ABB2B5",
"jX c #A5B4BA",
"kX c #ABB5BA",
"lX c #ACB9BC",
"zX c #B3BABD",
"xX c #A4B1AD",
"cX c #97A29E",
"vX c #ADBAC1",
"bX c #AAB8C9",
"nX c #B3BCC2",
"mX c #B8BFC2",
"MX c #BBC5C9",
"NX c #B9C3C7",
"BX c #C3CACD",
"VX c #C4CDD2",
"CX c #C7D2D6",
"ZX c None",
/* pixels */
"ZXZXZXZXZXZXZXZXZXZXZXZXZXZXZXZXZXZXZXZXZXZXZXZXZXZXZXZXZXZXZXZXZXZXZXZXZXZXZXZXZXZXZXZXZXZXZXZXZXZXZXZXZXZXZXZXZXZXZXZX",
"ZXZXZXZXZXZXZXZXZXZXZXZXZXZXZXZXZXZXZXZXZXZXZXZXZXZXZXZXZXZXZXZXZXZXZXZXZXZXZXZXZXZXZXZXZXZXZXZXZXZXZXZXZXZXZXZXZXZXZXZX",
"ZXZXZXZXZXZXZXZXZXZXZXZXZXZXZXZXZXZXZXZXZXZXZXtXqX>XaXNXzXkXmXzXhXtXZXZXZXZXZXZXZXZXZXZXZXZXZXZXZXZXZXZXZXZXZXZXZXZXZXZX",
"ZXZXZXZXZXZXZXZXZXZXZXZXZXZXZXZXZXZXZXZXZXqXsXrXrXtX9XlXNXNXVXCXNX8X9XsXrXZXZXZXZXZXZXZXZXZXZXZXZXZXZXZXZXZXZXZXZXZXZXZX",
"ZXZXZXZXZXZXZXZXZXZXZXZXZXZXZXZXZXZXkXzX7X2XrX0X3XyXvXyXeXqXyXlXhXlXjXnX3X9XgXxXZXZXZXZXZXZXZXZXZXZXZXZXZXZXZXZXZXZXZXZX",
"ZXZXZXZXZXZXZXZXZXZXZXZXZXZXZXZX>X7XlXMXhX-XsXsXrXrXnXlXwX0XsXsXfXfXvXkX<XsXlXgXgXaXZXZXZXZXZXZXZXZXZXZXZXZXZXZXZXZXZXZX",
"ZXZXZXZXZXZXZXZXZXZXZXZXZXZX;XqXqXwXqXrXrX>XqXkXsX0X:Xd.F F l.<XrXnXVXrX8XkXyXiXtXpXwX&XZXZXZXZXZXZXZXZXZXZXZXZXZXZXZXZX",
"ZXZXZXZXZXZXZXZXZXZXZXZXsXrXd.;X4X3X4XrXhX9Xl.&X_ C X X * & X X V t.&Xl.tXgX0X5X4XwXx.z.hXxXZXZXZXZXZXZXZXZXZXZXZXZXZXZX",
"ZXZXZXZXZXZXZXZXZXZXaXsXgXgXqX;X0X3X3XwX3X_ . . + , H T W R W F * X . . g.0XyX4X9X7X&XzXVXkXwXZXZXZXZXZXZXZXZXZXZXZXZXZX",
"ZXZXZXZXZXZXZXZXZXaXaXaXqXtXgX8X5XrX1Xf.: + : W ) P H W E R W W < h T - & V z.qXtX-X9XzXzXxXgXxXZXZXZXZXZXZXZXZXZXZXZXZX",
"ZXZXZXZXZXZXZXZXsXpXqXqX6X4X3XqX5Xq.: $ , ^  .<.E.s e W ( 7.W K 8 j X.U / ; & V d.4XlXkX2XtXlXjXhXZXZXZXZXZXZXZXZXZXZXZX",
"ZXZXZXZXZXZXZXZX,X1X1XwXxXtX3X<X( X : ] *.W.$.$.I.5 e w.( ( _ L 4 5 V.m 3.| L ; X d.gXcX3X6XqXtXsXaXZXZXZXZXZXZXZXZXZXZX",
"ZXZXZXZXZXZXZX7Xf.,XpXhXhXhX2XG + G 2.*.S.I.,.#X<.y P e.^ ^ =.P 8 a 1.;.O.n.<.:.A & T &XcX2XqXtX>Xh.<XZXZXZXZXZXZXZXZXZX",
"ZXZXZXZXZXZXhXpX2Xl.,XaXdX<XF # U ] 4.E.P._.G.#XG.g S w._ ) =.! w 9 <.$XO.K..XW.{ Z + H 2XwXqX&Xz.qXhXxXZXZXZXZXZXZXZXZX",
"ZXZXZXZXZXhXkXlXlXpX>X*Xz., ; U ,.l F.]._.OXB.N.).s L 7.8.8.8.Q t 5 Y.].K.L.[.).b [ H + F x.c.&X5X5X3X4XZXZXZXZXZXZXZXZX",
"ZXZXZXZXZXgXkXpXkXkXkXc.. + / 4.W.z B.'.[.oXC.I.I.s P g._ 8.r.` t 5 [.OXI.T.'.A.z 5.;.G X * >XwXrXqX6XxXxXZXZXZXZXZXZXZX",
"ZXZXZXZXdXsXjXsXjXfXpXf.o F | /.!.k C.'.oXoXZ.Y.Y.l U r.t._ a.` t p [.+XL.I._.).z D.Q.+.B o z.aX8X8XqXgXsXZXZXZXZXZXZXZX",
"ZXZXZXZXsXtXsXwX8X7X2X: V ) m (.(.k C.'.oXoXC.P. Xf P t.e.8.r.` t k OXOXT.T.OX_.x P.[.m.L N B 6X8X8X4XiXpXsXZXZXZXZXZXZX",
"ZXZXZXZXsXsX9X>X;X3Xg.: Q <.m T.Z.a C.{.oXoXC.P. Xf P t.0.~ r.^ t z OX+XI.T.OX).z L.[.C.a A - x.iXeX0XrXsXsXZXZXZXZXZXZX",
"ZXZXZXZX0XpX8X1X2X5XV , | H.o.| [ w J.|.+X+Xm.P. Xa P a.0.~ h.` i k +XXXT.)._.^.f [ 3.m v { , T cXtXtXtXhXpXZXZXZXZXZXZX",
"ZXZXZXZX0XaX0X8X0Xz.- J c #. .I :.&.Q.OX+X+Xb.P.).f P q.8.~ a.` t z [.OXP.).).Q.{ =.%.%.c D.e = ;XsXtXtXkXaXZXZXZXZXZXZX",
"ZXZXZXZX0X7X4X8X<XF ; { O.@.! #.H...U.OXoX+XV.(. Xa P t.8.E a._ i x XXOXP.P.).Q.1.k.>.=.%.I.U - Y 2X9X8X4XqXZXZXZXZXZXZX",
"ZXZXZXZXdX0X5X=Xz.$ , ! ,.&.I E.!.v F..X^..XM U. Xs D q.w.E t.Q 7 x XXoXL.G.!.^.n ~.$X>.>.W.| @ & &X5X4X9XaXZXZXZXZXZXZX",
"ZXZXZXZXmXVXVXrX2X@ , ^ i.q.s.s.4.*.,.2.j.*.*.R.!.s L y.w.E a.^ i n ^.W.@.>.,.4.{ 4.#Xs.;.i.~ # > yXvXvXkXsXZXZXZXZXZXZX",
"ZXZXZXZXzXMXVXvX7X@ ; i.=.a.i.;.;.-.2.-.-.:.>.3.~.g S y.y.W r.^ i [ <.j.` =.' -.p.j.j.j.a.6.t.* : eXbXnXsXdXZXZXZXZXZXZX",
"ZXZXZXZXrXrXnXsX7X- ; s.k.-.L E.W.c Q./.^.^.o.J. Xs S 0.u.E t.Q i b %XW.@.H.J.H.v W.E.*.i.s.:.# C tXlXsXeXsXZXZXZXZXZXZX",
"ZXZXZXZX3X-XsXsX7XN ; <.~.2.U O.R...U.|.{..Xb.N.`.6 i 9.6.Y r.^ 9 x OXOXI.Y.[.!.c #XW.>.>.U.O.% V pXcX9X9XaXZXZXZXZXZXZX",
"ZXZXZXZX9X-X8XsX0XN > S. XW...[ =.&.E.+X].U.m.m. Xs S r.8.Y r.^ 9 V.}.OXI.Y.OX~.| h.| { #.).M.% V iX;X4XqXsXZXZXZXZXZXZX",
"ZXZXZXZXaX3X8XsX0XC ; S.(.U.X. .^ U Q.+XP.L.F.M.!.g S w.w.W q.Q h n XXOXI.).|.Q.] ^ | X.J. Xo.% F eXz.5X0XsXZXZXZXZXZXZX",
"ZXZXZXZX7X7X9XrX3X; ; $._.(.n.Y.J.x Y.oXI.L.m.S.Y.p u w.0.Q r.U 9 b %X_.F.P.|.].v *.E.T.C.Y.X.# F -Xd.3X7X9XZXZXZXZXZXZX",
"ZXZXZXZX<Xz.;X5Xg.2 ; @.).(.M.].).V.(.{.I.#.k.W.T.5 Z w.q.E r.! t d G.D.k.~.XX].m ^..X(.(.Y.X.# o d.&X:X:X2XZXZXZXZXZXZX",
"ZXZXZXZXMX0XwXbX9X# ;  .).(.M.(.Y.V.'.{.S.j.l.$XP.6 Z u.0.E r.! i p I.s.=X#X^.XXb.).{.(._./.X.O F iXkXlXsXsXZXZXZXZXZXZX",
"ZXZXZXZXNXxXlXMXuX< # +.).(.M.].(.b.].A.O.9.h.;. Xd e u.t.w.0.Q i p K.=.l.k.$XoXb.(.'.'.(.Y.#.O T gXNXNXlXgXZXZXZXZXZXZX",
"ZXZXZXZXwX6XqXyXiX< #  .).P.n.].(.V.].Z.M | | e D.g r 6.t.0.t.Q 8 9 $.| *.v #.^.b.P.[._.(.Y.$.O R wXgXlXjXsXZXZXZXZXZXZX",
"ZXZXZXZX2XcX:X8X8XB #  .].Z.x XXI.m I.S.o.Q.S.q { g i ' t.r.r.` 7 t 1.E.J.n v W.S.P._._.(.Y.$.O ( gXkXyXqXtXZXZXZXZXZXZX",
"ZXZXZXZXiXcXiXiXwXF #  .Y.C.n..XP.b T.n.$.^.E.q D f r E r.r.t./ % 9 $.#X!.n f E.b.P. X.X`.P. .* _ kXkX9X0XpXZXZXZXZXZXZX",
"ZXZXZXZXsXpXiXjXtXG =  .Y.(.b._.B.x (.L.$.b v f $.s q E q.r.t.K 3 v o.1.c 9 <.~.b.P.[.].A.(. .+ _ pXgXuXsXgXZXZXZXZXZXZX",
"ZXZXZXZX3X-X;X:X;X# # [ (.`.m.).(.m (.XXE.F.F.M E.s q ~ t.r.w./ 7 V.!.I.o.S..X Xm.C.@X`.'.`...= G ,X:X:X:X<XZXZXZXZXZXZX",
"ZXZXZXZXqX2Xx.yXtX< O v ).(.S.#.1.h I.[..X[._.n.I.p t _ a.r.e.Q 7 V._.XX(.B.}.`.n m !.Y.{.(...= ( 6X0XqX4X7XZXZXZXZXZXZX",
"ZXZXZXZXqXrX:XMXNXG O [ Y.I. .! =.^ J.'.[.}.@Xm.T.6 t W a.r.0.J 7 x _.XXI.L.OX~.! ^ ) 3.U.Y.} + 0.sXvXvXhXsXZXZXZXZXZXZX",
"ZXZXZXpX2XqX4XjXNXG O I Q.#.| c *.=.J.'.]._._.N.T.p q W r.r.8.J 8 b _.XX!.m.[.H.%.t.I  .H.^.] + ' aX4XeXgXgXZXZXZXZXZXZX",
"ZXZXZXaX5X4XqX9XtXG O ] #X,.U K.E.+.S._..X.X[.L.(.6 q 8.r.r.r.Q q s ).XX!.N.{.T.$.W.D.X.@.W.] # F j.4XjXlXhXZXZXZXZXZXZX",
"ZXZXZXpX4X2XqXtXiXG # W j.-.| 5.4.2. .R.R.R.R.G.B.6 q u.t.q.9.K t k Q.^.E.S.T.U.X.H.E.*.:.W.U * G 2XjXhXtXrXZXZXZXZXZXZX",
"ZXZXZXwXwXwXwXrX2X< # ` ` j.j.2.h.h.-.:.&.&.;.,.G.s e W ` r.8.L y b R.j.q.&.&.2.i.h.j.h.p.%.6.N ( qXiXiXqXqXZXZXZXZXZXZX",
"ZXZXZXZX6X0X2X7X7XV & i.p.i.%.#.3.*...O.D.5.$.<.E.s u R _ r.8.L j b D.<.2.) *.2.-.q.k.h.i.:.a.N Q 4X5X5Xz.2XZXZXZXZXZXZX",
"ZXZXZXZXNXMXMXVXBXy.& U #X>.L S.R.$.n ].]._.B.m I.d 0 ~ 0.0.0.Q h v ).Y.L.V.P.Y.H.o.J.*.:.R.=.- c.mXkXyX;XaXZXZXZXZXZXZX",
"ZXZXZXZXmXBXVXBXzXl.& D E.#.{ { &.{ M /.].].B.b D.d 0 A 7.0.~ J h k L.L.T.b.).U.X.h ..[ @.E.U > c.mXlXgX5XdXZXZXZXZXZXZX",
"ZXZXZXZXMXBXNXsXtX=X& g I.I.+.{ ) I c Y.).(.F.{ s.g y A 8.w.8.Z j a $.k.#.n.Q.3.| ) ! | m G.L ; c.hXvXlX7XxXZXZXZXZXZXZX",
"ZXZXZXZXhXqXqX6XdXl.O u 1.n.a j v j l m b.M.c M #.7 t Q w.w.t./ e 7 1.F.b d S.X.h h I M p M e > *XfXpXsXqXwXZXZXZXZXZXZX",
"ZXZXZXZXc.wX2X-XaXl.@ r u 9 3 7 8 7 3 0 5 0 0   8     G E E ~ Z 1   0 0 4 4 5 0 0 3 3 0 3 t r C *XsX9XwXxXpXZXZXZXZXZXZX",
"ZXZXZXZXcXxX5X-XpX=X- B A r 1 8 j w w h w w w 1 q 1 r W 7.E _ W A r e e w w e e h 1 w e w G A A 1XfX0X0XhXkXZXZXZXZXZXZX",
"ZXZXZXZXxXhXtXtXsX=X- F T B H K T H H R _ T ^ R Q ~ 8.w.7.8.9.6.9.9.9.9.e.e.e.r.0._ 0._ _ R E H 1XfXdXdXhXhXZXZXZXZXZXZX",
"ZXZXZXZXaXhXhXhXdX&X, H W G H J 8.Y W 8.8.E E 6.9.E 6.w.w.8.~ t.t.6.8.w.r.0._ _ _ h._ _ ( _ _ H <XdXaXdXdXdXZXZXZXZXZXZX",
"ZXZXZXZXZXZXZXZXZXZXZXZXZXZXZXZXZXZXZXZXZXZXZXZXZXZXZXZXZXZXZXZXZXZXZXZXZXZXZXZXZXZXZXZXZXZXZXZXZXZXZXZXZXZXZXZXZXZXZXZX",
"ZXZXZXZXZXZXZXZXZXZXZXZXZXZXZXZXZXZXZXZXZXZXZXZXZXZXZXZXZXZXZXZXZXZXZXZXZXZXZXZXZXZXZXZXZXZXZXZXZXZXZXZXZXZXZXZXZXZXZXZX",
"ZXZXZXZXZXZXZXZXZXZXZXZXZXZXZXZXZXZXZXZXZXZXZXZXZXZXZXZXZXZXZXZXZXZXZXZXZXZXZXZXZXZXZXZXZXZXZXZXZXZXZXZXZXZXZXZXZXZXZXZX",
"ZXZXZXZXZXZXZXZXZXZXZXZXZXZXZXZXZXZXZXZXZXZXZXZXZXZXZXZXZXZXZXZXZXZXZXZXZXZXZXZXZXZXZXZXZXZXZXZXZXZXZXZXZXZXZXZXZXZXZXZX",
"ZXZXZXZXZXZXZXZXZXZXZXZXZXZXZXZXZXZXZXZXZXZXZXZXZXZXZXZXZXZXZXZXZXZXZXZXZXZXZXZXZXZXZXZXZXZXZXZXZXZXZXZXZXZXZXZXZXZXZXZX",
"ZXZXZXZXZXZXZXZXZXZXZXZXZXZXZXZXZXZXZXZXZXZXZXZXZXZXZXZXZXZXZXZXZXZXZXZXZXZXZXZXZXZXZXZXZXZXZXZXZXZXZXZXZXZXZXZXZXZXZXZX",
"ZXZXZXZXZXZXZXZXZXZXZXZXZXZXZXZXZXZXZXZXZXZXZXZXZXZXZXZXZXZXZXZXZXZXZXZXZXZXZXZXZXZXZXZXZXZXZXZXZXZXZXZXZXZXZXZXZXZXZXZX"
};
