/* XPM */
static char *_ad63415da7745f8b9de58e28b62c087iz7eoYmRYyADjr7D[] = {
/* columns rows colors chars-per-pixel */
"60 60 256 2 ",
"   c #391800",
".  c #3D110C",
"X  c #3C2402",
"o  c #4B1C01",
"O  c #481704",
"+  c #551D01",
"@  c #581B04",
"#  c #511213",
"$  c #631B01",
"%  c #6C1D00",
"&  c #6B1F0B",
"*  c #731C07",
"=  c #6F1A12",
"-  c #4B2304",
";  c #482608",
":  c #542401",
">  c #5B2401",
",  c #5C2B02",
"<  c #54290C",
"1  c #5B2E0C",
"2  c #542707",
"3  c #5C3402",
"4  c #5B320D",
"5  c #5A3807",
"6  c #4C2514",
"7  c #5C2D13",
"8  c #572918",
"9  c #5E3312",
"0  c #593715",
"q  c #4B320D",
"w  c #632501",
"e  c #6C2401",
"r  c #642B03",
"t  c #6B2C02",
"y  c #632D0B",
"u  c #6B2C0C",
"i  c #66230D",
"p  c #732D01",
"a  c #732C0B",
"s  c #7B2B0A",
"d  c #782603",
"f  c #653303",
"g  c #6B3303",
"h  c #653B01",
"j  c #6C3A02",
"k  c #64340C",
"l  c #6B330B",
"z  c #643B0C",
"x  c #6C3C0C",
"c  c #733402",
"v  c #7B3402",
"b  c #733B04",
"n  c #7B3C03",
"m  c #73350B",
"M  c #7B340B",
"N  c #733C0C",
"B  c #7B3B0C",
"V  c #632E12",
"C  c #682918",
"Z  c #772915",
"A  c #643514",
"S  c #6B3514",
"D  c #653914",
"F  c #6C3B13",
"G  c #64351A",
"H  c #6C341B",
"J  c #663A1B",
"K  c #6B3B1A",
"L  c #743513",
"P  c #7B3512",
"I  c #743C13",
"U  c #7B3C13",
"Y  c #73341B",
"T  c #7D341A",
"R  c #733C1B",
"E  c #7B3C1A",
"W  c #5B1B25",
"Q  c #572C25",
"!  c #5A3423",
"~  c #5A3730",
"^  c #662A25",
"/  c #6C3B23",
"(  c #663827",
")  c #743B21",
"_  c #7A3A25",
"`  c #763A35",
"'  c #6D2D31",
"]  c #5C4304",
"[  c #564412",
"{  c #6D4302",
"}  c #6C420B",
"|  c #644309",
" . c #734205",
".. c #7B4403",
"X. c #73430B",
"o. c #7C420B",
"O. c #794A06",
"+. c #7C5304",
"@. c #6D4213",
"#. c #6B421B",
"$. c #684718",
"%. c #744314",
"&. c #7B4214",
"*. c #74421B",
"=. c #7B441C",
"-. c #744A1C",
";. c #7B4A1B",
":. c #794A13",
">. c #7B5218",
",. c #5B4526",
"<. c #6C4223",
"1. c #6A452A",
"2. c #734322",
"3. c #7B4322",
"4. c #784826",
"5. c #795326",
"6. c #6C4634",
"7. c #774637",
"8. c #74542E",
"9. c #662545",
"0. c #7A424B",
"q. c #861F08",
"w. c #832C02",
"e. c #892B05",
"r. c #9A2A03",
"t. c #833402",
"y. c #8B3501",
"u. c #833A01",
"i. c #8B3B02",
"p. c #833C0B",
"a. c #8A3C0B",
"s. c #85320C",
"d. c #943D0C",
"f. c #973906",
"g. c #842914",
"h. c #833C13",
"j. c #823C1B",
"k. c #8B3D1A",
"l. c #883815",
"z. c #963B16",
"x. c #9C2C16",
"c. c #A53804",
"v. c #A63818",
"b. c #B13906",
"n. c #853C24",
"m. c #903627",
"M. c #A9382D",
"N. c #C43E0C",
"B. c #854303",
"V. c #8C4204",
"C. c #83430C",
"Z. c #8B430C",
"A. c #8C4B0C",
"S. c #884B05",
"D. c #934402",
"F. c #9C4401",
"G. c #9A4C0C",
"H. c #974808",
"J. c #875509",
"K. c #975507",
"L. c #834314",
"P. c #8C4413",
"I. c #844A13",
"U. c #8B4B14",
"Y. c #84441B",
"T. c #834B1C",
"R. c #8B4B1B",
"E. c #8B441B",
"W. c #924414",
"Q. c #934C12",
"!. c #944C1A",
"~. c #9B4C1B",
"^. c #994515",
"/. c #8C5219",
"(. c #9C531C",
"). c #985616",
"_. c #A34B02",
"`. c #A74806",
"'. c #B54A07",
"]. c #AC5201",
"[. c #A75807",
"{. c #B65909",
"}. c #A64818",
"|. c #B54A16",
" X c #A45215",
".X c #AC5B14",
"XX c #A4541A",
"oX c #AC5B1E",
"OX c #A75718",
"+X c #B35C14",
"@X c #B35C1C",
"#X c #B65717",
"$X c #98640F",
"%X c #A96504",
"&X c #B96707",
"*X c #AA6619",
"=X c #BB621C",
"-X c #B66617",
";X c #B67516",
":X c #824B23",
">X c #8B4B23",
",X c #864626",
"<X c #974A24",
"1X c #8A5327",
"2X c #9A5423",
"3X c #985827",
"4X c #985735",
"5X c #864D34",
"6X c #A74725",
"7X c #A45C23",
"8X c #A95A26",
"9X c #B65A24",
"0X c #A15839",
"qX c #B1472C",
"wX c #AB6426",
"eX c #B96826",
"rX c #B67528",
"tX c #BA7835",
"yX c #B16A32",
"uX c #9B6334",
"iX c #C55603",
"pX c #C85418",
"aX c #C86709",
"sX c #C87506",
"dX c #D47909",
"fX c #C76917",
"gX c #C57418",
"hX c #D77816",
"jX c #D36C16",
"kX c #C35728",
"lX c #C85332",
"zX c #C56927",
"xX c #C67526",
"cX c #D77629",
"vX c #C86A33",
"bX c #C77834",
"nX c #DA7736",
"mX c #D7692F",
"MX c #E27D2B",
"NX c #E6721D",
"BX c #9F6147",
"VX c #D37946",
"CX c #BF8933",
"ZX c #DB9601",
"AX c #D48A0D",
"SX c #E69112",
"DX c #FEB113",
"FX c #DB8728",
"GX c #CE8631",
"HX c #E7862C",
"JX c #F49927",
"KX c #E98B35",
"LX c #EBA52A",
"PX c #DFA908",
"IX c #FFC32A",
"UX c #D38A46",
/* pixels */
"D D A J H J G G M JXbX`.b.c.N.c.N.v.aXMX].aXnXSXFXQ.g E N j *.<.m 3.%.u j.>XI D <.K F B &.&.P L &.g B B u H J k e.8XU.X.",
"J D D J K J G G p.dXi.`.jXeXmX+XzXaXc.c.7X)._.c.[.v l =.&.b F K U F z F j.g.I *.U %.R R F K K *.<.A 3.J < ( 6 - }.8X=.k ",
"S D D A J J G G s.aXc fXmX).6XK.:.&Xc.nXg < l M.v t I 4.&.N I K =.D F I h.P P I M m S / 1.1.<.#.S g uX1XS V > ;.@X7Xl ; ",
"D G D A S J J G e.dXE zX7X3 p j $.a m.rX*X+ T.!.u I *.*.L m U %.%.F *.F w l.j.a E K 9 8 8 < 5 g W.y.zX=X`.F.i.cX{.OXj G ",
"D S D A A J H V H.dX& C.b ] E | Y.^ h c xXc.Z O.L 3.-.@.m L I X.z l I m r m j.s S 7 < O   > B.OXvX`..X_.}.9X_.+XaX=Xo.R ",
"D J J D G J G 7  XaX8 p h $.,Xz t.-.] 4.e.pXg.C C *.X.z I E m N @.g l &.%.N U k.R l w t C.(.oXwX0X0XU.g P 1XY.b {.=XC.F ",
"A J K D G J A < oX{.` U %.] Z x L., :.K P._.vXd = I { j =.R F } %.X.P Y.;.} m <XwXXX X#XeXwXP.g l.4X&.f A J #.D f.(.X., ",
"A K K G G K 7 2 xXF.Q l =.[ Z 3.J 1.9.z { t ;XgX& N { h %.R F >.I >XP.m @.| g v ].fXjXaX].i.I K d.}.v B T.l I N s.1X#.5 ",
": Q , - 6.6 - Q pXy.Z ) T l.Y ( ! k ) j B.Y w AXiXe ( $. .M 3.x =.x z <.G 4.g I.{..XU.F Y R N } d.a.p.F D K *.F J :Xw > ",
"' ' ^ 2 ^ # o i tXj 0 1.$.:   X - | 7.4 h 4.W E HXl.6.$. .B =.h c g %.-.K I b ).@X).B l S L F | p.k.Y.=.F k A k 2.k t w ",
"%XK.$XK.S.K.G.-X`.* > g d p.a @ S O ~ 8.| #.8 f fX% 7 D N L =.@.B X.N x l t !.wXXXp.j x %.*.I #.L E E.M w : , 7 2.> ).oX",
"l c B >XV.-X{.DXpXv.vXlXr.v.kX|.# g | ; ] 8 # B |.% H ) =.x I F =.;.k 2 G w 2X*X<XI z *.%.R R R u P W.V.t.p l E l v OXfX",
"I ..H ` C = = vXVXf.y.y.a.^.^.F.0X% $ ^ O O d PX}.% t y *.x F J J 0 ; ; ( A Y.v >XF @.$.x u m L M Z.XX#X#XXX~.R.A.eX_.y.",
"7 #.J <.=.p t.sX$ v *XyX3X/.o.u.x.e.g.9.Z AXDXDXvXi.v > G @.F G 8       Q C E t L.f D -.L h.!.Q.9XOX X XXX}.Q.Q.t.bX.Xf.",
"k K z | J i (.^.p.9X=Xu.m :XY.Z.a.FXiX`.SXdXy.m.VX*X*X&./ 5 3 6 0 ;     O ) h.Q./.{ @.R a W.eX-XeX XA.B m B B S.c XXoXG.",
"S ' x { G P GXy.&.(. XV.T.4.f I.v AXSXkXf.c.@X[.% i.-XY.( 3 , ^ 7 9 J G 2 n.a.wX*XI.*.H & d.+X].D.B.N #.2.*.I B B p.wX8X",
"/ ,Xk.a.d.c. Xf.C *.x :.l =.N g c.;X: E [.=Xz.L.a.1.% pXC ; 5 ~ q - k t W.9Xd.F.).C.j.a yXZ.L.R.1X&.x F F %.x } *.g W.^.",
"f.`.].fXHXKXcX`.E B g I R 4.2 3 aX Xl Y.<X#XoXb t <.u c.z.g , C I R.7X7XOX XQ.7X .m a j.tXv c m T.&.l N %.@.x } %.b !.(.",
"].AXJXSXiX`.|..X!.p.B I / 1.< >.SXM =.L g.^.GXn < 5.=.g.kXoXs.6Xf.d.f.`.*XQ.C. .D :Xe w K.u.3Xn.o.X.N I I N X.N N g P.W.",
"eX=XV.B.C.U.:XS Z.t.L.C i u j GXgXp Y.L T W.*XB q b H i '.kXL |.wXvX9XeX7Xp f z ( < r ).tXu.L.1XN N I I %.N x N I g B P ",
"m ,X=.%.D z 4.4.B B Y.P s w.].JXP v L.L.K.!.E I 1.p G / r.#X> B.g n c C.E.y G / ! o :.wXtXA.w I j N I I I I N N :Xx I m ",
"l.j.P U &.N X.g &.U L.j.E.f.&XhX^ U.n P.K.S.C =.5.e R 8.p @Xb | 5.-.r N :XR C 6 8 D 7Xv u.7XU N I %.*.*.R %.%.U :Xl I I ",
"B U g m o.B L.v F g g m P M *XD.) 1Xv U.o.b E =.m V K @.w M.y.[ 9 F &.I m S A 1.8 , A.Q.W.n.l %.@.@.F A S K %.R I y I I ",
"z #.@.#.#.J 3.E I =.I F S S BXg ..Y u.8X7.u J.r b / =.w y v.c.,.E T Y.c U 5.5 0 < N A.~.l.n.I h 9 0 1 < 1 V A k 1 1 *.*.",
"x I =.%.I I U %.B R G R w L.1XL.o.o.C.C.B N X.} #.h } 1.O }.a.z @.@.N X.N I S 4 6 P.K.1X3 u.F.d.t.P ,X3Xh.p u H d W.&.y ",
"N N N I %.N &.E N F K R t W.U.B &.L.E.R.L.&.I F 4.j 2 ( ^ f.y./ x I I I I I K G i ^.d._ 7 g.kX9XjX&X&XfXaXaX&X.X3XY.1XI ",
"%.N N m I U E I =.x A , $ W.a.P.I U &.E U I x F l >Xx / a q.f.Y N I N E I S A V y ^.l.5X0.& W.Q.B Y.,XR.W.W.l.E %.+ &.m ",
"N N N N I %.I F D ; 0 7 t 2XM U L.L.U I I I %.%.f _ 8 %.c 6X6Xl I N I F S 7 8 8 h K.$ ; ; > ..D D J 9 F /.3X:X#.k k =.B ",
"N N N I %.I F k 0 ; 6 + w 3Xm :XI.o.o.I N X.X.X.4.g D 8.> {.f.A X.F F K D 9 < 9 I.FX%XJ.J.;X7X+ U E.I t v i.v m + 4X%.N ",
"N N I *.R S 9 1 : - ; > p (.v ;.B.o.o.%.@.x x g / ..+.( @ AX%X^ x k z D A 1 A K eXNXiX].%XaX+Xg.Y ` ( H n.E i 8 > tXg f ",
"I @.%.F A 1 < 6 o u P 2X9X=Xi.v E.Y.R K / #.%.%.l n t : wXDXhXZ m g l S S u s E.].b.jXmXGXfX|.6X..j 2 { rXtXI.3 +XUXo.S ",
"@.I K J < < ; ; ~.8XW.|.{.fX+X*Xm S @ o @ 7 H R u.0X4X*XLXb.c.K.j.E P T j.s l.~.;X].VXZ &.u.H.E fXhX-X&XaX]._.;X{.-Xc A ",
"m K 8 8 o c p.R.qX6XOXJ.N E.).gXb.nXiX'.dXhXaXaX'.qX(.K.cXv.e.rXwX+XiXjX.X3X,X% }.[.k.4Xb C.,Xg y.+XaXsXfXzX9X=X6XP.m y ",
"h.U 4 k L.8XXXi.*XV...b N _ C p r.FXKX;X[.D.B a w.e c t.y.}.d R.&. XaXfXH.&.P M f. XY.3.v B Y.T.* XX-XF.D.a.u.H.Z.P.L.Y.",
"C.R.3X!.eXxX@Xv | 3 x g E ` H +.HX-Xt.p g V ( ` ) f  .) & ).H.P g ..u.Z.N @.k %._.L.U h :X=.j I Z <X7XA.u.h.L.R.o.o.Y.E.",
"c o./.D.+X].`.v b ` 7.-.D < c %X(.M w 3.4.#.@.3 / 5.| *.T t 9Xw.F E y K / <.- 5 -XP %.j _ E j A i _ Y.B &.T.>X&.C.&.P P ",
"=.k l g H._.XX<Xs.C # 0 z l ^.jXx R _ ) y N ).b 3 4.k N I.$ 8X|.l 4.7.7.( - o K xXa ;.x G L O.) a s j.U L.I.L.N :XE L u ",
"4.#.#.&.U.Q.(.4X|.d.r 1 , w r.r.h { @.%.I ,X3Xd { E R C.B.j.d mXM I / 9 @ O i 5X;Xe f I ) ,X/.r y.v j.R.o.o.C.h.E Y Y Y ",
"k J <.<.I u.t.a.l.D.i.j.v [.zXm. .b j ;.I r Y.>X} N E I z ;.w XX@Xp f f V.u.^.,X{.S.w ) L.E.j.w K.v l =.x j X.I x N E j.",
"L.*.q 0 l <X^.f.` A.c.M.b.AXLX, _ ) l h } :.>.h @. .b C 6.| ..l.mXi.).$XGX-XoXs [.;XY._ w $ Z 2XbXC.u -.$.| x K { } &.p.",
"L E $ c Z.u.Q.Q.3X/.A.:.x M GX_.] $.D K } { /.X.m +.3 F 9 2.-.o PXFX;XZ.Z.Z.P 0XJXsX&XsXhXiX+XzX}.p.I 4 *.m B L.%.c B !.",
"p.p.P.8X7X9XbX+Xf ..c N Y g OX].j g R Y.p Q.yXp o.E 5Xb 3X* @ eX;XD.e.^.eX-Xi.D.&XV.K.G.+X].F.H.h.m X.N I.=.#.D %.N L.!.",
"eXoX8XwXC.G.zX`.f 3.I ) 4.Y e.zXf U a m p.Q.wX7Xy ^ C B a.d vX{.s d.=X&XsX-X}.M.*XB.>Xn.<Xz.a.p ,X=.j g g =.<.,.N B p.a.",
"+XG.I.&.w u..X{.k %.S K G Z $ 9X>.5.D K -., > 1XBXD 5.2.O rXGXv *X).U.v t.~.d.d OXu.,X_ <X~.(.!.p.C.f 3.F S y 4 /.!.>XE.",
"u.C.N #.4.o.V.fXj f I J 1 ;.p W.Y.o @ _ L + @ @ 3 > w w b $Xb 3XT.x 2.` ( L n J..Xu.,XE k.i.G.-Xb.W.t 1.G @ e y.Y.U B m ",
"a.T.=.*.5X&.p 8XO.l 3.) 4 :XU s AX%X[.&XdXSXdXdX].lXx.c.KXH.e <X{ , 3 5 2.1.V S +Xt.P.C.a.y._.*XjXeXm ) C * `.#X>XE I I ",
"&.B L.I L.L.M 8X/.l H 7 5 z l @ mX|.c.r.|.#Xb.|.iXr.lXr.jXnXe.}.%X;XrX;.Q # i 3XH.p &.o.Q.G.8XwX~.7XQ.XX9X}.9XG.u r y F ",
"L.B 2XQ.a.P.p.P./.E 8 O 0 5 G C gXy.9XbX+X{.+X@X X*X}.d.F.sXF.z.M.}.K.%X%Xv % 8X<Xh.1X:.U.U.k.a 5 I.B.r.iX'.eXN Y A G *.",
"L.B U :X:X#.K 2.(.X.< q 0 0 k C .X XtXX.X.%.h F @.! ( g Q.z.'.AXvX#X`.i.t.t.l.n.|.i.X.:.b a Y 1.v K -., 8Xc.B.5.C Y e l ",
"c B L.o.o.C.n c  XP.Y.:X5.c p e.8Xt.l.u E _ L _ b I ,Xv x.M.M.nX{.-XgXxXxX-XH.v m.H 8 6 k X.O.5 U } / ' 9XF.h.h 2 K S D ",
"D K K f w x B b v t V H u e w.M.C.w o.f I x f &... .x v w.v.f.{.p u.i.V.Q.2X2X<XZXAXwXJ # C / %.H 5XW $ ZX&XE 9.O <.K 7 ",
"; ; ; ! 1.1.0 ( 6.6.( Q < u l.m., 5 8.$.#.8.$.$.0 ,.0 #.g ).S.$Xu I I u m E T i {.dXAXAXsX=Xz.= C @ V.ZXjXe :.6 , =.K , ",
"I.b > : - - o 6 - < 6 - > b t.d / H 8 # O < O O . 6 . Q o R.B Y.X.>.>.O.o. .j : f.}.'.F. X=XaXsX%XFXLXFX6X6XGX3 P.2XM a ",
"HXcXfXF.D.).(.L.c v t.u.[.xXjX{.H.y.w.y.y.W.}.9X[.K.x P w.zXF.* F F A A D F F k w 3XOXZ.E ) :X8XZXSXx.g..XK.Y.3X(.6Xs.a ",
"y._.+X#XfXzX@X`.9X}.d.`.+XjXgX-XgXaX].{.f.F.F.%XJXgX%X#X{.JXfXs.( 8 8 ( ( Q 6 6 3 3X<X_ ` 7.b c ~._.F.K.O.*.` E c R.P u ",
"*.-.T.U.W.G. X#X,XZ a E.(.K.A./.U.<Xl.<X<X0X>Xl Z P n.' % [.[.n.F , O - o   ; q @ eXgXF.D.3X<X}.~.<XI.x Q Q , w o 4.2.9 ",
"0 9 9 G 7 y F 1Xv.a.c C.XX9X}.G.I.!.!.Z.a.W.!.!.,.l r.c.|.eX;XgXM.v.d.% v a s s y. X.X].+X-X.X=XH M d.i.u.A.S.Q.S.-XwXj ",
"D A 9 ( A k F ;.j.S 5 z %.L.o.x z | } x @.I | 3 X m |.#XOXQ.V.F.jX%X{.;XGX[.K.*X8XwX(.Q.wXoXZ.t.) E.8XoX3XwX3XwXJ.rX9XF ",
"J G J / J k z F T C 0 0 A V V 7 1 1 9 A L J 9 < w W.9X8XI.b v y.V.K..X[.eXK.A.A.I E u g Y.1X&.l S B oXXXU.Y.U Y.x z.p.3 ",
"J A A J J D k D q.* Z Z = Z = Z Z Z = * = Z T Z ^.}.^.C.x F T.W.y R ,Xg.m.n._ ( H ) R I R =.3.R *.N )./.m l y V k l.s 1 "
};
