/* XPM */
static char *f4c3d0c3f8da49bf9a66e30b5fae0048Hf7C7q8qYozPEhqJ[] = {
/* columns rows colors chars-per-pixel */
"60 60 8 1 ",
"  c #966F46",
". c #977047",
"X c #987148",
"o c #997249",
"O c #9A734A",
"+ c #9B744B",
"@ c #9C754C",
"# c #9D764D",
/* pixels */
"XXX@+XXXXX+XX+XXX+XXXXX+XXXX+XX+XXXXXXXXXX+XXXX+XXXXXXXXXX+X",
"+@@@@@@@@@@@@@@@@@@@@@@@@@@@@@@@@@@@@@@@@@@@@@@@@@@@@@@@@@@@",
"XX+++@XXX++++X+++X@+++X+@+X++++X@@@@@@@@+X++++X+@@@@@@@+X+++",
"XXXXXXXXXXXXXXXXXXXXXXXXXXXXXXXXXXXXXXXXXXXXXXXXXXXXXXXXXXXX",
"+@@@@@++@@@@@@@@@@@@@@@@@@@@@@@@@@@@@@+@@@@@@@@@@@@@@@@@@@@@",
"X+@@@@+X+X+XX++XX++XX++XX++XX+X+XXXXXXXXX++XX++XXXXXXXXX+X+X",
"XXXXXXXXXXXXXXXXXXXXXXXXXXXXXXXXXXXXXXXXXXXXXXXXXXXXXXXXXXXX",
"X@@@@@@X++++@@++@@++@@++@@++++@@@@@@@@@@@@++@@++@@@@@@@@++@@",
"X+++++++++X+X++++XX+X+++X++X+++X+X+++X+++XX+X++++++X+X++++X+",
"XXX++++XX+X+++X+++++++XXX++X+X+++X+X++X+++++++XX+X+++X+XX+X+",
"X++@+++++X+++X+XX++X+X++++++X+X+++X+XX++X++X+X++X+X+++X++X++",
"XXX++++++++X+X++X++X++X++XX+++X+X++++++XX++X++X+++X+X++++++X",
"XX+@+++XX++X++X++++X+X+++XX+++X+++XXX++++++X+X+++X++X++XX++X",
"XXX+++++X++X+X+++X+++X+X++++X+X+X+++++XX+X+++X+X++X+X++XX++X",
"XX++++++++++++XXX+X+++X+X++X+X++X++++X++X+X+++X+XX++++++++++",
"X++++++X+XX+X+++++X+X+++X++X+++X++XX++X+++X+X++++++X+XX++XX+",
"XXX+@+@XXXXXXXXXXXXXXXXXX+XXXXX++X+++X++XXXXXXXXXXXXXXXXXXXX",
"+++++X+X@@@+@@@+@@@@++@@+@+@@@+@+X+X++X+@+@@++@@@@@+@@@+@@@@",
"X++@+X+X@+@+@+@+@@@+@+@@+@@@@@++++X+XX++@@@+@+@@@+@+@+@+@+@@",
"X+X+@+@XXX+XXX+XXXXX+XXXXXXXXXXXX++++++XXXXX+XXXXX+XXX+XXXXX",
"X+X@+X+XXXX+XXXXX+XXX+XXXXXXXXX+++XXX+++X+XXX+XXXXX+XXXXXXX+",
"X@X@@++X@@+@++@@+@+@+@+@@@@+@@+@X+++++XX+@+@+@+@@@+@++@@@@+@",
"X++@+X++@@++@+@@+@@@+@@@@+@+@@++X++++X+++@@@+@@@@@++@+@@@@++",
"X+X+@+XXXXXX+XXXXXXXXXXXXX+XXXXX++XX++X+XXXXXXXXXXXX+XXXXXXX",
"+@+@@++XX+++X++X+++X+XX+++X+++X+++XX++X+++++++++++X+++X++X++",
"X++@@+@+++X+X++XXX+++++++X++X+X+X++++X+++++++++++X++X+X++X+X",
"++++++X++X+X++++++X+X++X++XX+X++X+++++XX++@@++@+++XX+X++++X+",
"X++++@+X+X+++XX++X++X++XX++++++X++XXX++++XX++X+XX++++++XX+++",
"X++@++XX+X+++XX+++X+X++++++XXX++X++++++X+++X++X++++XXX++++XX",
"XXXXX++X+X+X++++X+X+++X+XX+++++X++X+XX++XX+XX+X+XX+++++XX+++",
"X++++XXX++X+X++X+X+++X+X++X++++X+X+X++X+X+XXXX+X++X++++XX+++",
"XXXX++XXX+++X++X+++X+X+++X++XX+++X+++X+@XXX++XXX+X++XX++++XX",
"@@@@@++@@+@++@@+@++@@+@++@@+@++@@@@+@++@@+@++@@+@++@@+@++@@+",
"XXXX+XXXXX+XXXXX+XXXXX+XXXXX+XXXXXXX+XXXXX+XXXXX+XXXXX+XXXXX",
"XXX+XXXXXXXXXXX+XXXXXXXXXXX+XXXXXXX+XXXXXXXXXXX+XXXXXXXXXXX+",
"@++@+@@+@@@@@++@+@@@@@@@@++@+@@+@++@+@@+@@@@@++@+@@@@@@@@++@",
"@+@+++@+@@@@@@@+@++@@@@@@+@+++@+@+@+++@+@@@@@@@+@++@@@@@@+@+",
"XX+XXX+XXXXXXXXX+XXXXXXXXX+XXX+XXX+XXX+XXXXXXXXX+XXXXXXXXX+X",
"XXXXXXXXX+XXXXX+XXXXX+XXXXXXXXXXXXXXXXXXX+XXXXX+XXXXX+XXXXXX",
"@@@@@@@@+@+@@++@+@@++@@@@@@@@@@@@@@@@@@@+@+@@++@+@@++@@@@@@@",
"XXXXXXXXXXXX.XXXXXXXXXXXXXXXXXXXXXXXXXXXXXXXXXXXXXXXXXXXXXXX",
"XX@X++XXX++XXX+@XXX+XXXX+XXX+XXX+XXX+XXXXXXXX+XXXXX+XXXX+XXX",
"++++@+X+@+XX++++++@@@++@@+@@@+@+@+@@@+@+@@@@+@@@++@@@++@@+++",
"+X+++++@@+++XX++++XX++X++XX++X+X+XX++X+X+XX+X+X+++XX++X++X++",
"XX+++XXXX++XXX@+++X+X+X++++X++X++++X++X+X+X++@+X++X+X+X++++X",
"X++X+X+X++XX+X+XXXX+X+XXXX+XXXX+XX+XXXX+X+XXXX+XXXX+X+XXXX+X",
"X+@+@@+X@+X+X+@++++@@@++++@+++++++@++++@@@++++@++++@@@++++@+",
"@@@@@@@@@@@@@@@@@@@@@@@@@@@@@@@@@@@@@@@@@@@@@@@@@@@@@@@@@@@@",
"XXX+++XXXX+XX+XXX+XXX+XXXXXXXXXXXXXX+XX+XXXXXXXXXXXX+XX+XX+X",
"X+@@@@#@@@@@@@@@@@@@@@@@+@+++++@@@@@@@@@+@+++++@@@@@@@@@@@@@",
"XXX+@@@+X++++X+++X+++X@+X+XXXXX+++X++++XX+XXXXX+++X++++XX+++",
".XXXXXXXXXXXXXXXXXXXXXXXXXXXXXXXXXXXXXXXXXXXXXXXXXXXXXXXXXXX",
"+@@@@@@@@@@@@@@@@@@@@@@@@@@@@@@@@@@@@@@@@@@@@@@@@@@@@@@@@@@@",
"XXX@@@+@+X+XX++XX++X+X++@@@+++@@X++XX+X+@@@+++@@X++XX+X++X+X",
".XXXXXXXXXXXXXXXXXXXXXXXXX+XXX+XXXXXXXXXXX+XXXXXXXXXXXXXXXXX",
"XX@@@@@+++++@@+@@@++++++@@@@@@@@@@++++@@@@@@@@@@@@++++@@+++@",
"XX@@+X++XX+++X++X@@XX@@+XX+++XXX++XX++XX@X+XX++@X+X++@++XX+@",
"XX+@+X+++++X+X+XX@@++@@XXXXX+XXX+XX++++X@+@XX+X@XXX+X+++XXX+",
"XX++++X++++X++X++@@XX@@+XX+++XXX++X++++X@X+XX+X++XX++@+@X++@",
"XX++X+++XX++X+++X@@XX@@XX+XX+X+X+@XX+++X@++XX+++XXX+X++@XXX+"
};
