/* XPM */
static char *result[] = {
/* columns rows colors chars-per-pixel */
"60 60 237 2 ",
"   c #370B04",
".  c #3A1409",
"X  c #450902",
"o  c #441408",
"O  c #571903",
"+  c #4A1A12",
"@  c #641F03",
"#  c #5A2519",
"$  c #56311C",
"%  c #712A0F",
"&  c #5E3B21",
"*  c #632D24",
"=  c #642E2A",
"-  c #692F29",
";  c #643224",
":  c #6E3325",
">  c #6C322A",
",  c #653728",
"<  c #73352B",
"1  c #743A2C",
"2  c #7B3B2B",
"3  c #723525",
"4  c #653D38",
"5  c #6B4324",
"6  c #694424",
"7  c #724624",
"8  c #744A24",
"9  c #79492A",
"0  c #7D5329",
"q  c #784434",
"w  c #734C3D",
"e  c #765249",
"r  c #707174",
"t  c #843E2C",
"y  c #883E2B",
"u  c #873F30",
"i  c #8A3A1A",
"p  c #86412D",
"a  c #8C422C",
"s  c #894F2F",
"d  c #92442C",
"f  c #9A4A2E",
"g  c #96462A",
"h  c #84542A",
"j  c #8B552B",
"k  c #8B5B2B",
"l  c #855727",
"z  c #925E2D",
"x  c #874632",
"c  c #9C4D32",
"v  c #964730",
"b  c #9D5534",
"n  c #8A5C32",
"m  c #A14E33",
"M  c #A45133",
"N  c #A75A36",
"B  c #B95B36",
"V  c #A9512F",
"C  c #8F612B",
"Z  c #95642C",
"A  c #9B6A2C",
"S  c #8B6137",
"D  c #9B6531",
"F  c #9C6932",
"G  c #9E712E",
"H  c #A16D2F",
"J  c #AA6D2F",
"K  c #A8752F",
"L  c #A36D32",
"P  c #AB6A38",
"I  c #B56B39",
"U  c #A57232",
"Y  c #AD7335",
"T  c #AB7737",
"R  c #BC7C3A",
"E  c #B57839",
"W  c #C25F39",
"Q  c #C6643A",
"!  c #C77D3A",
"~  c #D17F3D",
"^  c #D26C3A",
"/  c #855A47",
"(  c #865C59",
")  c #B65F54",
"_  c #96634D",
"`  c #9A6C52",
"'  c #927059",
"]  c #AC6B46",
"[  c #BB6F41",
"{  c #AD7A43",
"}  c #AC744A",
"|  c #BE7444",
" . c #BB7B43",
".. c #B77A48",
"X. c #A27456",
"o. c #8E6D67",
"O. c #B27167",
"+. c #C37545",
"@. c #C47B4B",
"#. c #C77B47",
"$. c #C27D52",
"%. c #C87F50",
"&. c #CE6841",
"*. c #C47F7B",
"=. c #B98338",
"-. c #BE913A",
";. c #C4823B",
":. c #CB853C",
">. c #C58A3C",
",. c #CC8B3D",
"<. c #C08C36",
"1. c #D48A3D",
"2. c #DB8D3C",
"3. c #C6923B",
"4. c #CA943B",
"5. c #CC9A3D",
"6. c #D3923D",
"7. c #DB913E",
"8. c #D39A3D",
"9. c #DC9E3E",
"0. c #E0933E",
"q. c #E49A3F",
"w. c #DCA23F",
"e. c #E3AA3F",
"r. c #BD8346",
"t. c #BA8958",
"y. c #AE835A",
"u. c #AF8A66",
"i. c #BA9879",
"p. c #B98965",
"a. c #BBA27C",
"s. c #C28444",
"d. c #C5844C",
"f. c #C8834A",
"g. c #DE9C41",
"h. c #DA9641",
"j. c #C48354",
"k. c #CB8453",
"l. c #C48B55",
"z. c #CC8A55",
"x. c #CC8C5C",
"c. c #C6885D",
"v. c #D18554",
"b. c #D28B56",
"n. c #D48D5B",
"m. c #D98F5C",
"M. c #C8925B",
"N. c #D4925D",
"B. c #D9935D",
"V. c #DB995F",
"C. c #D68742",
"Z. c #E29841",
"A. c #DDA441",
"S. c #D6A041",
"D. c #E2A341",
"F. c #E5AC42",
"G. c #EBAC43",
"H. c #E9A641",
"J. c #EDB244",
"K. c #F1B144",
"L. c #F0AD42",
"P. c #C58C63",
"I. c #C98C65",
"U. c #CC916B",
"Y. c #C99967",
"T. c #D49462",
"R. c #DB9561",
"E. c #DD9A63",
"W. c #DC9D6B",
"Q. c #D59967",
"!. c #C99576",
"~. c #D79B72",
"^. c #D98E66",
"/. c #E19C65",
"(. c #E39E69",
"). c #E09766",
"_. c #DCA46C",
"`. c #D8A369",
"'. c #CAA477",
"]. c #D7A777",
"[. c #DDB77E",
"{. c #CFA166",
"}. c #E3A167",
"|. c #E4A36C",
" X c #E8A46E",
".X c #E9A96E",
"XX c #E7A86F",
"oX c #E6A671",
"OX c #E9A670",
"+X c #E4AA73",
"@X c #EDAE74",
"#X c #EEAF78",
"$X c #E2AC7A",
"%X c #F0AE77",
"&X c #EDB076",
"*X c #E4B47C",
"=X c #ECB37A",
"-X c #EEB97E",
";X c #E6B97F",
":X c #F0B37A",
">X c #7D8997",
",X c #8B919B",
"<X c #A79B96",
"1X c #B09787",
"2X c #B5A48E",
"3X c #AEAEAF",
"4X c #CA9F82",
"5X c #D5A885",
"6X c #DBB784",
"7X c #D0AE91",
"8X c #E0A783",
"9X c #E5BC83",
"0X c #ECBD83",
"qX c #EBBA84",
"wX c #F1BD83",
"eX c #E8B492",
"rX c #DDBBA5",
"tX c #CDBCB4",
"yX c #C2B6AA",
"uX c #DFC49F",
"iX c #EDC58C",
"pX c #EECB8E",
"aX c #E8C184",
"sX c #F2C58C",
"dX c #F2CA8E",
"fX c #F2C187",
"gX c #EEC991",
"hX c #EBC29D",
"jX c #F2CC92",
"kX c #F2C797",
"lX c #F0D29B",
"zX c #E3C9B3",
"xX c #EFD0AE",
"cX c #D5D2CE",
"vX c #F8DCC8",
"bX c #E6E4E4",
"nX c None",
/* pixels */
"nXnXnXnXnXnXnXnXnXnXnXnXnXnXnXnXnXnXnXnXnXnXnXnXnXnXnXnXnXnXnXnXnXnXnXnXnXnXnXnXnXnXnXnXnXnXnXnXnXnXnXnXnXnXnXnXnXnXnXnX",
"nXnXnXnXnXnXnXnXnXnXnXnXnXnXnXnXnXnXnXnXnXnXnXnXnXnXnXnXnXnXnXnXnXnXnXnXnXnXnXnXnXnXnXnXnXnXnXnXnXnXnXnXnXnXnXnXnXnXnXnX",
"nXnXnXnXnXnXnXnXnXnXnXnXnXnXnXnXnXnXnXnXnXnXnXnXnXnXnXnXnXnXnXnXnXnXnXnXnXnXnXnXnXnXnXnXnXnXnXnXnXnXnXnXnXnXnXnXnXnXnXnX",
"nXnXnXnXnXnXnXnXnXnXnXnXnXnXnXnXnXnXnXnXnXnXnXnX% 2 M x x q : nXnXnXnXnXnXnXnXnXnXnXnXnXnXnXnXnXnXnXnXnXnXnXnXnXnXnXnXnX",
"nXnXnXnXnXnXnXnXnXnXnXnXnXnXO O @ % i i f c c M M M Q V p p t q / nXnXnXnXnXnXnXnXnXnXnXnXnXnXnXnXnXnXnXnXnXnXnXnXnXnXnX",
"nXnXnXnXnXnXnXnXnXnXnXX X O a d d d d a a d d d d v f v a a a a 2 o.O.e nXnXnXnXnXnXnXnXnXnXnXnXnXnXnXnXnXnXnXnXnXnXnXnX",
"nXnXnXnXnXnXnXnXnXnXX y a a a a a a a a a a a a a a a a a d a a a t a x x e nXnXnXnXnXnXnXnXnXnXnXnXnXnXnXnXnXnXnXnXnXnX",
"nXnXnXnXnXnXnXnXnX  X y v a d a a a d a a a a y a a y a p a p p p a a p > ( o.nXnXnXnXnXnXnXnXnXnXnXnXnXnXnXnXnXnXnXnXnX",
"nXnXnXnXnXnXnXnXnXnXO b c m v y d d d a u 2 t a a a 1 : 1 p t : < 2 p a 2 w 1XnXnXnXnXnXnXnXnXnXnXnXnXnXnXnXnXnXnXnXnXnX",
"nXnXnXnXnXnXnXnXnX  c f B Q W B Q Q B m 2 - : y a p : q - 1 q * 9 3 : p y 2 o.nXnXnXnXnXnXnXnXnXnXnXnXnXnXnXnXnXnXnXnXnX",
"nXnXnXnXnXnXnXnXnXo c f B W ^ Q &.B W M 1 , ; 3 2 ; 1 X._ ; * * 9 p * 3 3 > e nXnXnXnXnXnXnXnXnXnXnXnXnXnXnXnXnXnXnXnXnX",
"nXnXnXnXnXnXnXnXnX# a a d N V c m d v a : ; * $ , e q / 6Xy.X.` u.i.X.; w o.e nXnXnXnXnXnXnXnXnXnXnXnXnXnXnXnXnXnXnXnXnX",
"nXnXnXnXnXnXnXnX  : u 2 a a 2 t t t t < q X./ e 1X3X<Xi.gXdXaX2XcX3X1XS _ zXtXnXnXnXnXnXnXnXnXnXnXnXnXnXnXnXnXnXnXnXnXnX",
"nXnXnXnXnXnXnXnX+ < > < 2 1 2 2 < < 1 > P.sXa.cXbX3X>X<X2XdX6X2XcX>Xr i.$.Q.zXnXnXnXnXnXnXnXnXnXnXnXnXnXnXnXnXnXnXnXnXnX",
"nXnXnXnXnXnXnX  - > > > 2 ] P.c.] 9 * 1 ].wXa.bXbX,X,X3Xa.dXaX'.7Xi.i.hX].$.rXnXnXnXnXnXnXnXnXnXnXnXnXnXnXnXnXnXnXnXnXnX",
"nXnXnXnXnXnX. - - > > > ] ;X_.Q.W.T.X.} _.dX6X2XzXuXuX6X6X-X=X:X&XN.aXgXxXU.rXnXnXnXnXnXnXnXnXnXnXnXnXnXnXnXnXnXnXnXnXnX",
"nXnXnXnXnX  o   + = > 1 @.XXR.E.E.@X@X=X0XjXjXiXiXgXgXgXdX-X=X&X(._.pXjXlXhX4XvXnXnXnXnXnXnXnXnXnXnXnXnXnXnXnXnXnXnXnXnX",
"nXnXnXnXnXnXnXnXnX= > > N n.|.XX+X@X@X-XdXjXgXjXgXiXjXgXdXdXdXiX;X].9XjXjXxX5XzXnXnXnXnXnXnXnXnXnXnXnXnXnXnXnXnXnXnXnXnX",
"nXnXnXnXnXnXnXnX+ # = = > x ] ] k. X@XwXdXgXgXjXjX_.I.Y.].].].5X!.p.I.jXjXlXeX7XnXnXnXnXnXnXnXnXnXnXnXnXnXnXnXnXnXnXnXnX",
"nXnXnXnXnXnXnXnX. . . + 4 - * w @.@X@X-XsXgXjXdXjXiX].t.` _ ) O.*.O.I.jXjXjX].rXnXnXnXnXnXnXnXnXnXnXnXnXnXnXnXnXnXnXnXnX",
"nXnXnXnXnXnXnXnXnXnXnXnX4 = e tX!.T.@X+XqXdXdXkXjXjXjXsX$XQ.^.^.~.$X0XkXkXwX!.xXnXnXnXnXnXnXnXnXnXnXnXnXnXnXnXnXnXnXnXnX",
"nXnXnXnXnXnXnXnXnXnXnXo./ X.!.!...P  .s.d.M.].qXiXdXsXsXsXjXjXdXjXjXjXjX$Xv.rXnXnXnXnXnXnXnXnXnXnXnXnXnXnXnXnXnXnXnXnXnX",
"nXnXnXnXnXnXnXnXnXnXnX!.x.V.E./.E.n.#.! 1.2.:.=.d.`.&X=X-X*X9XiXiXiXqX_.@.I 5XxXnXnXnXnXnXnXnXnXnXnXnXnXnXnXnXnXnXnXnXnX",
"nXnXnXnXnXnXnXnXnX4Xx.(..X@X&X&X=X:X.XN.! ~ E z =. .l.|. X|.B.k.k.k.k.m.).@.I P.hXnXnXnXnXnXnXnXnXC.nXnXnXnXnXnXnXnXnXnX",
"nXnXnXnXnXnXnX8Xc.B.@X@X&X&X-XdXdXsXdX0XE.[ j s H A.>.E k.N.B.R./.}.@X@X:X&Xz.I $.eXnXnXnXb.x.$.T.(.E.N.k.~ nXnXnXnXnXnX",
"nXnXnXnXnXnX].c./.=X&X#X-XiXdXdXjXjXjXdXqXb.P R D.J.J.,...XX&X%X&X&X&X&X0XdX-Xk.+.%.8XnXW. .|.n.|.@X%X@X.XN.f.nXnXnXnXnX",
"nXnXnXnXnXQ.%.oX&X&X&XwXdXjXjXjXjXjXjXjXwXB.P ! G.3.U =.;.r.@X@X&X&X-XsXdXjXdX=X%.%.%.!.U.@.n.m.E.b.W.XX@X}.$.nXnXnXnXnX",
"nXnXnXnXN.j.OX%X&X&XfXjXpXdXjXjXjXjXjXsXOX#.x.E g.=.H ,.F.R l.=X-XsXpXjXdXjXdXdX X#.n.j.qX0XXX(.OX(.n.N. XN.x.nXnXnXnXnX",
"nXnXnXnX$. X%X@X&XfXdXjXjXjXjXjXjXsXwX(.f.n.+Xr.1.K.K.e.5.k n '.dXjXjXjXjXjXjXjXwXv.@.oXsXqX@X&X&X%X&XOXV.j.nXnXnXnXnXnX",
"nXnXnX$.).%X@X@X=XsXdXdXgXjXjXjXwXoXv.k._.fXfXM.;.e.K.e.3.z 7 S '.jXjXjXjXjXjXjXkXoX+. X:X@X%X@X%XXXE.x.x.nXnXnXnXnXnXnX",
"nXnXnX%.@X@X&X&X=XdXjXpXjXdX0XoXb.%.T.-XdXpX9Xl.! 9.-.-.J.S.0 5 0 p.9XjXjXjXjXjXjX0Xj.b.=X%X&XXXV.x.T.nXnXnXnXnXnXnXnXnX",
"nXnXnX@.@X&X&X&X&X-X;XqX=X|.v.%.R.OX-XkXjX[.{ E 1.6.0 8 T E 0 6 5 k { 6XjXjXjXjXjXsXR.@. XE.N.x.|.nXnXnXnXnXnXnXnXnXnXnX",
"nXnXnX$.).%X&X&X&X=X+XW.j.+.R.OX#X#XiXjXjXM.! 7.Z.,.J D 8 8 l j Y C.{ aXjXjXjXjXjXjX+X[ U.~.nXnXnXnXnXnXnXnXnXnXnXnXnXnX",
"nXnXnXnX$.oX%X&X&X=XfXsX+X| k.v.N.;XjXjX].S L <.H U Z.H.9.4.9.D.,.Y S p.sXjXjXjXjXjX=X@.hXnXnXnXnXnXnXnXnXnXnXnXnXnXnXnX",
"nXnXnXnXR %.@X@X@X=X@X@Xz.m.(.N.| N.fXY.=.F k T G k 5.J.K.K.J.e.G 7 5 C t.9XjXjXjXjXwX$.kXnXnXnXnXnXnXnXnXnXnXnXnXnXnXnX",
"nXnXnXnXnXd.j.+X@X@X%X@XR.@X@X XN.|  .E 4.F.G.J.F.e.G.4.T U K =.3.4.4.8.6.=.Y.9XjXjXfX..I.nXnXnXnXnXnXnXnXnXnXnXnXnXnXnX",
"nXnXnXnXnXnXz.k.|.#X@X#X@X@X#X%X%Xk.H 9 l >.5.w.J.J.A.l 6 , 5 5 0 -.J.K.K.H.6.s.l.{.].{ R T nXnXnXnXnXnXnXnXnXnXnXnXnXnX",
"nXnXnXnXnXnXnXQ.j.E.@X%X@X@X@X@X}.+.L 5 8 8 0 4.J.J.F.=.l 8 6 6 6 0 =.S.D.F.K.w.G 9 s J ,. .nXnXnXnXnXnXnXnXnXnXnXnXnXnX",
"nXnXnXnXnXnXnXnXnX} k.E. XOXXXR.f.6.4.K 3.3.3.G.8.A G e.F.8.A 5 6 5 5 8 k =.F.F.8.=.E 1. .nXnXnXnXnXnXnXnXnXnXnXnXnXnXnX",
"nXnXnXnXnXnXnXnXnX' 9 s b P P E :.q.w.H.G.G.L.G.8.Z U e.J.G.w.=.A Z D L =.h.h.6.,.=.Y D t.nXnXnXnXnXnXnXnXnXnXnXnXnXnXnX",
"nXnXnXnXnXnXnXnXnXy.D D h 9 5 5 8 8 l k z D H L U L U T T T U U F D Z k j 0 9 8 8 8 9 8 nXnXnXnXnXnXnXnXnXnXnXnXnXnXnXnX",
"nXnXnXnXnXnXnXnXnXnXR Z.Z.P 9 8 5 l Z z j h 9 8 8 8 & & & 6 7 8 8 8 & & 6 0 F k Z Z ;.{ nXnXnXnXnXnXnXnXnXnXnXnXnXnXnXnX",
"nXnXnXnXnXnXnXnXnXnXt.:.q.;.j j ;.1.C.C.2.7.7.7.2.R l 7 k 4.6.6.g.h.Z s 9 8 G >.Y R R T nXnXnXnXnXnXnXnXnXnXnXnXnXnXnXnX",
"nXnXnXnXnXnXnXnXnXnXnXY.s.1.1.:.f.s.l.z.s.;.,.2.0.0.2.<.8.e.K J >.s.E I T F T r.l.s.E r.nXnXnXnXnXnXnXnXnXnXnXnXnXnXnXnX",
"nXnXnXnXnXnXnXnXnXnXnXnXnX'.[ ..B.OX@X@X@X_.N.l.f. .;.:.>.s.M.{.].9XE.| N.{.{.9XiXT...nXnXnXnXnXnXnXnXnXnXnXnXnXnXnXnXnX",
"nXnXnXnXnXnXnXnXnXnXnXnXnXnXnX5Xn.).OX@X&X%X&X@X@XXX_.`.|..X-X-X-X=X#Xz.k.wXjXdX+Xl.nXnXnXnXnXnXnXnXnXnXnXnXnXnXnXnXnXnX",
"nXnXnXnXnXnXnXnXnXnXnXnXnXnXnXnXnX7XU.n./.@X#X#X@X@X&X&X@X@X&X%X@X@X#XE.@.OX#X(.j.Q.nXnXnXnXnXnXnXnXnXnXnXnXnXnXnXnXnXnX",
"nXnXnXnXnXnXnXnXnXnXnXnXnXnXnXnXnXnXnXhXU. .b.B./.|.@X@X@X@X%X.X@X@X%X/.+.B.z.U.nXnXnXnXnXnXnXnXnXnXnXnXnXnXnXnXnXnXnXnX",
"nXnXnXnXnXnXnXnXnXnXnXnXnXnXnXnXnXnXnXnXeX@.E.R.v.! E.@X@X@X&X&X@X&X%X/.+.~.nXnXnXnXnXnXnXnXnXnXnXnXnXnXnXnXnXnXnXnXnXnX",
"nXnXnXnXnXnXnXnXnXnXnXnXnXnXnXnXnXnXnXnXnX$.XX@X@X%.v.%X&X%X%X%X&X@X%XB.P.nXnXnXnXnXnXnXnXnXnXnXnXnXnXnXnXnXnXnXnXnXnXnX",
"nXnXnXnXnXnXnXnXnXnXnXnXnXnXnXnXnXnXnXnXnXP./.@X@XR.#. X@X.X@X@X&X%X&Xb.U.nXnXnXnXnXnXnXnXnXnXnXnXnXnXnXnXnXnXnXnXnXnXnX",
"nXnXnXnXnXnXnXnXnXnXnXnXnXnXnXnXnXnXnXnXnXW.k.@X@X@X+.N.V.B.@X@X&X@X.Xk.I.nXnXnXnXnXnXnXnXnXnXnXnXnXnXnXnXnXnXnXnXnXnXnX",
"nXnXnXnXnXnXnXnXnXnXnXnXnXnXnXnXnXnXnXnXnXnXI.R.@X/.+.(.n.f.}..X@X%X@X.XE.N.z.n.nXnXnXnXnXnXnXnXnXnXnXnXnXnXnXnXnXnXnXnX",
"nXnXnXnXnXnXnXnXnXnXnXnXnXnXnXnXnXnXnXnXnXnXnXc.E.k.+.@X@XV.N.|.@X@X@X@X&X.XW.z.%.%.nXnXnXnXnXnXnXnXnXnXnXnXnXnXnXnXnXnX",
"nXnXnXnXnXnXnXnXnXnXnXnXnXnXnXnXnXnXnXnXnXnXnXnXk.@.[ d.B.}.@X&X%X@X@X@XXXE.k.v.#.+.nXnXnXnXnXnXnXnXnXnXnXnXnXnXnXnXnXnX",
"nXnXnXnXnXnXnXnXnXnXnXnXnXnXnXnXnXnXnXnXnXnXnXnXnXnXnXnX|.T.I.x.B.}.}.}.}. X%.@.+.nXnXnXnXnXnXnXnXnXnXnXnXnXnXnXnXnXnXnX",
"nXnXnXnXnXnXnXnXnXnXnXnXnXnXnXnXnXnXnXnXnXnXnXnXnXnXnXnXnXnXnXnXnXb.k.k.k.f.+.nXnXnXnXnXnXnXnXnXnXnXnXnXnXnXnXnXnXnXnXnX",
"nXnXnXnXnXnXnXnXnXnXnXnXnXnXnXnXnXnXnXnXnXnXnXnXnXnXnXnXnXnXnXnXnXnXnXnXnXnXnXnXnXnXnXnXnXnXnXnXnXnXnXnXnXnXnXnXnXnXnXnX",
"nXnXnXnXnXnXnXnXnXnXnXnXnXnXnXnXnXnXnXnXnXnXnXnXnXnXnXnXnXnXnXnXnXnXnXnXnXnXnXnXnXnXnXnXnXnXnXnXnXnXnXnXnXnXnXnXnXnXnXnX",
"nXnXnXnXnXnXnXnXnXnXnXnXnXnXnXnXnXnXnXnXnXnXnXnXnXnXnXnXnXnXnXnXnXnXnXnXnXnXnXnXnXnXnXnXnXnXnXnXnXnXnXnXnXnXnXnXnXnXnXnX"
};
