/* XPM */
static char *result[] = {
/* columns rows colors chars-per-pixel */
"60 60 234 2 ",
"   c #592C1D",
".  c #5C3B1F",
"X  c #622E1E",
"o  c #68331F",
"O  c #5C2B24",
"+  c #5C3825",
"@  c #632E23",
"#  c #652D2A",
"$  c #6A2F2B",
"%  c #633223",
"&  c #6B3325",
"*  c #6B312B",
"=  c #68392A",
"-  c #713426",
";  c #73352A",
":  c #7B3A2A",
">  c #773B2A",
",  c #663C34",
"<  c #6C4325",
"1  c #6B4525",
"2  c #754B25",
"3  c #7A4D26",
"4  c #744C2B",
"5  c #7B4E29",
"6  c #764529",
"7  c #7B5226",
"8  c #7C522A",
"9  c #754937",
"0  c #795A3E",
"q  c #77544A",
"w  c #744F48",
"e  c #7B7070",
"r  c #833D2B",
"t  c #843C27",
"y  c #823D32",
"u  c #84422D",
"i  c #8C422C",
"p  c #804E2B",
"a  c #93452C",
"s  c #9C4B2D",
"d  c #98492E",
"f  c #83542A",
"g  c #8C5C2B",
"h  c #865528",
"j  c #945C2D",
"k  c #874332",
"l  c #984A30",
"z  c #8A5933",
"x  c #9B5937",
"c  c #AB5434",
"v  c #A35433",
"b  c #B45734",
"n  c #A35032",
"m  c #8E612E",
"M  c #95632D",
"N  c #99642D",
"B  c #9C6A2D",
"V  c #9C6B31",
"C  c #9A6530",
"Z  c #8F6939",
"A  c #A06C2F",
"S  c #A36C32",
"D  c #AA6B36",
"F  c #BD673B",
"G  c #A57332",
"H  c #AA7637",
"J  c #BB7C3A",
"K  c #B57838",
"L  c #A5732E",
"P  c #C25F36",
"I  c #C4623A",
"U  c #C9663C",
"Y  c #C37D3A",
"T  c #CA7A3C",
"R  c #D1683D",
"E  c #845442",
"W  c #895C4B",
"Q  c #895A4A",
"!  c #AE5B4F",
"~  c #936751",
"^  c #AA6A45",
"/  c #B56E45",
"(  c #AF7542",
")  c #AE7A4B",
"_  c #BD7344",
"`  c #BE7A4C",
"'  c #B87746",
"]  c #A97856",
"[  c #BE7B53",
"{  c #B87956",
"}  c #BC605A",
"|  c #987769",
" . c #C27545",
".. c #C37B4C",
"X. c #C67B48",
"o. c #C57D53",
"O. c #D06B40",
"+. c #C77B75",
"@. c #BC823B",
"#. c #BE8B3B",
"$. c #B78135",
"%. c #C4843B",
"&. c #CB853D",
"*. c #CC8C3C",
"=. c #C5893A",
"-. c #D48B3E",
";. c #D5883D",
":. c #CF933C",
">. c #C5903A",
",. c #D5923C",
"<. c #DC923E",
"1. c #D39C3E",
"2. c #DB9C3F",
"3. c #E1923E",
"4. c #DBA53F",
"5. c #9F815E",
"6. c #BA834B",
"7. c #AD845A",
"8. c #B98757",
"9. c #BE905E",
"0. c #9A817B",
"q. c #AD8867",
"w. c #B78A66",
"e. c #BD9B79",
"r. c #A98D77",
"t. c #C38342",
"y. c #C3844C",
"u. c #CC814C",
"i. c #CA8846",
"p. c #D28B45",
"a. c #DE9E41",
"s. c #C68154",
"d. c #CD8453",
"f. c #CE8A55",
"g. c #C4845B",
"h. c #CD8A5B",
"j. c #C78858",
"k. c #D28654",
"l. c #D28C56",
"z. c #D48E5A",
"x. c #D88E5B",
"c. c #CB935A",
"v. c #C6925B",
"b. c #D6925D",
"n. c #D9925D",
"m. c #D4955A",
"M. c #E29C41",
"N. c #E69742",
"B. c #DBA441",
"V. c #D5A243",
"C. c #E4A541",
"Z. c #ECAC44",
"A. c #E6A742",
"S. c #ECB144",
"D. c #E7B144",
"F. c #F0B245",
"G. c #F0AC45",
"H. c #C38A63",
"J. c #C58B67",
"K. c #D08F63",
"L. c #CA9668",
"P. c #D29363",
"I. c #DB9562",
"U. c #DD9A64",
"Y. c #DA9D68",
"T. c #D59868",
"R. c #CC9B7C",
"E. c #C99573",
"W. c #D49F7E",
"Q. c #C58E70",
"!. c #E29D66",
"~. c #E39D69",
"^. c #DEA16C",
"/. c #D2A26C",
"(. c #CFA77D",
"). c #D7A674",
"_. c #DDB87E",
"`. c #E4A36C",
"'. c #E9A66E",
"]. c #E7A76D",
"[. c #E5AA72",
"{. c #ECAE74",
"}. c #ECAF79",
"|. c #E6A673",
" X c #F0AE74",
".X c #EDB075",
"XX c #E5B47C",
"oX c #EDB37B",
"OX c #EEBA7E",
"+X c #F0B77E",
"@X c #717988",
"#X c #899197",
"$X c #AA9788",
"%X c #AB9086",
"&X c #B2A399",
"*X c #9FA3A9",
"=X c #ACADAF",
"-X c #CA9D84",
";X c #D19E84",
":X c #CAA486",
">X c #D4A384",
",X c #D7AB8A",
"<X c #CEB083",
"1X c #DAB687",
"2X c #D5AD93",
"3X c #D7AE99",
"4X c #DAB49A",
"5X c #E3BC83",
"6X c #EDBC83",
"7X c #E6B987",
"8X c #F1BD83",
"9X c #DDBBA7",
"0X c #CABDB8",
"qX c #EEC186",
"wX c #EDC48B",
"eX c #EBC88C",
"rX c #F2C58C",
"tX c #F2CA8E",
"yX c #F1C287",
"uX c #EECC92",
"iX c #E6C494",
"pX c #F2CC92",
"aX c #F1CF99",
"sX c #D7C3B7",
"dX c #E7C9A5",
"fX c #E3C9B6",
"gX c #F0D5B4",
"hX c #EBDBD1",
"jX c #F3E2D5",
"kX c #E9E9E7",
"lX c #F6F1EC",
"zX c #FAF7F2",
"xX c #D5CFCD",
"cX c None",
/* pixels */
"cXcXcXcXcXcXcXcXcXcXcXcXcXcXcXcXcXcXcXcXcXcXcXcXcXcXcXcXcXcXcXcXcXcXcXcXcXcXcXcXcXcXcXcXcXcXcXcXcXcXcXcXcXcXcXcXcXcXcXcX",
"cXcXcXcXcXcXcXcXcXcXcXcXcXcXcXcXcXcXcXcXcXcXcXcXcXcXcXcXcXcXcXcXcXcXcXcXcXcXcXcXcXcXcXcXcXcXcXcXcXcXcXcXcXcXcXcXcXcXcXcX",
"cXcXcXcXcXcXcXcXcXcXcXcXcXcXcXcXcXcXcXcXcXcXcXcXcXcXcXcXcXcXcXcXcXcXcXcXcXcXcXcXcXcXcXcXcXcXcXcXcXcXcXcXcXcXcXcXcXcXcXcX",
"cXcXcXcXcXcXcXcXcXcXcXcXcXcXcXcXcXcXcXcXcXcXcXcXcXcXcXcXcXcXcXcXcXcXcXcXcXcXcXcXcXcXcXcXcXcXcXcXcXcXcXcXcXcXcXcXcXcXcXcX",
"cXcXcXcXcXcXcXcXcXcXcXcXcXcXcXcXcXcXcXcXcXcXcXcXcXcXcXcX~ = c l y k E | cXcXcXcXcXcXcXcXcXcXcXcXcXcXcXcXcXcXcXcXcXcXcXcX",
"cXcXcXcXcXcXcXcXcXcXcXcXcXcXcXcXcXW E k l l l s s n s n v s F I d i r t r E cXcXcXcXcXcXcXcXcXcXcXcXcXcXcXcXcXcXcXcXcXcX",
"cXcXcXcXcXcXcXcXcXcXcXcXcXE : r a i a a i a i i i i i a a d d l i i a r r r 9 0.%XcXcXcXcXcXcXcXcXcXcXcXcXcXcXcXcXcXcXcX",
"cXcXcXcXcXcXcXcXcXcXq ; : y a a i a i i i i i i i i i a r r a r i i i a r a t r a i u 0 cXcXcXcXcXcXcXcXcXcXcXcXcXcXcXcX",
"cXcXcXcXcXcXcXcXcXcXcX9 o a d r y r a r a r a a i i i i k i r y r r a u r i i i i : o w cXcXcXcXcXcXcXcXcXcXcXcXcXcXcXcX",
"cXcXcXcXcXcXcXcXcXcXcX9 a n d n n a a a a a a r t r u i i i r & $ : r i & * > r i i u = 0.cXcXcXcXcXcXcXcXcXcXcXcXcXcXcX",
"cXcXcXcXcXcXcXcXcXcXcX> b s / O.R b P I O.b c r - & - r i y & 6 9 O > : @ ; u & & t r u > cXcXcXcXcXcXcXcXcXcXcXcXcXcXcX",
"cXcXcXcXcXcXcXcXcXcXW k r s c b R I O.I b I c r O = % & : # @ z 7.W # @ O 6 k 9 X - % & = cXcXcXcXcXcXcXcXcXcXcXcXcXcXcX",
"cXcXcXcXcXcXcXcXcXcX9 : u i a c b d c d r s a ; O + + + = E E 9 q.1Xw.7.] q.e.e.~ O , %Xw cXcXcXcXcXcXcXcXcXcXcXcXcXcXcX",
"cXcXcXcXcXcXcXcXcXcX# y : r i i : : y r r y y - ] 7.0 q &X0X=Xe.<XuXuXuXe.sXxX*Xr.z 0 9XsXcXcXcXcXcXcXcXcXcXcXcXcXcXcXcX",
"cXcXcXcXcXcXcXcXcXw $ ; * ; : : : : r ; ; : @ ] 7X1X$XkXkX=X@X#X$X<XaX1Xr.kX=X@Xe -X` P.;XcXcXcXcXcXcXcXcXcXcXcXcXcXcXcX",
"cXcXcXcXcXcXcXcX, # # * * & 6 ^ K.T.g.^ 6 @ % H.6X1X$XlXkX*X#X=X&X(.aX7X/.<X(.e.e.aX,X..L.cXcXcXcXcXcXcXcXcXcXcXcXcXcXcX",
"cXcXcXcXcXcXq # # $ $ $ * : / 7X).T.P.Y.T.{ ] T.6XuX<X&XdXiXiXiX<XwXoXoXoXoX`.P.eXpXgX>XQ.cXcXcXcXcXcXcXcXcXcXcXcXcXcXcX",
"cXcXcXcXcXcXO , w W , O # : ` |.x.|.I.'.{.}..XOXrXtXuXeXtXtXpXtXpXrX6XoX8X'.P.7XtXpXpXgX>XcXcXcXcXcXcXcXcXcXcXcXcXcXcXcX",
"cXcXcXcXcXcXcXcXcXcXw O $ ; x h.U.`.'.'.{.}.+XtXtXtXtXtXtXeXuXtXpXrXrXrXyXoX).^.XXpXpXaXdXQ.cXcXcXcXcXcXcXcXcXcXcXcXcXcX",
"cXcXcXcXcXcXcXcXcXq O % @ # $ 9 x ^ D b.'.{.+XtXtXtXpXtXpX1Xv.j.E.W.(.>X>XR.R.] /.pXaXtXaXE.cXcXcXcXcXcXcXcXcXcXcXcXcXcX",
"cXcXcXcXcXcXcXcXcXcX0.0.&X%X# # # + Q x. X XoXrXtXuXtXpXtXtXqXL.] ~ ! } } +.+.} /.pXpXpXwXQ.cXcXcXcXcXcXcXcXcXcXcXcXcXcX",
"cXcXcXcXcXcXcXcXcXcXcXcXcX0X# , w &XfX8.n.'.`.oX6XuXuXuXpXpXuXuX8X7XY.T.I.).[.7XwXpXpXrXT.cXcXcXcXcXcXcXcXcXcXcXcXcXcXcX",
"cXcXcXcXcXcXcXcXcXcXcXcXlX%X~ ~ { w.8._ J t.&.t.y.c.)._.qXtXtXuXrXrXpXpXpXpXpXaXpXuX[.H.;XcXcXcXcXcXcXcXcXcXcXcXcXcXcXcX",
"cXcXcXcXcXcXcXcXcXcXcXjX,XJ.K.z.P.x.k.k.u.T T ;.3.p.=.J 6.T.[..XoXoX}.7X6XwXwX6X7XY._ [ fXcXcXcXcXcXcXcXcXcXcXcXcXcXcXcX",
"cXcXcXcXcXcXcXcXcXcX9Xg.n.'.{..X.XOXOXqXOX[.b.X.&.Y V g J %.' b.`.~.~.P.d.u.y.d.l.P.`.n.H.9XcXcXcXcXcXcXcXcXcXcXcXcXcXcX",
"cXcXcXcXcXcXcXcXcXcX..!.{.{.}.oXtXtXtXuXtXtXyX[. .x f g A B.2.J K l.I.I.U.~.`.'.{.}.{.+X^...4XcXcXcXcXcXcXcXcXcXcXcXcXcX",
"cXcXcXcXcXcXcXcXcXH.z..X{.{.}.rXtXtXtXtXtXtXtX8XI.F H J C.D.S.B.@.6.]..X.X.X.X}.}.oX8XtXtX[...2XcXcXcXcXcXcXcXcXcXcXcXcX",
"cXcXcXcXcXcXcXcXcX` `.{.{.{.8XpXuXtXuXtXuXtXtX6Xx. .( &.S.:.L A *.%.6.[.{.{..X7X6XrXtXpXpXrX`...H.E.,XcXcXcXcXcXcXcXcXcX",
"cXcXcXcXcXcXcXcX;Xo.}.}.{..XyXtXuXpXpXuXpXpXrX}...f.T.K a.:.G K 4.C.K 6..X+XyXtXtXpXpXpXpXpXtXY.F  .b.~.I.k.R.cXcXcXcXcX",
"cXcXcXcXcXcXcXcXE.k.{..X{.oXtXtXtXtXpXtXpXtX6Xb._ `.[.) &.Z.F.F.D.$.7 8 9.uXpXtXpXpXpXpXpXpXtX6Xl. .'.oX.X{.z.g.cXcXcXcX",
"cXcXcXcXcXcXcXcXH.z..X{..XoXtXtXtXtXpXtXpXyX`. .^.qXqX8.&.3.S.S.D.=.j < 7 7.eXuXpXpXpXpXpXpXpXrX}._ u..X{..X|.X.3XcXcXcX",
"cXcXcXcXcXcXcXcXg.m..X{..X.XtXtXtXtXpXpXtX.Xu.j.eXeX_.6.T A.>.H :.D.4.f 1 1 Z 9.eXuXpXpXpXpXpXpX8Xl.F m.{.{.`.o.cXcXcXcX",
"cXcXcXcXcXcXcXcXE.K. X{.{.{.+XrXtXtXtXtXoXd.s.qXeX9.H D ;.<.N < h H H 7 1 < 5 V ) 5XpXpXpXpXpXpXrX'.O.x.I.z.J.cXcXcXcXcX",
"cXcXcXcXcXcXcXcX;Xo.{. X{.{..XoXOX6XXX^.x...h.^.c...X.T ;.<.K K N 3 2 g g L ;.&.) eXpXuXaXpXpXpXrX6X .{ ;XcXcXcXcXcXcXcX",
"cXcXcXcXcXcXcXcXcX..~.}..X{..X{.}.{.{.oX6XyXT.F !.~.x.d.t.X.-.A.A.1.1.4.Z.2.H B g w.iXaXpXpXpXpXpX8Xy.-XcXcXcXcXcXcXcXcX",
"cXcXcXcXcXcXcXcXcX4Xo.I.'..X.X{.{..X.XoX6XOX`.y.'.{.|. X{.`.T ,.S.S.S.S.D.#.7 1 4 M 6./.tXpXpXpXpXrXj.Q.cXcXcXcXcXcXcXcX",
"cXcXcXcXcXcXcXcXcXcXq.x _ x.`.}. X{.{..X{.{.{.`.{.{..X.X.X.Xl.F $.G Z B G #.1.:.2.C.<.%.i./.5XtXuXtXj.) cXcXcXcXcXcXcXcX",
"cXcXcXcXcXcXcXcXcXcX4 < 6 j J u.x.~.|. X.X X.X.X{.{..X X.X Xl.v 1 = 1 1 1 1 M 2.S.F.F.Z.2.*.=.6.L.).) K %.q.cXcXcXcXcXcX",
"cXcXcXcXcXcXcXcXcXcX4 6 < 3 m g h x ^ X.x.!.`.|.{.{.'.`.!.l.Y -.L h 7 1 < < < g #.1.4.B.Z.Z.:.M 3 3 M ;.J cXcXcXcXcXcXcX",
"cXcXcXcXcXcXcXcXcXcX5.z S =.t.5 < < 3 =.2.-.;.i.p.k.i.p.Y h p >.S.C.V.G 2 < = < 1 2 h L 4.S.C.2.=.J &.i.7.cXcXcXcXcXcXcX",
"cXcXcXcXcXcXcXcXcXcXcX4 3 f g f 5 f V *.2.a.3.C.C.3.C.A.2.L N :.G.G.S.C.p.H V V B L J :.,.,.*.%.J S g 7.cXcXcXcXcXcXcXcX",
"cXcXcXcXcXcXcXcXcXcXcXr.C S m 8 < < < 1 2 4 p h j j M N B V B A S A B B B V M g g g f 8 3 1 1 1 6 7 7 r.cXcXcXcXcXcXcXcX",
"cXcXcXcXcXcXcXcXcXcXcXcX6.-.N.J p 6 6 2 M D N M g f 8 5 3 3 1 . . 1 2 2 2 7 8 4 . + 1 p N G g V B $.@.r.cXcXcXcXcXcXcXcX",
"cXcXcXcXcXcXcXcXcXcXcXcXcX8.&.;.j h S &.;.;.-.,.3.<.N.<.<.&.N 5 2 A 2.:.*.2.C.>.m g 5 < 7 #.$.K @.%.D / cXcXcXcXcXcXcXcX",
"cXcXcXcXcXcXcXcXcXcXcXcXcXcXw.J -.&.Y @.i.c.c.v.y.&.&.-.<.3.3.<.:.4.a.K V J &.t.y.6.( S H @.6.v.y.6.` ' cXcXcXcXcXcXcXcX",
"cXcXcXcXcXcXcXcXcXcXcXcXcXcX:X( y.m.^.]..X.X.XyXeX_.)./.c.y.t.Y y.v.L.9.( h.^.|..X.X^.m.c.).tXpXwX6X{.' cXcXcXcXcXcXcXcX",
"cXcXcXcXcXcXcXcXcXcXcXcX2XK.b.^.{..X X.X.X{..XrXpXpXuXtXpXqX^./ 9XlXzXhX[ x.{..X.X.X.X.X{.{.OXOXqX8X|._ cXcXcXcXcXcXcXcX",
"cXcXcXcXcXcXcXcXcXcXcXg.l.`.{.{..X.X.X{..X.X.XrXpXpXpXtXtX6Xf.H.lXcXcXR.d.|.{..X.X]..X[..X.X.X.X.X'.o.cXcXcXcXcXcXcXcXcX",
"cXcXcXcXcXcXcXT.P.P.d.!. X X X{.{..X{..X X.X.XOXrXpXpXpXrX~...hXcXcX2X..|.}.{.}.{.{.{.{..X{.{.{.]...>XcXcXcXcXcXcXcXcXcX",
"cXcXcXcXcXo.I.|.].n.d.x.`.{.{..X{.{..X.X.X.X.X.X6X8X8X8XY...4XcXhX2X6.U.].{.{.{.{..X.X{.{..X{.U.s.cXcXcXcXcXcXcXcXcXcXcX",
"cXcXcXcX3X.. X{.x.X.`.'.]..X X.X X X.X.X.X.X.X.X X'.~.d.L.fXjX>Xd.I.`.f.l.`.{.{.{..X{..X.X!.k.Q.cXcXcXcXcXcXcXcXcXcXcXcX",
"cXcXcXcX3X .{.{.`.U. X{. X.X.X.X.X.XoX.X].].`.n.K.L.;XfXcXcX9X .'.}.U.F '.{.{.{.{.{.{.].m.H.cXcXcXcXcXcXcXcXcXcXcXcXcXcX",
"cXcXcXcX9X .[.{.{.{.{..X{.{.`.`.U.I.P.P.P.R.,XcXcXcXcXcXcXcXcX[ I.}.{.n.!.{.{.{.{.'.m.j.4XcXcXcXcXcXcXcXcXcXcXcXcXcXcXcX",
"cXcXcXcXcX .'.{..X.X.X{. X!...>XcXcXcXcXcXcXcXcXcXcXcXcXcXcXcXcXg.n.{..X{.'.{.{.{.{.k.H.cXcXcXcXcXcXcXcXcXcXcXcXcXcXcXcX",
"cXcXcXcXcXH.z.{.}.[.{..X Xk.Q.cXcXcXcXcXcXcXcXcXcXcXcXcXcXcXcXcXcXH.f.{.{..X.X{.}.{.'...2XcXcXcXcXcXcXcXcXcXcXcXcXcXcXcX",
"cXcXcXcXcXcXo.'.{.`.z.'.'...cXcXcXcXcXcXcXcXcXcXcXcXcXcXcXcXcXcXcXcXE.d.!.{. X{.`.~.'.I.[ cXcXcXcXcXcXcXcXcXcXcXcXcXcXcX",
"cXcXcXcXcXcXcXd.k.o.o.k.n. .cXcXcXcXcXcXcXcXcXcXcXcXcXcXcXcXcXcXcXcXcXcXE.h.`. X~...z.k.k.[ cXcXcXcXcXcXcXcXcXcXcXcXcXcX",
"cXcXcXcXcXcXcXcXJ.H.g. .g.E.cXcXcXcXcXcXcXcXcXcXcXcXcXcXcXcXcXcXcXcXcXcXcXcX(.K... .d.` H.cXcXcXcXcXcXcXcXcXcXcXcXcXcXcX",
"cXcXcXcXcXcXcXcXcXcXcXcXcXcXcXcXcXcXcXcXcXcXcXcXcXcXcXcXcXcXcXcXcXcXcXcXcXcXcXcXcXcXcXcXcXcXcXcXcXcXcXcXcXcXcXcXcXcXcXcX",
"cXcXcXcXcXcXcXcXcXcXcXcXcXcXcXcXcXcXcXcXcXcXcXcXcXcXcXcXcXcXcXcXcXcXcXcXcXcXcXcXcXcXcXcXcXcXcXcXcXcXcXcXcXcXcXcXcXcXcXcX"
};
