/* XPM */
static char *result[] = {
/* columns rows colors chars-per-pixel */
"60 60 232 2 ",
"   c #0B0000",
".  c #1B0000",
"X  c #240000",
"o  c #2E0200",
"O  c #3D0100",
"+  c #370602",
"@  c #480401",
"#  c #560A00",
"$  c #5A1809",
"%  c #50170F",
"&  c #671805",
"*  c #5D381E",
"=  c #592017",
"-  c #702813",
";  c #5C2F26",
":  c #622D23",
">  c #6A2F28",
",  c #633124",
"<  c #6A3325",
"1  c #65312B",
"2  c #69312B",
"3  c #653B27",
"4  c #723525",
"5  c #73352A",
"6  c #74392B",
"7  c #7B3B2B",
"8  c #783728",
"9  c #743C31",
"0  c #6B4424",
"q  c #6A4229",
"w  c #654124",
"e  c #724525",
"r  c #754B24",
"t  c #7B4C2A",
"y  c #76472A",
"u  c #7C512A",
"i  c #7F5227",
"p  c #754434",
"a  c #76523C",
"s  c #7E5851",
"d  c #774C44",
"f  c #7D777A",
"g  c #833D2B",
"h  c #883F2B",
"j  c #8B422C",
"k  c #85412E",
"l  c #92442D",
"z  c #98492E",
"x  c #835529",
"c  c #8C5C2B",
"v  c #865828",
"b  c #8B4430",
"n  c #9C4C31",
"m  c #924730",
"M  c #8B5932",
"N  c #9A5938",
"B  c #935C2D",
"V  c #A14E32",
"C  c #A75233",
"Z  c #B85B36",
"A  c #A04C2D",
"S  c #8F6228",
"D  c #93622D",
"F  c #98672D",
"G  c #986432",
"H  c #A36F2F",
"J  c #A46C33",
"K  c #A66B36",
"L  c #B5693B",
"P  c #A67532",
"I  c #AC7434",
"U  c #AD7637",
"Y  c #B27434",
"T  c #B37B35",
"R  c #BB7C3A",
"E  c #B7783A",
"W  c #A3712F",
"Q  c #CE6213",
"!  c #D05C26",
"~  c #CC6B27",
"^  c #CA6639",
"/  c #C5773B",
"(  c #D0693C",
")  c #945F44",
"_  c #92664B",
"`  c #926C51",
"'  c #AF7446",
"]  c #BD7444",
"[  c #B97946",
"{  c #A77959",
"}  c #B77757",
"|  c #AA674B",
" . c #947368",
".. c #886863",
"X. c #BD6661",
"o. c #C57D4C",
"O. c #CA7E4C",
"+. c #C27545",
"@. c #C47C51",
"#. c #CA7F53",
"$. c #D47856",
"%. c #C27473",
"&. c #BA8637",
"*. c #CA853C",
"=. c #C48D3A",
"-. c #CB8D3C",
";. c #C4893A",
":. c #D48A3C",
">. c #DB8D3E",
",. c #CB933D",
"<. c #C4913A",
"1. c #D39A3C",
"2. c #D9973E",
"3. c #E08E3D",
"4. c #DAA13E",
"5. c #E2A93F",
"6. c #BC8549",
"7. c #BA8556",
"8. c #B78B68",
"9. c #AC937C",
"0. c #A7876B",
"q. c #C38343",
"w. c #CC824D",
"e. c #C68647",
"r. c #D68A45",
"t. c #D69840",
"y. c #C48254",
"u. c #CC8454",
"i. c #CC8955",
"p. c #C3825A",
"a. c #CD8B5B",
"s. c #C78859",
"d. c #D18654",
"f. c #D28A54",
"g. c #D38D5A",
"h. c #D88C5B",
"j. c #CA9057",
"k. c #D5925D",
"l. c #DA945D",
"z. c #D6955C",
"x. c #E19A41",
"c. c #E79559",
"v. c #E88D53",
"b. c #D4A140",
"n. c #E3A343",
"m. c #E4AA42",
"M. c #ECAD43",
"N. c #EDB243",
"B. c #F0B244",
"V. c #C88B65",
"C. c #D48B62",
"Z. c #CB9B65",
"A. c #CB9467",
"S. c #D49362",
"D. c #DA9561",
"F. c #DC9A64",
"G. c #D1946C",
"H. c #D49D6B",
"J. c #DC9D69",
"K. c #C89575",
"L. c #D69B76",
"P. c #C1817E",
"I. c #E29D66",
"U. c #E29E69",
"Y. c #E19666",
"T. c #E19E73",
"R. c #DDA26C",
"E. c #CAA67A",
"W. c #DDAA72",
"Q. c #D9A777",
"!. c #D9B07D",
"~. c #CFA068",
"^. c #E4A36B",
"/. c #EAA46C",
"(. c #EAA96F",
"). c #E6A96F",
"_. c #E5A673",
"`. c #E4AA74",
"'. c #EDAE74",
"]. c #EAAA76",
"[. c #F0AE75",
"{. c #F0AC7D",
"}. c #EEB075",
"|. c #ECB37B",
" X c #E7B67C",
".X c #F0B278",
"XX c #F2A56C",
"oX c #7A8791",
"OX c #8F969E",
"+X c #AB9D89",
"@X c #B39783",
"#X c #B6A695",
"$X c #B1AFAD",
"%X c #CA9F82",
"&X c #C9AA84",
"*X c #D6A887",
"=X c #D9B888",
"-X c #CDAF99",
";X c #D8B49A",
":X c #D3AE96",
">X c #ECBB83",
",X c #E7B987",
"<X c #F1BD84",
"1X c #E7BD97",
"2X c #F3AF81",
"3X c #DCBBA4",
"4X c #C6B3A7",
"5X c #ECC38A",
"6X c #EECA8E",
"7X c #EFC186",
"8X c #F0C186",
"9X c #F1C58A",
"0X c #F2CA8E",
"qX c #EBC796",
"wX c #F2CC91",
"eX c #F1CE9A",
"rX c #F3D098",
"tX c #DEC4A9",
"yX c #D4C4B6",
"uX c #E9C8AA",
"iX c #F6D4A7",
"pX c #E5C9B5",
"aX c #ECD5BC",
"sX c #F4E7B1",
"dX c #D1D2D2",
"fX c #EBD5C5",
"gX c #EFDFD2",
"hX c #F2E2D4",
"jX c #F4E6D0",
"kX c #FBF1E7",
"lX c #F2EEEC",
"zX c None",
/* pixels */
"zXzXzXzXzXzXzXzXzXzXzXzXzXzXzXzXzXzXzXzXzXzXzXzXzXzXzXzXzXzXzXzXzXzXzXzXzXzXzXzXzXzXzXzXzXzXzXzXzXzXzXzXzXzXzXzXzXzXzXzX",
"zXzXzXzXzXzXzXzXzXzXzXzXzXzXzXzXzXzXzXzXzXzXzXzXzXzXzXzXzXzXzXzXzXzXzXzXzXzXzXzXzXzXzXzXzXzXzXzXzXzXzXzXzXzXzXzXzXzXzXzX",
"zXzXzXzXzXzXzXzXzXzXzXzXzXzXzXzXzXzXzXzXzXzXzXzXzXzX@ $ - & % o zXzXzXzXzXzXzXzXzXzXzXzXzXzXzXzXzXzXzXzXzXzXzXzXzXzXzXzX",
"zXzXzXzXzXzXzXzXzXzXzXzXzXzXzXzXzXX + @ @ # # & & - N C ^ z j h & + zXzXzXzXzXzXzXzXzXzXzXzXzXzXzXzXzXzXzXzXzXzXzXzXzXzX",
"zXzXzXzXzXzXzXzXzXzXzXzXzXo o O @ j l l l l l l l m z z A z j j j h $ zXzXzXzXzXzXzXzXzXzXzXzXzXzXzXzXzXzXzXzXzXzXzXzXzX",
"zXzXzXzXzXzXzXzXzXzXzXo O g j j j j l j j h j j j j j j j j j j k j g 7 - # . zXzXzXzXzXzXzXzXzXzXzXzXzXzXzXzXzXzXzXzXzX",
"zXzXzXzXzXzXzXzXzXzX  X 5 h l j j j j j j l j j j j j j h j j j j h j j b 7 <   zXzXzXzXzXzXzXzXzXzXzXzXzXzXzXzXzXzXzXzX",
"zXzXzXzXzXzXzXzXzXzXzXzX# n z l l j l j l h h g j j j j 8 4 7 j g 5 8 j j j 7 . zXzXzXzXzXzXzXzXzXzXzXzXzXzXzXzXzXzXzXzX",
"zXzXzXzXzXzXzXzXzXzXzXO N n Z ^ Z C Z ^ Z n 7 > 5 h j h < 2 < 7 7 : y 4 8 j k = zXzXzXzXzXzXzXzXzXzXzXzXzXzXzXzXzXzXzXzX",
"zXzXzXzXzXzXzXzXzXzXzX$ n n Z ^ ( ^ ^ Z ^ n 8 ; , 8 7 : y { a , , * y 6 : 6 2 2 . zXzXzXzXzXzXzXzXzXzXzXzXzXzXzXzXzXzXzX",
"zXzXzXzXzXzXzXzXzXzXzX- b m l Z C Z C l n h , 3 , ; 1 p 9 _ E.{ _ ` 8.8.) ; p s + zXzXzXzXzXzXzXzXzXzXzXzXzXzXzXzXzXzXzX",
"zXzXzXzXzXzXzXzXzXzX@ < k g b l g j j j k 5 p _ a p +X#X9.E.wXwX=X#XyX$X9.q  .3XzXzXzXzXzXzXzXzXzXzXzXzXzXzXzXzXzXzXzXzX",
"zXzXzXzXzXzXzXzXzXzX% 9 9 5 7 8 5 8 5 5 8 4 A.qX+XdXdX$XOX+X-X6XE.4XdXoXf 8.y.L.zXzXzXzXzXzXzXzXzXzXzXzXzXzXzXzXzXzXzXzX",
"zXzXzXzXzXzXzXzXzXO 1 2 1 2 8 | @.} N 8 : t W.,X+XlXdXoXoX#XE.rX=XE.&X@X9.;XA.s.pXzXzXzXzXzXzXzXzXzXzXzXzXzXzXzXzXzXzXzX",
"zXzXzXzXzXzXzXzXX 1 2 2 2 8 '  XR.J.R.p._ | `.6X&X4XaX;XtXE.=X>X X|.`.C.5XeXuXp.fXzXzXzXzXzXzXzXzXzXzXzXzXzXzXzXzXzXzXzX",
"zXzXzXzXzXzXzX  X @ p 1 1 7 V._.F.l.F.'.'.}.7XwXrX=X6X6X6X6X5X X|. XJ.^.0XwXiX1X*XzXzXzXzXzXzXzXzXzXzXzXzXzXzXzXzXzXzXzX",
"zXzXzXzXzXzXzXzXzXzX9 1 > 8 | Y.^.].].'.[.>X9X6X6XwX6X6XwX0X0X9XwX<X].Q.,XwXwXiXK.fXzXzXzXzXzXzXzXzXzXzXzXzXzXzXzXzXzXzX",
"zXzXzXzXzXzXzXzXzXzX% 1 : > 7 ) [ [ g.).[.<XwXwXwXwXwXQ.A.Q.!.,X*X*X*X8.G.wXwXrXE.uXzXzXzXzXzXzXzXzXzXzXzXzXzXzXzXzXzXzX",
"zXzXzXzXzXzXzXzXzXzXX = ) ..1 1 < p s.'.[.<X0X0X9XwXwX5XK.{ ` | X.%.8.X.A.0X6XwXE.tXzXzXzXzXzXzXzXzXzXzXzXzXzXzXzXzXzXzX",
"zXzXzXzXzXzXzXzXzXzXzXzXzXzX1 1 _ 4XV.U.'.|.8XwXwX6XwXwXwX5XL.$.$.C.L.Q.5X0XwX5XA.aXkXzXzXzXzXzXzXzXzXzXzXzXzXzXzXzXzXzX",
"zXzXzXzXzXzXzXzXzXzXzXzXzXzX..#XzXzXfXV.F.).'.>X5X0X0X0XwXwXwXwXwXwXwXeXrXwX`.u.o.L.G.G.S.v.zXzXzXzXzXzXzXzXzXzXzXzXzXzX",
"zXzXzXzXzXzXzXzXzXzXzXzXzXzXzXzXzXlX-X' L ] [ y.a.F.^.).}. X|.>X,X6X6X6X7XR.] L D.^.].(.).l.~ zXzXzXzXzXzXzXzXzXzXzXzXzX",
"zXzXzXzXzXzXzXzXzXzXzXzXzXzXzXlXpXV.y.S.J.J.Q.U.J.D.g.i.d.d.k.F.z.g.u.a.u.+.O.d._.'.'.'.}.}.c.Q zXzXzXzXzXzXzXzXzXzXzXzX",
"zXzXzXzXzXzXzXzXzXzXzXzXzXzXkX3X#.^.<XwXwXwXwXwX0X0X8X8X|._.F.g.o.] O.D./.g.O.I.).].'.'.}.}.).Q zXzXzXzXzXzXzXzXzXzXzXzX",
"zXzXzXzXzXzXzXzXzXzXzXzXzXzXfX@.U..X9X0XwXwXwXwX0XwXwXwXwXwXwX8X XR.f.i.f.u.o.j.g.D.'.'.[.[.c.~ zXzXzXzXzXzXzXzXzXzXzXzX",
"zXzXzXzXzXzXzXzXzXzXzXzXzXkXV.] ].}.|.<X9X0X0XwXwXwXwX0XwXwXwXwXwXwX9X}.l.o. X9X|.'.'.}.}.U./ zXzXzXzXzXzXzXzXzXzXzXzXzX",
"zXzXzXzXzXzXzXzXzXzXzXzXzX;Xo.o.h.'.}.'..X|.5X0XwXwXwX0XwXwXwXwXwXwXwX0X8XD.|.7X|.[.'.'.(.#.I.zXzXzXzXzXzXzXzXzXzXzXzXzX",
"zXzXzXzXzXzXzXzXzXzXzXzXgXp.U.).O.f.).}.|..X'.|.>X9X0X0XwXwXwXwXwXwXwX0X9X].}.|.'.[.'.^.u.T.zXzXzXzXzXzXzXzXzXzXzXzXzXzX",
"zXzXzXzXzXzXzXzXzXzXzXzX:Xu.'.[.'.f.O.g.^.].'.'.'.|..X|..X8X8X9X0X8X8X8X|.'.'.}.'.[.^.o.@.iXzXzXzXzXzXzXzXzXzXzXzXzXzXzX",
"zXzXzXzXzXzXzXzXzXzXzXzXV.I.[.'.[.'.).l.u.f.l.I.].'.}.}..X.X[.[.}..X|.}.}.|.'.}.'.D.u.h.@.1XzXzXzXzXzXzXzXzXzXzXzXzXzXzX",
"zXzXzXzXzXzXzXzXzXzXzXfX@.^.}.'.'.'.}.}.|.>XW.s./ w.f.z.F.).(.'.[.(.}.}.}.].].I.u.a. X>Xa.Q.zXzXzXzXzXzXzXzXzXzXzXzXzXzX",
"zXzXzXzXzXzXzXzXzXzXzX3Xo.'.'.'.'.}.}.}.5X6X0Xj./ >.:./ / ] L E e.w.w.f.i.g.i.a.`.6XwX0XJ.V.zXzXzXzXzXzXzXzXzXzXzXzXzXzX",
"zXzXzXzXzXzXzXzXzXzXzX*Xu.}.'.'.'.'.}.7X0X6X~.G U e.P &.5.x.,.-.2.n.*.I G V.5X6XwXwXwXwX`.p.jXzXzXzXzXzXzXzXzXzXzXzXzXzX",
"zXzXzXzXzXzXzXzXzXzXzXK.k.[.}.}.}.}.|.0X6X~.' c c P c v 1.5.B.B.5.5.S e e M Z.5XwXwXwXwX X@.aXzXzXzXzXzXzXzXzXzXzXzXzXzX",
"zXzXzXzXzXzXzXzXzXzX1X{ 6.R.^.R.^.R.H.Z.6.T t.m.5.N.5.4.5.1.&.&.&.<.<.&.=.2.;.e.Q.5XwXwX>X] ;XzXzXzXzXzXzXzXzXzXzXzXzXzX",
"zXzXzXzXzXzXzXzXzXzX0.q e c q.e.-.e.-.1.H u F 1.4.5.B.B.4.i 0 0 3 0 S 4.B.B.M.2.;.q.Z.!.!.' &.7.zXzXzXzXzXzXzXzXzXzXzXzX",
"zXzXzXzXzXzXzXzXzXzX .w q e W U T ,.5.N.I 0 0 i v 1.B.N.5.W i 0 q q q c ,.m.m.M.5.1.F i M L *.8.zXzXzXzXzXzXzXzXzXzXzXzX",
"zXzXzXzXzXzXzXzXzXzXE.M D &.P 0 3 e &.N.;.W &.&.&.5.1.J &.m.2.-.v q w 3 r x D <.N.5.<.I Y :.E _.zXzXzXzXzXzXzXzXzXzXzXzX",
"zXzXzXzXzXzXzXzXzXzXzX_ u G W u t B -.n.5.5.M.M.N.N.<.v H 5.B.5.1.P D c M F T 1.4.2.2.:.R I -XzXzXzXzXzXzXzXzXzXzXzXzXzX",
"zXzXzXzXzXzXzXzXzXzXzX#Xv c u e 0 t i v B F H I T &.T U R &.R R R T U K G G G c x x r r e a uXzXzXzXzXzXzXzXzXzXzXzXzXzX",
"zXzXzXzXzXzXzXzXzXzXzXzX7.-.r.J r 0 w x c x t e e 0 0 q w * 3 w 0 0 e q * * w i D x D F ;.K K.zXzXzXzXzXzXzXzXzXzXzXzXzX",
"zXzXzXzXzXzXzXzXzXzXzXzX1X6.>.E u v R :.>.:.r.2.:.:.*.P r 0 c =.<.,.t.&.v i y t I &.T T R E s.K.zXzXzXzXzXzXzXzXzXzXzXzX",
"zXzXzXzXzXzXzXzXzXzXzXzXzXuX7./ *./ O.q.w.e.q.;.:.3.2.2.<.&.1.n.U U t.;.[ R J G Y 6.6.e.R A.'.O.v.zXzXzXzXzXzXzXzXzXzXzX",
"zXzXzXzXzXzXzXzX/.].{.2XzXiX%XY q.j.J._.}.}. XQ.z.j.e.q.*.:.*.q.6.e.j.J.`.^.z.y.j.). XW.R.].[.g.h.zXzXzXzXzXzXzXzXzXzXzX",
"zXzXzXzXzXzXk.s.l.I.h.a.h.S.g.z.'.}.[.}.}.7X0XwXwX6X6X!.H.o.] U.`.'.[..X}.}.}.}.}.}.}.}.'.'.[.l.a.zXzXzXzXzXzXzXzXzXzXzX",
"zXzXzXzXzX/.o.'.(.h.u.g.U.'.|.'.}.}.}.}.}.0XwXwXwX6X0X<X'.#.s.G.S.k.D.D.D.^.'.}.}.}.}.}.'.[.[.l.a.zXzXzXzXzXzXzXzXzXzXzX",
"zXzXzXzXzXK.k.}./.w./.'.'.[.'.[.}.}.}.}. X0X6X6XwXwX9X|.J.p.hXlXhXfXpXpX*Xo.].}.'.}.}.}.}.}.[.f.d.zXzXzXzXzXzXzXzXzXzXzX",
"zXzXzXzXzXy.^.}.'.(.'.[.'.'.}.}.}.}.}.[.|.0XwXwXwX0X X].#.3XzXzXzXzXzXzXhX@.^.'.'.}.}.}.}.}.}.r.d.zXzXzXzXzXzXzXzXzXzXzX",
"zXzXzXzX>X@.].}.'.'.'.'.'.'.}.}.}.}.'.'.|.0XwXwXwX8X_.u.*XzXzXzXzXzXzXzXzXK.g.'.'.[.}.}.}.}.].y.zXzXzXzXzXzXzXzXzXzXzXzX",
"zXzXzXzX2X@.'.'.[.'.'.'.s.a.h.D.F.^./._.'.'.>X>X'.D.s.;XzXzXzXzXzXzXzXzXzXpXo.]././.'.'.'.}.^.o.zXzXzXzXzXzXzXzXzXzXzXzX",
"zXzXzXzXzXu.).'.^.[.[.D.V.zXzXXX_.Q.L.L.G.G.G.G.%X3XsXzXzXzXzXzXzXzXzXzXzXuXo.I.e.I.[.'.}.}.(.f.u.zXzXzXzXzXzXzXzXzXzXzX",
"zXzXzXzXzXV.k.l.w.U.Y.p.zXzXzXzXzXzXzXzXzXzXzXzXzXzXzXzXzXzXzXzXzXzXzXzXzXK.f.(.d.d.I.'.(.}.'.'.^.h.~ ! zXzXzXzXzXzXzXzX",
"zXzXzXzXzX'.] o.O.d.O.c.zXzXzXzXzXzXzXzXzXzXzXzXzXzXzXzXzXzXzXzXzXzXzXzXzXR.i.'.].^.^.(.}.}.}.'.(.^.l.d./ ! zXzXzXzXzXzX",
"zXzXzXzXzXzXzXY.V.V.h.zXzXzXzXzXzXzXzXzXzXzXzXzXzXzXzXzXzXzXzXzXzXzXzXzXzXzXT.V.C.J.U.(.'.}.}.}.).l.o.d.L zXzXzXzXzXzXzX",
"zXzXzXzXzXzXzXzXzXzXzXzXzXzXzXzXzXzXzXzXzXzXzXzXzXzXzXzXzXzXzXzXzXzXzXzXzXzXzXzXzX].L.G.S.k.D.l.I.l.+./ ( zXzXzXzXzXzXzX",
"zXzXzXzXzXzXzXzXzXzXzXzXzXzXzXzXzXzXzXzXzXzXzXzXzXzXzXzXzXzXzXzXzXzXzXzXzXzXzXzXzXzXzXzXzXzXzXzXzXzXzXzXzXzXzXzXzXzXzXzX",
"zXzXzXzXzXzXzXzXzXzXzXzXzXzXzXzXzXzXzXzXzXzXzXzXzXzXzXzXzXzXzXzXzXzXzXzXzXzXzXzXzXzXzXzXzXzXzXzXzXzXzXzXzXzXzXzXzXzXzXzX",
"zXzXzXzXzXzXzXzXzXzXzXzXzXzXzXzXzXzXzXzXzXzXzXzXzXzXzXzXzXzXzXzXzXzXzXzXzXzXzXzXzXzXzXzXzXzXzXzXzXzXzXzXzXzXzXzXzXzXzXzX",
"zXzXzXzXzXzXzXzXzXzXzXzXzXzXzXzXzXzXzXzXzXzXzXzXzXzXzXzXzXzXzXzXzXzXzXzXzXzXzXzXzXzXzXzXzXzXzXzXzXzXzXzXzXzXzXzXzXzXzXzX",
"zXzXzXzXzXzXzXzXzXzXzXzXzXzXzXzXzXzXzXzXzXzXzXzXzXzXzXzXzXzXzXzXzXzXzXzXzXzXzXzXzXzXzXzXzXzXzXzXzXzXzXzXzXzXzXzXzXzXzXzX"
};
