/* XPM */
static char *result[] = {
/* columns rows colors chars-per-pixel */
"60 60 227 2 ",
"   c #3A0E08",
".  c #431809",
"X  c #5A271A",
"o  c #572919",
"O  c #682E1C",
"+  c #68351D",
"@  c #5B2C23",
"#  c #5D3B24",
"$  c #622C24",
"%  c #6A2F25",
"&  c #652F29",
"*  c #6C3526",
"=  c #6C332A",
"-  c #6D3C2B",
";  c #663526",
":  c #73342A",
">  c #7D3C2B",
",  c #773928",
"<  c #693A30",
"1  c #6B4324",
"2  c #6B4329",
"3  c #694423",
"4  c #724624",
"5  c #754A24",
"6  c #7B4D25",
"7  c #734A29",
"8  c #794D29",
"9  c #7D5327",
"0  c #7C4534",
"q  c #7A4935",
"w  c #7D5337",
"e  c #6E4436",
"r  c #764C42",
"t  c #833E2C",
"y  c #863F29",
"u  c #84422C",
"i  c #8B422C",
"p  c #804F25",
"a  c #94462C",
"s  c #99492E",
"d  c #84552A",
"f  c #865929",
"g  c #8B5C2B",
"h  c #855327",
"j  c #935C2C",
"k  c #8B4430",
"l  c #894A35",
"z  c #9D4C31",
"x  c #924831",
"c  c #845439",
"v  c #975539",
"b  c #A14D2E",
"n  c #A24D30",
"m  c #AA5534",
"M  c #BB5D37",
"N  c #A9512F",
"B  c #9C6B2D",
"V  c #96652C",
"C  c #996734",
"Z  c #9F7139",
"A  c #8D6231",
"S  c #A86D2F",
"D  c #A5722F",
"F  c #AA6D34",
"G  c #A46D38",
"H  c #BC673D",
"J  c #A67433",
"K  c #AD7334",
"L  c #AB7936",
"P  c #B57B35",
"I  c #B3773B",
"U  c #BB7D3B",
"Y  c #B77937",
"T  c #C7643B",
"R  c #C37B39",
"E  c #D36B3C",
"W  c #885544",
"Q  c #955741",
"!  c #A35E40",
"~  c #8C6745",
"^  c #996956",
"/  c #956D56",
"(  c #A46645",
")  c #B56E49",
"_  c #AC7849",
"`  c #BB7B4D",
"'  c #B67846",
"]  c #A67856",
"[  c #BD7E56",
"{  c #B9746A",
"}  c #C27445",
"|  c #C47C4D",
" . c #C67B47",
".. c #C37E53",
"X. c #C97F54",
"o. c #C57050",
"O. c #CE684F",
"+. c #B58236",
"@. c #BC833A",
"#. c #BD8737",
"$. c #C2843B",
"%. c #CB843C",
"&. c #C48A3B",
"*. c #CB8C3B",
"=. c #C98037",
"-. c #D28B3D",
";. c #D98C3D",
":. c #D0873D",
">. c #CC943B",
",. c #C8943A",
"<. c #D59B3D",
"1. c #D7973E",
"2. c #E2943F",
"3. c #DBA23E",
"4. c #E4A03F",
"5. c #BA8349",
"6. c #BD835B",
"7. c #B88755",
"8. c #B58B5C",
"9. c #9A877C",
"0. c #A78B79",
"q. c #AF967B",
"w. c #B28C6B",
"e. c #BAA27F",
"r. c #C28343",
"t. c #CB824E",
"y. c #C58647",
"u. c #D68C40",
"i. c #DC9D41",
"p. c #D59842",
"a. c #C58154",
"s. c #CC8453",
"d. c #C4845C",
"f. c #CB865A",
"g. c #CC8A5B",
"h. c #C78A56",
"j. c #D28655",
"k. c #D18A56",
"l. c #D38D5A",
"z. c #CB935B",
"x. c #D5915C",
"c. c #DA945D",
"v. c #E29441",
"b. c #E09F41",
"n. c #D9A241",
"m. c #E3A442",
"M. c #E4AB42",
"N. c #EBAD43",
"B. c #E8A542",
"V. c #F0AF43",
"C. c #EDB243",
"Z. c #F0B344",
"A. c #CC8C63",
"S. c #C78C66",
"D. c #D08E63",
"F. c #D6876C",
"G. c #CE9165",
"H. c #CD936C",
"J. c #C99B64",
"K. c #D39362",
"L. c #DB9661",
"P. c #D49964",
"I. c #DD9B64",
"U. c #D2956A",
"Y. c #D59E6A",
"T. c #DE9E6A",
"R. c #CB9472",
"E. c #CC9C7D",
"W. c #D59B77",
"Q. c #C3817C",
"!. c #E19B65",
"~. c #E19E6A",
"^. c #CDA26A",
"/. c #DCA26C",
"(. c #D7A36C",
"). c #CBA779",
"_. c #DDA671",
"`. c #D9A678",
"'. c #DBB47C",
"]. c #E2A167",
"[. c #E5A46C",
"{. c #E9A66E",
"}. c #EAAA6E",
"|. c #E7A86F",
" X c #E4A771",
".X c #E5AB73",
"XX c #EDAE74",
"oX c #E4A979",
"OX c #F0AF76",
"+X c #EDB075",
"@X c #ECB37A",
"#X c #ECB97E",
"$X c #E4B37D",
"%X c #F0B77E",
"&X c #6F7988",
"*X c #B19C8C",
"=X c #BBA48F",
"-X c #848CA0",
";X c #A7ABAF",
":X c #CC9E80",
">X c #D5A987",
",X c #DAB686",
"<X c #D4B094",
"1X c #C9A785",
"2X c #EDBB82",
"3X c #E7B985",
"4X c #F1BE84",
"5X c #E5AF8A",
"6X c #CBBBAA",
"7X c #EDC186",
"8X c #ECC48B",
"9X c #ECC68C",
"0X c #F1C58A",
"qX c #F2CB8E",
"wX c #F1C187",
"eX c #EFCC92",
"rX c #EBC491",
"tX c #F2CC91",
"yX c #F0D19A",
"uX c #DDCDBC",
"iX c #E7C7A4",
"pX c #F1D4A8",
"aX c #BCC0C9",
"sX c #D9D5D5",
"dX c #DFD3C5",
"fX c #F9FEFF",
"gX c None",
/* pixels */
"gXgXgXgXgXgXgXgXgXgXgXgXgXgXgXgXgXgXgXgXgXgXgXgXgXgXgXgXgXgXgXgXgXgXgXgXgXgXgXgXgXgXgXgXgXgXgXgXgXgXgXgXgXgXgXgXgXgXgXgX",
"gXgXgXgXgXgXgXgXgXgXgXgXgXgXgXgXgXgXgXgXgXgXgXgXgXgXgXgXgXgXgXgXgXgXgXgXgXgXgXgXgXgXgXgXgXgXgXgXgXgXgXgXgXgXgXgXgXgXgXgX",
"gXgXgXgXgXgXgXgXgXgXgXgXgXgXgXgXgXgXgXgXgXgXgXgXgXgXgX^ e Q Q l 0 , gXgXgXgXgXgXgXgXgXgXgXgXgXgXgXgXgXgXgXgXgXgXgXgXgXgX",
"gXgXgXgXgXgXgXgXgXgXgXgXgXgXgXgXgXgX- q W Q Q v v m Q Q l m T y t t 0 0 gXgXgXgXgXgXgXgXgXgXgXgXgXgXgXgXgXgXgXgXgXgXgXgX",
"gXgXgXgXgXgXgXgXgXgXgXgXgXgXgXO O y a a a a s a s z z n z n m s i y y , r gXgXgXgXgXgXgXgXgXgXgXgXgXgXgXgXgXgXgXgXgXgXgX",
"gXgXgXgXgXgXgXgXgXgXgXgXgXo O t y y y y a y y a y y y y y k k k i i a y > l l Q c gXgXgXgXgXgXgXgXgXgXgXgXgXgXgXgXgXgXgX",
"gXgXgXgXgXgXgXgXgXgXgX. o * , l a i i i y y a y y k k y a y t k i i i i i i y , - < gXgXgXgXgXgXgXgXgXgXgXgXgXgXgXgXgXgX",
"gXgXgXgXgXgXgXgXgXgXgXgXgXX > z s a i i a y y k t y k y y t : > t y y , t u k > - W gXgXgXgXgXgXgXgXgXgXgXgXgXgXgXgXgXgX",
"gXgXgXgXgXgXgXgXgXgXgXgXgX+ m n T T N N N M n k t : > u i > * % = t : * , - t k y - gXgXgXgXgXgXgXgXgXgXgXgXgXgXgXgXgXgX",
"gXgXgXgXgXgXgXgXgXgXgXgXX k z m M E E O.T T T k & $ * > > O W ^ < & % ; > + % > : - gXgXgXgXgXgXgXgXgXgXgXgXgXgXgXgXgXgX",
"gXgXgXgXgXgXgXgXgXgXgXgXX t k x b T m M n n z t $ - @ & ; - 1 8.8.w q ~ ] ] 2 @ r < ; gXgXgXgXgXgXgXgXgXgXgXgXgXgXgXgXgX",
"gXgXgXgXgXgXgXgXgXgXgXgXX t t t y a t x y y i * 0 c $ r 0.w.9.,XqXrX).=XuX*X/ # =X0.gXgXgXgXgXgXgXgXgXgXgXgXgXgXgXgXgXgX",
"gXgXgXgXgXgXgXgXgXgXgXgX$ : : > y < : > : > : l (.'.0.sXsX;X;X*XeXtX*XsXaX&X{ ] F.:XgXgXgXgXgXgXgXgXgXgXgXgXgXgXgXgXgXgX",
"gXgXgXgXgXgXgXgXgXgXgX@ & = = = t m ) ! 0 % X ( wX'.;XfX;X&X-X*X,XtX).<X*X9.*X,XX.G.gXgXgXgXgXgXgXgXgXgXgXgXgXgXgXgXgXgX",
"gXgXgXgXgXgXgXgXgX  @ & = = = > d.$X`./.J.( l ] #X8X*XdXuX6X6Xe.3X2X#X@X`.^.rXpX>XG.gXgXgXgXgXgXgXgXgXgXgXgXgXgXgXgXgXgX",
"gXgXgXgXgXgXgXgXgXX @ & < & = x _.T.I.l.[.+X X.X7XtX9X'.8X9X8X9X2X$X@X.X/.`.tXtXpXE.<XgXgXgXgXgXgXgXgXgXgXgXgXgXgXgXgXgX",
"gXgXgXgXgXgXgXgX  . gXgXo & & k f./.[.{.XXXXOX4XtXtXeXqXeXqXeXqXyX9X9X#X(.3XqXqXyXiXE.gXgXgXgXgXgXgXgXgXgXgXgXgXgXgXgXgX",
"gXgXgXgXgXgXgXgXgXgXgXgX@ $ % = x ) f.l.I..X%X0XqXeXqXtX4X`._.,X3X3X3X>X).d.$XtXeXiXR.gXgXgXgXgXgXgXD.U.K.K.l.l.H.gXgXgX",
"gXgXgXgXgXgXgXgXgXgXgXo @ @ & r & ; * x T.XX+X0XqXqXqXtXtX`.7.] ^ { { Q.w.) '.yXeXeXR.gXgXgXgXgXgXA.t.[.XXXXXXXX~...gXgX",
"gXgXgXgXgXgXgXgXgXgXgXgXgXgXgXW @ @ / 1Xx.XX+X#XqXtXeXtXtXtX9X`.S.O.O.X.F.W.4XtXeX3XE.gXgXgXgXgXA...j.}.}.[.].]. XL.d.gX",
"gXgXgXgXgXgXgXgXgXgXgXgXgXgXgX/ u Q E.>X) `  .h.z.'.8XqXtXtXtXtXtXqX4X8X8XtXtXqXoXA.iXgXgXgXgXgXS.l.!.c.c.c.x.x.].[.a.gX",
"gXgXgXgXgXgXgXgXgXgX>X:XH.G.c.c.!.~.~.I.c.s.R R :.y.y.z. X#X4X%X2X8XeXeXqXtX8X/.) ..W.>X<X5XgXgX5XX.j.x.I.XXXX+XXXc.f.gX",
"gXgXgXgXgXgXgXU.K.l.L.!.}.XX+X+XXXXXXXXX+X+X[.t.%.;.P K @.h.[.XXXXT.P.P.K.l.l.k.X.| ~. X XL.A.H.H...2X4X%XXXXXXXXXs.f.gX",
"gXgXgXgXD.l.D.I.{.XXXXOX+X+X+X#X%X4X2X2X4X#X+X{.} j 6 h &.-.I ..l.l.k.j.l.!. XOXXXl.s.#XtX0X0X#X/.D.3X4X+XXX+XOXP...gXgX",
"gXgXgXd.k.{.XXXXXXXX@X#X2X0XqXqXtXqXtXtXtXtXwX+Xj.) G U 4.C.<.I P. XXXXXXXOXXX+XwX7XK.a.2XtXtXtXqX@XoX%XXXXXXX}.s.f.gXgX",
"gXgXl.X.}.+XOX}.XX#X0XqXtXtXtXtXtXeXtXtXtXtXqX%Xj.| I 1.M.>.&.*.@./.+XXX+X+X@X0XqXtX2Xl.h.0XtXtXqX#XXX+XoXXX+Xc.a.gXgXgX",
"gXgX..I.+X+XOX+X@XqXtXtXtXtXtXtXqXeXtXtXtXqXqXXX .K.5.*.<.V V <.*.' .X@X4XwXtXtXtXqXtX@X| (.0X4X%XXX+X+X+X+XL.| gXgXgXgX",
"gXgX.. X+XXXOXXX.X4XtXtXqXtXtXtXqXqXqXqXqX2X[.s.s.XXL.Y n.C.4.4.&.j 8.8XtXtXtXtXtXtXtX0X].} ~.OXXX+X+X+XXXc.| gXgXgXgXgX",
"gXK.a.XXXX+X+X#XoXc./..X X X.X X.X[./.I.x.s.t.P.@X#X.XI 2.Z.Z.M.B 7 9 J.9XeXeXeXtXtXtXtX4XX.j.XX.X[.~.L.k.f.gXgXgXgXgXgX",
"gXK.t.}.XX+X+X7XtX[.` W.>XR.} j.k.l.l.c.I.].XX2XqXqX8XI <.4.3.4.n.Z 2 8 8.8XtXeXtXtXtXtX0XT.R D.K.H.K.K.gXgXgXgXgXgXgXgX",
"gXU.s.XX+X+X+X].L.X...5XgXW.a.XXOXOXOXXX+X+X2XqXqX^.7.I 2.+.9 D 3.L 4 - 4 Z ^.eXtXtXtXtXtX+Xo.oXgXgXgXgXgXgXgXgXgXgXgXgX",
"gXU.s.}.+X+X}.I.!.~.L.X.`.R.l.+XOXXXOXXXXX#XqXqX9X' &.-.v.D f 9 5 8 4 p K I z.tXtXtXtXtXtX4Xt.>XgXgXgXgXgXgXgXgXgXgXgXgX",
"gXg.s.XXXXXXXX+X+XXXl.` W.A.L.OX+X+X+X+X@X7XtXqXJ.G %.-.P -.4.>.+.#.>.<.>.K 5.8XtXtXqXtXtXqXx.R.gXgXgXgXgXgXgXgXgXgXgXgX",
"gXgX..I.+X+XXX+XXXXXc.6.oX.. XOX+X+X+XXX%XqX8XJ.C 8 A B 6 V 4.C.4.Z.Z.>.9 7 4 _ 3XtXyXeXtXqXP.S.gXgXgXgXgXgXgXgXgXgXgXgX",
"gXgXgXa.c.[.}..X[.x.g.S.S.) P. X}.}.}._._.^.7.$.n.3.3.4.<.3.M.<.,.#.,.<.+.J +.*.@.J.3XtXtXeX/.6.gXgXgXgXgXgXgXgXgXgXgXgX",
"gXgXgXgXg.G.U.H.U.6.gXgXW 7 c G y.y.y.&.,.$.V g #.M.4.C.C.C.#.6 7 3 7 f +.M.C.V.b.*.5.z.`.8XY.F 5.gXgXgXgXgXgXgXgXgXgXgX",
"gXgXgXgXgXgXgXgXgXgXgXgXw 1 2 d U #.,.3.C.n.f 3 8 f B 4.4.Z.,.p 3 2 2 2 7 +.n.C.V.V.4.$.j A ~ R $.' gXgXgXgXgXgXgXgXgXgX",
"gXgXgXgXgXgXgXgXgXgXgXgX~ d A L g 1 1 g 3.M.B B L J &.M.,.#.<.3.#.Z 4 2 2 1 f C D 3.Z.<.J V S -._ gXgXgXgXgXgXgXgXgXgXgX",
"gXgXgXgXgXgXgXgXgXgXgXgXgX9 C I G 5 8 C n.V.B.N.C.N.C.N.+.6 +.C.C.M.+.A d p p j P m.4.B.i.>.R ' gXgXgXgXgXgXgXgXgXgXgXgX",
"gXgXgXgXgXgXgXgXgXgXgXgXgX~ d 5 4 1 7 d j B D K +.#.&.&.+.+.&.>.,.>.&.@.Y K J F G B j h 9 5 2 C gXgXgXgXgXgXgXgXgXgXgXgX",
"gXgXgXgXgXgXgXgXgXgXgXgXgX_ u.u.R h 4 ; 3 6 6 5 4 1 1 1 1 1 3 3 3 3 3 3 3 3 # # 1 8 d 8 g B J ( gXgXgXgXgXgXgXgXgXgXgXgX",
"gXgXgXgXgXgXgXgXgXgXgXgXgXgX' v.2.j 4 j P ;.;.:.:.%.R R +.f + 3 V #.#.&.*.G 8 4 8 g &.F L G _ gXgXgXgXgXgXgXgXgXgXgXgXgX",
"gXgXgXgXgXgXgXgXgXgXgXgXgXgX7.@.;.:.R R %.r.y. .%.;.2.v.2.*.P P <.<.K &.1.@.I F g V U @.U U _ gXgXgXgXgXgXgXgXgXgXgXgXgX",
"gXgXgXgXgXgXgXgXgXgXgXgXgXgXgX5.F r.y.y.z.]..X[.L.h.y.R &.:.;.1.-.&.@.7.^.'..Xh.' 5.J.K.` 7.gXgXgXgXgXgXgXgXgXgXgXgXgXgX",
"gXgXgXgXgXgXgXgXgXgXgXgXgXgXgXgXa.a.P.oXXXOXXXXX+X+X}. X/.c.z.z.(..X#X7XwX%XOXXXl.Y.#XX.S.gXgXgXgXgXgXgXgXgXgXgXgXgXgXgX",
"gXgXgXgXgXgXgXgXgXgXgXgXgXgXgXgXgXH.} k.!.}.XXOXOXXXXXOX+XXX+X+X+X+X+XXXXXXXOXOX].}  .R.gXgXgXgXgXgXgXgXgXgXgXgXgXgXgXgX",
"gXgXgXgXgXgXgXgXgXgXgXgXgXgXgXgXgXd.j.~.t. .j.c.~.|.}.+XOX+XOX+XXX+XXXXXXXXXXXXXXXX.S.gXgXgXgXgXgXgXgXgXgXgXgXgXgXgXgXgX",
"gXgXgXgXgXgXgXgXgXgXgXgXgXgXgXgXgXa.].OX{.c.!.c.h.s.u.k.x.c.~.[.XXOXXXXXXX+XOXXXXXx.S.gXgXgXgXgXgXgXgXgXgXgXgXgXgXgXgXgX",
"gXgXgXgXgXgXgXgXgXgXgXgXgXgXgXgXgX..XXXXXXXXXXXXOXXX[.!.c.x.l.} !.OXXXXXXX+XXXXX+XI.6.gXgXgXgXgXgXgXgXgXgXgXgXgXgXgXgXgX",
"gXgXgXgXgXgXgXgXgXgXgXgXgXgXgXgXf.s.XXXXXXXXXXXXL.x.K.L.L.c.K.X.X.{.XXXXOXOXXXXX+X].[ gXgXgXgXgXgXgXgXgXgXgXgXgXgXgXgXgX",
"gXgXgXgXgXgXgXgXgXgXgXgXgXgXgXgXgX| XXXXXXXXXX!.d.oXgXgXgXgXgXgXA.h.{.[.].+XXXXXXX}.l.l.A.f.gXgXgXgXgXgXgXgXgXgXgXgXgXgX",
"gXgXgXgXgXgXgXgXgXgXgXgXgXgXgXgXgXa.}.{.l.}.}.| D.gXgXgXgXgXgXgXgXd.x.x.y.}.XXXXXXXXXXXX[.I.l.f...gXgXgXgXgXgXgXgXgXgXgX",
"gXgXgXgXgXgXgXgXgXgXgXgXgXgXgXgXgXd.} X.t.c.k.S.gXgXgXgXgXgXgXgXgX..!.{.l.k.!.}.XX+XXX+X}.c.j.j.) | gXgXgXgXgXgXgXgXgXgX",
"gXgXgXgXgXgXgXgXgXgXgXgXgXgXgXgXgXgXf.A. . .d.gXgXgXgXgXgXgXgXgXgX| s.{.}.}.}.+X+XOX+XXX}.[.X. .} gXgXgXgXgXgXgXgXgXgXgX",
"gXgXgXgXgXgXgXgXgXgXgXgXgXgXgXgXgXgXgXgXgXgXgXgXgXgXgXgXgXgXgXgXgXgXgXU.A.K.x.x.x.L.L.c.K.P.g.f.gXgXgXgXgXgXgXgXgXgXgXgX",
"gXgXgXgXgXgXgXgXgXgXgXgXgXgXgXgXgXgXgXgXgXgXgXgXgXgXgXgXgXgXgXgXgXgXgXgXgXgXgXgXgXgXgXgXgXgXgXgXgXgXgXgXgXgXgXgXgXgXgXgX",
"gXgXgXgXgXgXgXgXgXgXgXgXgXgXgXgXgXgXgXgXgXgXgXgXgXgXgXgXgXgXgXgXgXgXgXgXgXgXgXgXgXgXgXgXgXgXgXgXgXgXgXgXgXgXgXgXgXgXgXgX",
"gXgXgXgXgXgXgXgXgXgXgXgXgXgXgXgXgXgXgXgXgXgXgXgXgXgXgXgXgXgXgXgXgXgXgXgXgXgXgXgXgXgXgXgXgXgXgXgXgXgXgXgXgXgXgXgXgXgXgXgX",
"gXgXgXgXgXgXgXgXgXgXgXgXgXgXgXgXgXgXgXgXgXgXgXgXgXgXgXgXgXgXgXgXgXgXgXgXgXgXgXgXgXgXgXgXgXgXgXgXgXgXgXgXgXgXgXgXgXgXgXgX",
"gXgXgXgXgXgXgXgXgXgXgXgXgXgXgXgXgXgXgXgXgXgXgXgXgXgXgXgXgXgXgXgXgXgXgXgXgXgXgXgXgXgXgXgXgXgXgXgXgXgXgXgXgXgXgXgXgXgXgXgX"
};
