/* XPM */
static char *_cce7e2f05814d2ff4ea9c966c0578fdBJLodG7kRYkooidg[] = {
/* columns rows colors chars-per-pixel */
"60 60 221 2 ",
"   c None",
".  c #0E1E1E",
"X  c #0D1213",
"o  c #121A1C",
"O  c #171A1C",
"+  c #320F00",
"@  c #321000",
"#  c #3D1806",
"$  c #221F1D",
"%  c #10201F",
"&  c #0F201F",
"*  c #1D1F20",
"=  c #0F1E20",
"-  c #122222",
";  c #1D2123",
":  c #1A2A2A",
">  c #103E3E",
",  c #1D2F30",
"<  c #202222",
"1  c #2C2E2F",
"2  c #23292B",
"3  c #2A2E31",
"4  c #272C30",
"5  c #2A3B3E",
"6  c #273435",
"7  c #2D3937",
"8  c #372115",
"9  c #5D2A0F",
"0  c #592408",
"q  c #552C16",
"w  c #4C2D1A",
"e  c #642A0B",
"r  c #6B2F0E",
"t  c #742A03",
"y  c #792D06",
"u  c #792F08",
"i  c #7D330C",
"p  c #7E3611",
"a  c #7A3B19",
"s  c #693214",
"d  c #6B3C22",
"f  c #4D2713",
"g  c #3A403F",
"h  c #504338",
"j  c #4F4339",
"k  c #634C3A",
"l  c #724A32",
"z  c #273F41",
"x  c #174444",
"c  c #294748",
"v  c #354748",
"b  c #285557",
"n  c #375958",
"m  c #274F50",
"M  c #367475",
"N  c #2E696A",
"B  c #3F5C60",
"V  c #454A45",
"C  c #5B5449",
"Z  c #485B58",
"A  c #5C5B55",
"S  c #665E55",
"D  c #6C5B4C",
"F  c #456567",
"G  c #526561",
"H  c #4A7577",
"J  c #72756D",
"K  c #51625D",
"L  c #83340C",
"P  c #8A370C",
"I  c #8B380E",
"U  c #87380E",
"Y  c #843912",
"T  c #8B3A11",
"R  c #873A14",
"E  c #923C11",
"W  c #8E411B",
"Q  c #87401C",
"!  c #93431C",
"~  c #9A461D",
"^  c #984418",
"/  c #AA4C1C",
"(  c #A3491A",
")  c #864322",
"_  c #884A2A",
"`  c #9C4D26",
"'  c #9B4F2A",
"]  c #954B26",
"[  c #9A512D",
"{  c #8C5233",
"}  c #995635",
"|  c #A34E23",
" . c #A34F26",
".. c #AB5224",
"X. c #AA5229",
"o. c #A45428",
"O. c #B35421",
"+. c #B65A2B",
"@. c #BC5D2C",
"#. c #B35827",
"$. c #AB5A33",
"%. c #A95B37",
"&. c #B35C33",
"*. c #BB5F35",
"=. c #A8623B",
"-. c #BD6135",
";. c #BB653D",
":. c #B7683C",
">. c #C5622E",
",. c #C8632E",
"<. c #C46432",
"1. c #C96531",
"2. c #C4693E",
"3. c #CD6D3D",
"4. c #C4673A",
"5. c #D26D3A",
"6. c #D36C36",
"7. c #DA733C",
"8. c #D5723E",
"9. c #C9713C",
"0. c #E4773D",
"q. c #89614B",
"w. c #95684E",
"e. c #A76546",
"r. c #BC6B44",
"t. c #B66843",
"y. c #B87558",
"u. c #B8734D",
"i. c #B77C63",
"p. c #8D5D42",
"a. c #C36C42",
"s. c #CB6E41",
"d. c #CC7145",
"f. c #CC754B",
"g. c #C77E4B",
"h. c #D47445",
"j. c #DB7545",
"k. c #D97948",
"l. c #C67B59",
"z. c #D06F40",
"x. c #E47B46",
"c. c #E97B43",
"v. c #E37C49",
"b. c #EB7F49",
"n. c #F27F44",
"m. c #748179",
"M. c #BA8467",
"N. c #B18E64",
"B. c #D48C54",
"V. c #ED814A",
"C. c #FD8447",
"Z. c #F08149",
"A. c #FC8548",
"S. c #F88749",
"D. c #F39857",
"F. c #CE9567",
"G. c #E3A165",
"H. c #EAA366",
"J. c #ECAB6C",
"K. c #F8A561",
"L. c #FDB16A",
"P. c #F2B26F",
"I. c #F1B270",
"U. c #FCA35E",
"Y. c #5E7D83",
"T. c #607C81",
"R. c #358484",
"E. c #3D8182",
"W. c #3F999A",
"Q. c #3FA0A0",
"!. c #468687",
"~. c #5B8488",
"^. c #419E9E",
"/. c #449697",
"(. c #5C979C",
"). c #5D8C91",
"_. c #718B88",
"`. c #6A8E95",
"'. c #6D9196",
"]. c #6C949C",
"[. c #679A9F",
"{. c #71989D",
"}. c #5A9DA1",
"|. c #429EA0",
" X c #669DA3",
".X c #6A9BA2",
"XX c #6C97A1",
"oX c #49A5A7",
"OX c #5AA6A9",
"+X c #4DAFB0",
"@X c #5BAEB2",
"#X c #5EB5BA",
"$X c #5DBABE",
"%X c #59B2B6",
"&X c #65A6AB",
"*X c #68A3A9",
"=X c #67A6AB",
"-X c #64ACB1",
";X c #6BA8B0",
":X c #63B5BA",
">X c #64B4B8",
",X c #5DBDC1",
"<X c #63BDC2",
"1X c #5DCACD",
"2X c #59C5C7",
"3X c #56CED0",
"4X c #5ECED1",
"5X c #53D2D3",
"6X c #5DD1D4",
"7X c #5DD6D9",
"8X c #5CDBDD",
"9X c #63C2C6",
"0X c #61C6C9",
"qX c #62CACE",
"wX c #61CED1",
"eX c #63D4D8",
"rX c #60DFE1",
"tX c #5CE2E3",
"yX c #5CE7E9",
"uX c #5BDFE1",
"iX c #909694",
/* pixels */
"                                                                                                                        ",
"                                                                                                                        ",
"                                                                                                                        ",
"                                                                                                                        ",
"                                              E.R.E.R.E.R.R.n q  .&.:.=.Y X.o.} {                                       ",
"                                  n m E.oXoXoX6X7X2X:X:X=X_.w.9.S.U.H.:.P z.j.| p }                                     ",
"                          V F n M 2X,X@X-X&X-X*X0XeX].J p.-.V.S.L.K.v.$.L 7.x. .U 9.$.{                                 ",
"                      B E.R.oX,X2XwX1X:X.X`.`.F N M n s <.C.D.K.g.v.k.$.L 5.v.X.^ j.9.] d C                             ",
"                  F M +XuX3X-XXX].[.(.OX!.z 6 2     8 p 6.A.D.P.~ >.v.$.L 7.v.X.W k.d.! k m.K                           ",
"              Z F /.@X=X-X,X<X XF F 5 : ,           a 6.C.C.D.P.] 1.b.*.L 7.x...I V.9.! s C  X!.G                       ",
"            b E.%X-X{.{.XX`.Y.b ; * 4 4           w R 0.C.D.K.B.E 1.b.-.L 7.x.X.^ 0.8.~ e l _.:XoXH v                   ",
"          Z b 1X7X,X*X[.Y.v : 2 3 3 3 3 3       w a 6.C.C.K.J.:.P 1.n.*.P 7.j.| ^ 0.k.^ ^ @.l ;XtX|.c K                 ",
"        v b 2X-X*X:XOXB 4 ; 4 3 3 3 3 3 3 3     q ^ n.C.C.K.P.r.T 1.b.*.P 7.h.` E 0.j.~ / 5.a J =X,X+X5                 ",
"      V H oX:X.X].].F X 2 3 3 3 3 3 3 3 3 4     q ^ n.C.S.K.J.:.T 1.b.-.P 7.h.` E 0.j.~ / 7.l J '.&X#X!.F               ",
"    G v W.6X-X-X.XF < 2 3 3 3 3 3 3 3 3 3 3   9 ` 7.S.C.U.G.B.;.T 1.b.*.P 7.v...^ c.j.~ / x.&.l J -X$X4XN Z             ",
"    6 oX$X@XqX9X!.7 * 4 3 3 3 3 3 3 3 3 3 3 1 e O.S.C.C.L.G.a.a.T 1.v.$.L 7.x...E c.j.~ / b.2.Y m.6X0X@X3XM 7           ",
"    : +X0X].XX'., = 6 3 3 3 3 3 3 3 3 3 3 3 3 9 #.A.C.C.L.G.a.a.T 1.v.$.L 7.v.X.E c.j.~ / Z.5.Y w B [.*XtXM 2           ",
"  G b +X<X].{.H : * 3 3 3 3 3 3 3 3 3 3 3 3 1 e O.S.A.0.B.B.%.$.L 1.x.$.L 7.j. .E c.h.~ / b.s.T @ 5 `.[.wXR.v           ",
"  x 2X5X,X<X}.: ; 4 3 3 3 3 3 3 3 3 3 3 3 3 3 9 O.c.>.O.+.+.#.| L / @.! L h.h.` E c.z.E / b.;.p @ m :X9X2X8X/.-         ",
"  > 5X6X,X,X}.= * 3 3 3 3 3 3 3 3 3 3 3 3 3 3 9 O.6.I 0.v.h.h.f.-.@.>...I / ( Y T j.a.R | b.;.p + m :X<X$XuXQ..         ",
"  > 3X#X`.[.Y.o * 3 3 3 3 3 3 3 3 3 3 3 3 3   e O.7.( 1.-.$.e.M.f.d.l.l.d.5.3.+.^ | | L ^ 4.X.p + z '.{.[.1X^..         ",
"  > 3X$X[.XXY.. * 3 3 3 3 3 3 3 3 3 3 3 3 3   e O.S.c.@.T y Y } ' ` e.i.r.a.y.l.h.h.h.*...O...L 0 7 '.XX.XwX^.-         ",
"  > 5X8XqXwXOX= ; 3 3 3 3 3 3 3 3 3 3 3 3 3   e O.C.C.S.B.r.] u t y Y E W R e.y.:.t.i.l.h.h.f.4.! S 9XwX1XyXoX-         ",
"  > 3X2X-X;X`.= ; 3 3 3 3 3 3 3 3 3 3 3 3     e O.C.A.A.L.G.r.*.L @.*.L y I L i i p } e.$.e.i.l.` D *X=X&X7XW.-         ",
"  > 3X:X[.{.T.o ; 3 3 3 3 3 3 3 3 3 3         e O.S.C.A.L.G.d.;.T 1.v.o.Y 5.@.Y L ` L t y i ] [ e V '.{.].wX^.-         ",
"  > 3X<X X*X~.o ; 3 3 3 3 3 3 3 3 3 3         e O.S.C.A.L.H.d.;.I 1.V.%.I 7.h.' E v.&.L E &.L t + c  X*X*XeX^.-         ",
"  > 5X8XwXwXOX- ; 3 3 3 3 3 3 3 3 3 3         e O.C.C.S.L.H.r.e.i <.k.$.U 7.j. .E v.d.] ..b.&.p + m 0XwXwXyX^.-         ",
"  > 3X,X X X~.o ; 3 3 3 3 3 3 3 3 3 3         e O.C.C.C.L.F.D J l ;.v.$.I 7.k...E x.s.^ / b.4.Y + z [..X X6X^.-         ",
"  > 3X%X].XXY.o ; 3 3 3 3 3 3 3 3 3 3         e O.A.A.A.L.N.A iXA t.k.$.P 7.v.X.I v.s.! / V.s.Y + 5 '.].[.4X^.-         ",
"  > 5X1X:X:X(.= < 3 3 3 3 3 3 3 3 3 3 3 3     e O.A.A.C.L.N.A N.k ;.V.%.P 7.x.X.E x.h.! / Z.s.Y @ c >X:X:XuX^.-         ",
"  > 5X7X0X0XOX= < 3 3 3 3 3 3 3 3 3 3 3 3 4   e O.C.C.A.L.G.q.V s 1.b.*.P 7.v.X.E x.j.^ / Z.s.Y + m <X0X0XtXQ.o         ",
"  > 1X:X[.].Y.o < 3 3 3 3 3 3 3 3 3 3 3 3 3   e O.A.n.C.L.H.e.h r ,.b.-.P 7.j. .E c.j.~ / Z.s.Y + 5 '.].[.6X^..         ",
"  > 3X#X].].Y.o ; 3 3 3 3 3 3 3 3 3 3 3 3 3 1 e O.C.C.C.L.H.e.h r ,.c.<.P 7.j.` E c.j.~ / b.4.p @ 5 '.].[.wX^.&         ",
"  > 5X8X0X0XOXo ; 3 3 3 3 3 3 3 3 3 3 3 3 3 3 9 O.S.A.A.L.H.e.h r >.c.*.I 7.j. .E x.s.! / b.2.Y @ m 9X0X9XtX^.&         ",
"  > 5X1X>X>X(.o ; 3 3 3 3 3 3 3 3 3 3 3 3 3 3 9 O.A.C.A.L.F.q.C s 4.Z.<.P 7.x.X.E v.s.! / Z.3.Y + c -X:X>X7X^.&         ",
"  > 3X#X].].Y.o ; 3 3 3 3 3 3 3 3 3 3 3 3 3 3 9 O.A.A.A.L.N.S iXC t.v.*.I 7.x.X.E x.d.! / Z.s.Y + z '.'.[.wX^.o         ",
"  > 5X$X.X*X~.o ; 3 3 3 3 3 3 3 3 3 3 3 3 3 3 9 O.C.A.A.L.N.A iXC t.k.$.I 7.x.X.T c.j.~ / Z.s.Y + c ]..X.X6X^..         ",
"  > 5X8XwXwX@X- ; 3 3 3 3 3 3 3 3 3 3 3 3 3 1 9 O.S.A.A.L.F.w.D l <.v.$.I 7.k.o.E x.j.~ / V.4.Y + m qXwXwXyX^..         ",
"  > 3X,X*X*X~.o ; 1 3 3 3 3 3 3 3 3 3 3 3 3 1 9 O.C.C.A.L.G.r.;.L ,.c.&.I 7.k.` E x.d.] / b.;.Y + c  X X*X7X^..         ",
"  > 3X#X].].Y.o % 6 3 3 3 3 3 3 3 3 3 3 3 3 3 9 O.C.A.A.L.H.d.a.L ,.V.-.I 7.h.` E x.a.E ( 7.| L 0 h '.'.].wX^..         ",
"  > 3X2X-X;X).= < 1 3 3 3 3 3 3 3 3 3 3 1 4 1 9 O.A.A.A.L.H.d.;.P ,.c.*.P j.z.! P 3.X.E E +.3.3.| a C {.;XeX^..         ",
"  > 5X8X1XwXOX- < 1 3 3 3 3 3 3 3 3 3 3 3 4 3 9 O.A.A.A.L.H.d.;.T ,.z.` L #.+.../ #.s.h.j.f.l.u.t.' k ;XwXyXQ..         ",
"  > 3X#XXXXXY.o ; 3 3 3 3 3 3 3 3 1 3 3 3 6 3 9 O.C.C.Z.K.F.&.~ L ( +.@.@.@.s.f.h.f.F.y.t.t.y.[ R { J '..XwX|..         ",
"  > 1X:X[.].Y.o ; 6 3 3 3 3 3 3 3 3 3 3 3 3 1 9 O.Z.6.#.......4.6.3.f.l.d.f.i.i.%.%.e._ p L i t # g '.{.XXwX^..         ",
"  > 5X4X<X<X}.- ; 3 3 3 3 3 3 3 3 3 3 3 3 3 1 9 O.6.^ 7.j.h.f.M.r.r.i.i.o.[ [ W y y y t L | E u @ c <X<X<XtX^.%         ",
"  > 5X6X<X<X}.- ; 3 3 3 3 3 3 3 3 3 3 3 3 1 1 9 O.6.^ 6.s.;.t.y.[ R R Y t t L t P *.X.T | b.s.T + c >X<X<XtX^.-         ",
"  > 3X#X].].Y.o ; 3 3 3 3 3 3 1 3 3 3 4 3 3 1 9 O.S.6.O.T L i p t L E L L 1.3.| E c.j.E / b.s.T + z '.'.].6XQ.:         ",
"  x 2X@X`.].Y.o * 3 1 1 3 3 3 3 3 3 3 3 3 3 1 0 O.C.C.n.2.o.] E L >.v.$.P 7.v.X.E c.j.` / b.;.Y + 5 `.'.[.0X^.6         ",
"  F N m v v 5 X X O O < ; * * $ < $ < $ ; $ $ 9 O.C.A.C.L.H.s.a.T 1.b.*.P 7.j. .E x.h.^ / b.:.R # : v v v b F           ",
"                                              _ O.A.C.S.L.G.a.a.T ,.b.*.P j.h.| E c.h.^ ~ ;.}                           ",
"                                              { O.A.C.A.L.G.r.a.T 1.b.*.P 7.h.' E j.&.} ) {                             ",
"                                              { #.A.C.S.L.G.a.a.T 1.x.&.P j.s.[ a %.}                                   ",
"                                              { O.S.C.C.L.G.r.t.T 1.v.&.L *.$.{                                         ",
"                                              _ O.C.C.C.L.G.r.t.T >.z.} _ _                                             ",
"                                              _ O.A.C.C.L.G.r.&.) ] =.                                                  ",
"                                              { $.6.6.4.B.g.} }                                                         ",
"                                                  ) ) ) ) )                                                             ",
"                                                                                                                        ",
"                                                                                                                        ",
"                                                                                                                        "
};
