/* XPM */
static char *f358129bc9ac4f62b0af1c1a6be4d2a8GJP5lONVDcwaYziN[] = {
/* columns rows colors chars-per-pixel */
"60 60 111 2 ",
"   c None",
".  c #2C6E6D",
"X  c #297170",
"o  c #3B7775",
"O  c #1D8686",
"+  c #1F8B8C",
"@  c #1D9E9D",
"#  c #238080",
"$  c #208D8B",
"%  c #338484",
"&  c #3B8886",
"*  c #238E90",
"=  c #209394",
"-  c #2B9291",
";  c #229C9D",
":  c #1CA19F",
">  c #1E9FA0",
",  c #1EB0B1",
"<  c #24A4A5",
"1  c #23A6A8",
"2  c #23ABAB",
"3  c #2AAEAD",
"4  c #3DACAC",
"5  c #28B0AE",
"6  c #23B5B6",
"7  c #24B7B8",
"8  c #24BDBE",
"9  c #29BCBE",
"0  c #33BBBB",
"q  c #419090",
"w  c #589E9D",
"e  c #649291",
"r  c #4D9FA2",
"t  c #4DA9A7",
"y  c #5DA3A5",
"u  c #57ACAC",
"i  c #5CBDBD",
"p  c #62A0A0",
"a  c #6CA8A7",
"s  c #6EADAE",
"d  c #71ACAB",
"f  c #7AA9AA",
"g  c #6EB2B1",
"h  c #60BDBC",
"j  c #7BBCBB",
"k  c #23BFC1",
"l  c #60BFC0",
"z  c #1ED3D4",
"x  c #25C4C4",
"c  c #29C4C5",
"v  c #26C8C7",
"b  c #27C7C8",
"n  c #25CCCC",
"m  c #28CACB",
"M  c #36C2C1",
"N  c #24D0CF",
"B  c #24CFD0",
"V  c #24D4D4",
"C  c #24D8D7",
"Z  c #24D7D8",
"A  c #25D9DA",
"S  c #45C3C4",
"D  c #4FC3C4",
"F  c #4DCFD1",
"G  c #62C4C3",
"H  c #6BC5C5",
"J  c #67CCCC",
"K  c #6FCDCE",
"L  c #76C1C0",
"P  c #6FD0D0",
"I  c #8DA6A5",
"U  c #92A7A9",
"Y  c #87BBBB",
"T  c #8DB9B9",
"R  c #95B0B1",
"E  c #9CB9B9",
"W  c #AEBFC0",
"Q  c #93CDCC",
"!  c #9FCBCB",
"~  c #8BD0D0",
"^  c #9AD6D7",
"/  c #9EDBDB",
"(  c #A1C5C6",
")  c #A8C8C8",
"_  c #BFCFCF",
"`  c #A5D2D4",
"'  c #C7CECF",
"]  c #C8D1D2",
"[  c #CED7D6",
"{  c #CAD9D9",
"}  c #D2DADA",
"|  c #DDE2E2",
" . c #E5E7E6",
".. c #E6E7E6",
"X. c #E8EAE9",
"o. c #EAEAEB",
"O. c #ECEBEB",
"+. c #EAECEB",
"@. c #F0EFEF",
"#. c #F0EFF0",
"$. c #F3F1F0",
"%. c #F3F3F3",
"&. c #F5F2F4",
"*. c #F5F4F5",
"=. c #F7F5F4",
"-. c #F7F5F5",
";. c #FAF5F6",
":. c #F9F6F6",
">. c #FAF5F5",
",. c #F8F9F8",
"<. c #F8F9F9",
/* pixels */
"                                                                                                                        ",
"                                              c n N V V A Z Z n x x                                                     ",
"                                      x B N V V V Z Z A A Z Z Z V V V V m                                               ",
"                                  n n n Z Z Z A A A A A A A A A A A Z A V N n n                                         ",
"                              x V A Z C A A A A A A A A A A A A A A A A A V Z C N v                                     ",
"                          c n Z Z A Z A A A A A A A A A A A A A A A A A A A A A Z V n                                   ",
"                        n V Z Z A A A A A A A A A A A A A A A A A A A A A A A A A A V N v                               ",
"                      n V C A A A A A A A A A A A A A A A A A A A A A A A A A A A A A C V n                             ",
"                    v V A A A A A A A A A A A A A A A A A A A A A A A A A A A A A A A A A V v                           ",
"                  n V Z A A A A A A A A A A A A A A A A A A A A A A A A A A A A A A A A A A V n                         ",
"                v V A A A A A A A A A A A A A A A A A A A A A A A A A A A A A A A A A A A Z A V n                       ",
"              v V A A A A A A A A A A A A A A A A A A A A A A A A A A A A A A A A A A A A A A A V n                     ",
"            x V Z Z A A A A A A A A A A A A A A A A A A A A A A A A A A A A A A A A A A A A A A V V                     ",
"            V C A A A A A A A A A A A A A A A A A A A A A A A A A A A A A A A A A A A A A A A A Z V B                   ",
"          n V A A A A A A A A A A A A A A A A A A A A A A A A A A A A A A A A A A A A A A A A A A Z V n                 ",
"          V C A A A A A A A A A A A A A A A A A A A A A A A A A A A A A A A A A A A A A A A A A A Z V B                 ",
"        N A A A A A A A A A A A A A A A A A A A A A A A A A A A A A A A A A A A A A A A A A A A A A A Z v               ",
"        N z A A A A A A A A A A A A A A A A A A A A A A A A A A A A A A A A A A A A A A A A A A A A Z V n               ",
"      n V A A A A A A A A A A A A A A A A A A A A A A A A A A A A A A A A A A A A A A A A A A A A A Z Z V n             ",
"      V A A A A A A A A A A A A A A A A A A A A A A A A A A A A A A A A A A A A A A A A A A A A A A A A A V             ",
"      V A A A A A A A A A A A A A A A A A A A A A A A A A A A A A A A A A A A A A A A A A A A A A A A A A N             ",
"    v V A A A A A A A A A A A A A A A A A A A A A A A A A A A A A Z A A A A A A A A A A A A A A A A A A A V x           ",
"    n Z A A A A A A A A A A A A A A A C A C Z n B Z B B Z A A Z z V B n V A Z A A A A A A A A A A A A A A Z n           ",
"    V Z A A A A A A A A A A A A A 9 6 v A A k y y 6 * $ b A A A x u Y a 3 B V A A A A A A A A A A A A A A V V           ",
"    V A A A A A A A A A A A A A V <   6 Z A 7 E E 1     8 Z Z V 4  .} R % d 0 A A A A A A A A A A A A A A A V           ",
"    V Z A A A A A A A A A A A V V :   8 Z Z x . X 1 ( W r H M , s %.I o e X.Q F Z A A A A A A A A A A A A A V           ",
"  9 V Z A A A A A A A A A A A A V @   9 A A 9     1 )  .' +.{ & _ <.| U ] <.+.` V A A A A A A A A A A A A C N           ",
"  x V V A A A A A A A A A A A A V @   6 C V x     1 T [ & f #.y g -.j 3 ! -.i c Z A A A A A A A A A A A A V V           ",
"  x V Z A A A A A A A A A A A A V @   2 V V x     2     , t +.L i >.K z ^ %.S V Z Z A A A A A A A A A A A A V           ",
"  x V Z A A A A A A A A A A A A V @   O 2 2 <     2     + p %.i G >.P z / =.h c V A A A A A A A A A A A A A V           ",
"  x V Z A A A A A A A A A A A A V @         #     1           0 i >.J V H >.$.  n A A A A A A A A A A A A Z V           ",
"    V A A A A A A A A A A A A C V 6     < = < ; ; 7 1 < $ - 3 n 0 G M V x H ~ D V A A A A A A A A A A A A V V           ",
"    V A A A A A A A A A A A A Z A A Z Z V N N V V Z V V N N Z V V Z V A Z N V V Z V A A A A A A A A A A A A V           ",
"    V V A A A A A A A A A A A A A A Z Z Z A Z Z Z Z Z Z Z A Z Z A A A Z Z A A A A A A A A A A A A A A A A A V           ",
"    V Z A A A A A A A A A A A A A A A A A A A A A A A A A A A A A A A A A A A A A A A A A A A A A A A A A V N           ",
"    n Z A A A A A A A A A A A A A A A A A A A A A A A A A A A A A A A A A A A A A A A A A A A A A A A A A V v           ",
"    x V A A A A A A A A A A A A A A A A A A A A A A A A A A A A A A A A A A A A A A A A A A A A A A A A A V             ",
"      V A A A A A A A A A A A A A A A A A A A A A A A A A A A A A A A A A A A A A A A A A A A A A A A A A V             ",
"      n A A A A A A A A A A A A A A A A A A A A A A A A A A A A A A A A A A A A A A A A A A A A A A A A A n             ",
"      x V Z A A A A A A A A A A A A A A A A A A A A A A A A A A A A A A A A A A A A A A A A A A A A A V V               ",
"        v Z A A A A A A A A A A A A A A A A A A A A A A A A A A A A A A A A A A A A A A A A A A A A A C n               ",
"        b Z A A A A A A A A A A A A A A A A A A A A A A A A A A A A A A A A A A A A A A A A A A A A V V                 ",
"          V V A A A A A A A A A A A A A A A A A A A A A A A A A A A A A A A A A A A A A A A A A A A V n                 ",
"          x V Z A A A A A A A A A A A A A A A A A A A A A A A A A A A A A A A A A A A A A A A A A Z V                   ",
"            v V Z A A A A A A A A A A A A A A A A A A A A A A A A A A A A A A A A A A A A A A A A V n                   ",
"              V Z Z A A A A A A A A A A A A A A A A A A A A A A A A A A A A A A A A A A A A A A Z n                     ",
"              x B Z A A A A A A A A A A A A A A A A A A A A A A A A A A A A A A A A A A A A A C B                       ",
"                x n Z A A A A A A A A A A A A A A A A A A A A A A A A A A A A A A A A A A A V n                         ",
"                  x V Z Z Z A A A A A A A A A A A A A A A A A A A A A A A A A A A A A Z Z Z B                           ",
"                    b V Z Z A A A A A A A A A A A A A A A A A A A A A A A A A A A A A Z V B                             ",
"                      c B Z Z A A A A A A A A A A A A A A A A A A A A A A A A A Z Z Z V n                               ",
"                          n V Z A A A A A A A A A A A A A A A A A A A A A A A A Z Z V n                                 ",
"                            n n V Z A A A A A A A A A A A A A A A A A A A A A A V n m                                   ",
"                                b V V A A A A A A A A A A A A A A A A A A A Z N v                                       ",
"                                    v V V V z A Z A A A A A A A A C V V Z N m                                           ",
"                                          n n n V Z A Z Z Z A A V n m m                                                 ",
"                                                  n m     v                                                             ",
"                                                                                                                        ",
"                                                                                                                        ",
"                                                                                                                        "
};
