/* XPM */
static char *result[] = {
/* columns rows colors chars-per-pixel */
"60 60 207 2 ",
"   c #BD2E06",
".  c #BC2E08",
"X  c #BF3104",
"o  c #BC320B",
"O  c #BB3D0D",
"+  c #BA3511",
"@  c #BB3B14",
"#  c #BB3E19",
"$  c #C03404",
"%  c #C43C04",
"&  c #C83E05",
"*  c #BF400F",
"=  c #BD4115",
"-  c #BC441A",
";  c #BE4C1A",
":  c #BE521E",
">  c #BC4A20",
",  c #BC4420",
"<  c #BE5121",
"1  c #C54204",
"2  c #C94504",
"3  c #CB4C05",
"4  c #C54B09",
"5  c #CB5305",
"6  c #CB5D06",
"7  c #C5520C",
"8  c #D45706",
"9  c #D25B07",
"0  c #D05F08",
"q  c #C14F12",
"w  c #C14D1C",
"e  c #C35513",
"r  c #C55B15",
"t  c #C2551E",
"y  c #C3581E",
"u  c #CE6206",
"i  c #D26407",
"p  c #D96207",
"a  c #D46A07",
"s  c #DA6C07",
"d  c #D56408",
"f  c #DB6B08",
"g  c #D06E0B",
"h  c #D57406",
"j  c #DA7507",
"k  c #DB7E06",
"l  c #DF7708",
"z  c #D57D0D",
"x  c #D87A08",
"c  c #D5780A",
"v  c #EF7D07",
"b  c #EE7C0A",
"n  c #E27C07",
"m  c #F07B09",
"M  c #C45D21",
"N  c #C76622",
"B  c #CB6B25",
"V  c #CE7222",
"C  c #D27C2B",
"Z  c #DE8508",
"A  c #DD8808",
"S  c #DF990E",
"D  c #EE8206",
"F  c #E38508",
"G  c #E38A08",
"H  c #EF8808",
"J  c #EE860D",
"K  c #F08E07",
"L  c #F0880A",
"P  c #E69407",
"I  c #EF9307",
"U  c #EF9C07",
"Y  c #E69409",
"T  c #EF9408",
"R  c #E59E0B",
"E  c #E99909",
"W  c #F19407",
"Q  c #F89F05",
"!  c #F3930B",
"~  c #F29C09",
"^  c #F29806",
"/  c #EE8913",
"(  c #ED8310",
")  c #F19D1E",
"_  c #F19415",
"`  c #EDA707",
"'  c #EDA309",
"]  c #EDAD09",
"[  c #E3A50C",
"{  c #F3A505",
"}  c #F2AA07",
"|  c #FCAD05",
" . c #F1A309",
".. c #F5AC0A",
"X. c #F8AE0D",
"o. c #ECB20B",
"O. c #ECBA09",
"+. c #F5B406",
"@. c #FDB403",
"#. c #F5BC07",
"$. c #FDBC03",
"%. c #F5B30B",
"&. c #F5BC0A",
"*. c #FBBD0C",
"=. c #F9B30D",
"-. c #EEA615",
";. c #F2A817",
":. c #EFB717",
">. c #F7B510",
",. c #F8BC1A",
"<. c #D4852C",
"1. c #D88528",
"2. c #D78B2E",
"3. c #D98D22",
"4. c #DF992E",
"5. c #DC952F",
"6. c #DFA032",
"7. c #F2A522",
"8. c #F2AD25",
"9. c #F4B024",
"0. c #F3B52A",
"q. c #F4BA27",
"w. c #E1A135",
"e. c #E7B338",
"r. c #E9B43A",
"t. c #ECBC3B",
"y. c #F5BC31",
"u. c #EEC10A",
"i. c #F6C706",
"p. c #FEC403",
"a. c #F6CB07",
"s. c #FECB02",
"d. c #F6C40B",
"f. c #FEC40D",
"g. c #F6CC08",
"h. c #FDCB0D",
"j. c #FED303",
"k. c #FEDC03",
"l. c #FDD40B",
"z. c #FBDB0A",
"x. c #F6D60B",
"c. c #FBC213",
"v. c #FDCB12",
"b. c #FDCE18",
"n. c #FED212",
"m. c #FDD51C",
"M. c #FDDA1E",
"N. c #FDDB14",
"B. c #FFE403",
"V. c #FFEC04",
"C. c #FEE709",
"Z. c #FFE90F",
"A. c #FFF103",
"S. c #FFF10C",
"D. c #FFE218",
"F. c #FDE813",
"G. c #FFF214",
"H. c #FFF31A",
"J. c #F5C52E",
"K. c #FED521",
"L. c #FDDE26",
"P. c #FDDD2A",
"I. c #EDC33C",
"U. c #EFCB3C",
"Y. c #F3C335",
"T. c #F7CF36",
"R. c #F1CD3E",
"E. c #F8D937",
"W. c #FBD63C",
"Q. c #F9DB3B",
"!. c #FEE627",
"~. c #FEEA24",
"^. c #FEE32C",
"/. c #FFEF2E",
"(. c #FFF324",
"). c #FFF42A",
"_. c #FBE33D",
"`. c #FEEE3D",
"'. c #FCE537",
"]. c #FFF435",
"[. c #FEF33C",
"{. c #E7B346",
"}. c #F2CD4A",
"|. c #F5D840",
" X c #FBDB42",
".X c #F5DA54",
"XX c #FAE542",
"oX c #FCEC43",
"OX c #FCE44A",
"+X c #FDEC49",
"@X c #FEF446",
"#X c #FFF847",
"$X c #FEF44A",
"%X c #FFF84B",
"&X c #FDEE57",
"*X c #FEF452",
"=X c #FEF55B",
"-X c #FEEF6A",
";X c #FEF564",
":X c #FFF865",
">X c #FEF56B",
",X c #FEF868",
"<X c #FEF676",
"1X c #FFFA76",
"2X c #FEF67A",
"3X c #FFF97A",
"4X c None",
/* pixels */
"4X4X4X4X4X4X4X4X4X4X4X4X4X4X4X4X4X4X4X4X4X4X4X4X4X4X4X4X4X4X4X4X4X4X4X4X4X4X4X4X4X4X4X4X4X4X4X4X4X4X4X4X4X4X4X4X4X4X4X4X",
"4X4X4X4X4X4X4X4X4X4X4X4X4X4X4X4X4X4X4X4X4X4X4X4X4X4X4X4X4X4X4X4X4X4X4X4X4X4X4X4X4X4X4X4X4X4X4X4X4X4X4X4X4X4X4X4X4X4X4X4X",
"4X4X4X4X4X4X4X4X4X4X4X4X4X4X4X4X4X4X4X4X4X4X4X4X4X4X4X4X4X4X4X4X4X4X4X4X4X4X4X4X4X4X4X4X4X4X4X4X4X4X4X4X4X4X4X4X4X4X4X4X",
"4X4X4X4X4X4X4X4X4X4X4X4X4X4X4X4X4X4X4X4X4X4X4X4X4X4X4X4X4X4X4X4X4X4X4X4X4X4X4X4X4X4X4X4X4X4X4X4X4X4X4X4X4X4X4X4X4X4X4X4X",
"4X4X4X4X4X4X4X4X4X4X4X4X4X4X4X4X4X4X4X4X4X4X4X4X4X4X4X4X4X4X4X4X4X4X4X4X4X4X4X4X4X4X4X4X4X4X4X4X4X4X4X4X4X4X4X4X4X4X4X4X",
"4X4X4X4X4X4X4X4X4X4X4X4X4X4X4X4X4X4X4X4X4X4X4X4X4X4X4X4X4X4X4X4X4X4X4X4X4X4X4X4X4X4X4X4X4X4X4X4X4X4X4X4X4X4X4X4X4X4X4X4X",
"4X4X4X4X4X4X4X4X4X4X4X4X4X4X4X4X4X4X4X4X4X; N <.w.r.I.U.U.I.r.6.<.N < 4X4X4X4X4X4X4X4X4X4X4X4X4X4X4X4X4X4X4X4X4X4X4X4X4X",
"4X4X4X4X4X4X4X4X4X4X4X4X4X4X4X4X4X4X> r 3.}.OX$X%X%X#X%X#X#X#X#X@XXXI.2.M 4X4X4X4X4X4X4X4X4X4X4X4X4X4X4X4X4X4X4X4X4X4X4X",
"4X4X4X4X4X4X4X4X4X4X4X4X4X4X4X4X4Xr S x.).%X$X$X*X%X#X@X@X@X@X@X@X#X#X@XE.5.y 4X4X4X4X4X4X4X4X4X4X4X4X4X4X4X4X4X4X4X4X4X",
"4X4X4X4X4X4X4X4X4X4X4X4X4X4X4X; Z x.A.A.).$X%X$X$X%X@X#X#X@X@X#X@X@X@X#X@X%XR.C > 4X4X4X4X4X4X4X4X4X4X4X4X4X4X4X4X4X4X4X",
"4X4X4X4X4X4X4X4X4X4X4X4X4X4Xe [ C.A.A.A.).$X@X$X*X%X@X@X@X@X@X@X@X#X@X#X@X@X@XoX6.: 4X4X4X4X4X4X4X4X4X4X4X4X4X4X4X4X4X4X",
"4X4X4X4X4X4X4X4X4X4X4X4X4Xe O.A.A.A.A.A.).$X$X$X$X%X@X@X#X@X#X@X@X@X@X@X@X@XoX@X%Xr.M 4X4X4X4X4X4X4X4X4X4X4X4X4X4X4X4X4X",
"4X4X4X4X4X4X4X4X4X4X4X4Xe u.A.A.A.A.A.A.).$X%X%X$X%X@X@X@X%X@X@X@X@X@X@X@X@X@X@X@X@Xt.t 4X4X4X4X4X4X4X4X4X4X4X4X4X4X4X4X",
"4X4X4X4X4X4X4X4X4X4X4X; O.A.A.V.A.A.A.A.(.%X@XXXT.0.7.) ) ;.0.T.XX%X%X@X@X@X@X@XoX@X@Xe.; 4X4X4X4X4X4X4X4X4X4X4X4X4X4X4X",
"4X4X4X4X4X4X4X4X4X4X- R V.V.A.A.V.A.A.A.H.E.8./ b b v D D b b b / 0.Q.@X@X#X#X@X@X@X+X@X4.- 4X4X4X4X4X4X4X4X4X4X4X4X4X4X",
"4X4X4X4X4X4X4X4X4X, c C.V.A.V.V.A.V.V.C.=.( J ~ =.c.W. X XW.,.X.! b ( q.oX#X@X@XoX@XoX$X+XV 4X4X4X4X4X4X4X4X4X4X4X4X4X4X",
"4X4X4X4X4X4X4X4X4X; a.V.V.V.V.A.V.A.B.' H  .v.l.l.L.=X,X:X1X'.l.l.*.~ b ;.XX@X@X@X@X@XoX$XI.w 4X4X4X4X4X4X4X4X4X4X4X4X4X",
"4X4X4X4X4X4X4X4X= A V.V.A.V.A.V.A.x.U Y $.h.l.P.+X+X@X@X@X:X2X-XOXK.n.>.J _ XX@X@X@X@X@XoX@X1.- 4X4X4X4X4X4X4X4X4X4X4X4X",
"4X4X4X4X4X4X4X4Xq a.V.V.V.V.A.A.B. .~ p.s.s.^.$X*X%X@X@X@X%X*X=X1X2XOXv.c.! ) oX@X@XoX@XoX$X}.w 4X4X4X4X4X4X4X4X4X4X4X4X",
"4X4X4X4X4X4X4X# x B.V.V.A.V.V.V.%.~ f.p.p.x.[.#X#X@X@X#X%X@X#X@X@X=X<Xm.v.f.! 0.@X@XoX@X&X=X>XC 4X4X4X4X4X4X4X4X4X4X4X4X",
"4X4X4X4X4X4X4X1 o.V.V.V.V.A.A.g.^ p.s.p.s.B.(.$X@X%X_.Y.J._.%X@X@X@X>XK.h.h.*._ W.%X$X*X=X=X;X{.- 4X4X4X4X4X4X4X4X4X4X4X",
"4X4X4X4X4X4X4X7 x.B.B.B.V.V.V.} =.p.p.p.s.V.G.[.#X_.-. .' -.XX@X@X%X>XK.h.h.h.X.8.$X*X*X&X=X=X.Xt 4X4X4X4X4X4X4X4X4X4X4X",
"4X4X4X4X4X4X4Xg B.B.B.V.V.V.l...p.p.p.s.p.C.A.(.@X'.v.l.l.>.E.%X%X%X>Xm.h.h.v.f.~ OX$X*X*X*X*X&XB 4X4X4X4X4X4X4X4X4X4X4X",
"4X4X4X4X4X4X# A B.B.V.B.B.V.d.+.p.p.p.p.$.B.A.S.].@X^.n.n.v.;.9.9.9.y.b.v.f.f.h.>.Y.$X*X$X*X*X=X2.4X4X4X4X4X4X4X4X4X4X4X",
"4X4X4X4X4X4X# R B.B.B.B.V.B.&.$.p.p.$.p.+.a.A.A.G.[.#X`.^.M.%...} ..%.h.v.c.f.f.*.q.$X$X$X$X$X*Xw.w 4X4X4X4X4X4X4X4X4X4X",
"4X4X4X4X4X4X@ ] B.B.B.B.B.B.+.p.p.p.p.p.$.` z.A.A.G.[.$X@X@X[.^.m.h.l.h.h.h.h.f.f.,.+X+X+X+X*X*Xe.@ 4X4X4X4X4X4X4X4X4X4X",
"4X4X4X4X4X4XO o.B.k.B.B.V.k.$.p.$.$.p.p.p...U d.V.A.H.].@X@X$X$X@XL.h.h.h.h.c.f.f.*.oX$X$X$X+X$Xr.- 4X4X4X4X4X4X4X4X4X4X",
"4X4X4X4X4X4X* o.k.k.k.B.B.k.p.$.$.p.$.$.p.$.| ^ U d.z.F.].@X$X$X@X@XL.h.h.c.f.f.f.c.`.$XoX@X+X$Xt.& 4X4X4X4X4X4X4X4X4X4X",
"4X4X4X4X4X4XO ] k.k.B.B.B.k.p.p.$.p.$.$.$.$.p.$.{ ^ W  .d.!.@X@X%X@X[.b.f.c.f.f.f.v.oX@X@X+X+X$Xy.+ 4X4X4X4X4X4X4X4X4X4X",
"4X4X4X4X4X4X+ ' k.k.k.k.B.B.p.$.p.$.$.p.p.s.s.s.j.s.$.} U ' F.).[.@X@Xm.f.f.f.f.f.b.@X@X@XoX`.).:.w 4X4X4X4X4X4X4X4X4X4X",
"4X4X4X4X4X4X+ Y k.j.k.k.k.B.s.$.$.$.$.$.p.C.A.V.V.B.p.$.$.{ i.A.S.(.].m.f.f.f.*.*.m.`.]./.~.F.V.' O 4X4X4X4X4X4X4X4X4X4X",
"4X4X4X4X4X4X+ k k.j.k.k.k.B.s.$.$.$.$.$.$.C.A.A.A.V.p.p.$.$.j.A.A.A.Z.s.$.$.$.$.$.l.F.C.V.B.B.B.Y O 4X4X4X4X4X4X4X4X4X4X",
"4X4X4X4X4X4X@ p j.j.k.k.k.k.k.$.$.$.$.$.$.B.A.A.A.A.C.s.s.j.A.A.A.A.V.$.@.$.@.@.$.k.V.B.B.B.V.B.j o 4X4X4X4X4X4X4X4X4X4X",
"4X4X4X4X4X4X# 3 p.k.j.j.k.k.k.p.@.$.$.@.$.C.A.A.A.A.A.A.A.A.A.A.A.A.j.@.$.@.@.@.p.B.B.B.B.B.V.i.9 @ 4X4X4X4X4X4X4X4X4X4X",
"4X4X4X4X4X4X4X% ' j.j.j.k.j.k.j.$.@.@.$.+.g.A.A.A.A.A.A.A.A.A.V.A.x.} @.@.@.@.$.k.B.B.B.B.B.B.] 3 # 4X4X4X4X4X4X4X4X4X4X",
"4X4X4X4X4X4X4Xo n s.j.j.j.k.j.k.s.@.@.@.| I +.j.V.A.A.A.A.A.A.V.i.' | $.@.@.@.s.B.B.B.B.B.B.k.G & 4X4X4X4X4X4X4X4X4X4X4X",
"4X4X4X4X4X4X4Xo 8 +.j.j.j.j.k.j.z.f.@.@.@.| W K U #.C.A.A.A.+.U ^ | @.@.@.@.p.k.B.B.B.B.B.B.&.p $ 4X4X4X4X4X4X4X4X4X4X4X",
"4X4X4X4X4X4X4X@ & G p.s.j.s.j.j.j.N.*.@.@.@.@.| Q U d.g.x.a.{ | @.@.@.@.| $.k.B.k.k.B.B.B.z.G 3 + 4X4X4X4X4X4X4X4X4X4X4X",
"4X4X4X4X4X4X4X4Xo 9  .s.s.j.j.j.j.z.!.c.| @.@.@.@.| K K K W @.@.@.@.| @.$.k.B.k.B.k.B.k.B.] f & # 4X4X4X4X4X4X4X4X4X4X4X",
"4X4X4X4X4X4X4X4X$ 2 n +.s.s.s.s.j.j.D.!.v.@.| @.@.| | | | | | @.@.@.@.p.k.k.k.k.k.B.k.k.i.n 8 o 4X4X4X4X4X4X4X4X4X4X4X4X",
"4X4X4X4X4X4X4X4X4X$ 9 F *.s.s.s.s.s.j.j.l.l.f.+.@.| | | | | | | @.p.j.k.k.k.k.k.k.k.B.j.F f & + 4X4X4X4X4X4X4X4X4X4X4X4X",
"4X4X4X4X4X4X4X4X4X+ & p G $.p.p.s.s.s.s.s.j.l.j.h.f.$.+.$.$.p.s.j.k.j.j.j.k.k.j.k.k.l.Y f 5 o 4X4X4X4X4X4X4X4X4X4X4X4X4X",
"4X4X4X4X4X4X4X4X4X4X+ 2 i G $.s.p.s.p.s.s.s.s.s.s.j.j.j.j.j.j.j.j.j.j.j.j.j.j.k.k.j.Y f p $ @ 4X4X4X4X4X4X4X4X4X4X4X4X4X",
"4X4X4X4X4X4X4X4X4X4X@ $ 5 0 Z +.p.p.p.p.s.s.s.s.s.s.j.s.s.s.j.s.s.j.j.j.j.j.j.j.i.G f s % o 4X4X4X4X4X4X4X4X4X4X4X4X4X4X",
"4X4X4X4X4X4X4X4X4X4X4X+ X 5 6 j ` $.$.p.p.p.p.p.p.s.s.s.s.s.s.s.s.s.s.s.s.j.j.+.k s s 2 o 4X4X4X4X4X4X4X4X4X4X4X4X4X4X4X",
"4X4X4X4X4X4X4X4X4X4X4X4X+ $ 5 6 x ' ' +.p.p.p.p.p.p.p.p.p.s.p.s.s.s.s.s.s.d.Y j p s 2 o 4X4X4X4X4X4X4X4X4X4X4X4X4X4X4X4X",
"4X4X4X4X4X4X4X4X4X4X4X4X4X+ $ 5 u Z E E } p.p.p.p.p.p.p.p.p.p.p.s.s.s.+.Y j d s p 2 . 4X4X4X4X4X4X4X4X4X4X4X4X4X4X4X4X4X",
"4X4X4X4X4X4X4X4X4X4X4X4X4X4Xo X 3 6 u i u k P ` +.$.p.$.$.p.$.$.` P k a i i d 9 % o 4X4X4X4X4X4X4X4X4X4X4X4X4X4X4X4X4X4X",
"4X4X4X4X4X4X4X4X4X4X4X4X4X4X4X+   % 5 6 6 6 6 6 a h x k k x h a i u u i i i 3   o 4X4X4X4X4X4X4X4X4X4X4X4X4X4X4X4X4X4X4X",
"4X4X4X4X4X4X4X4X4X4X4X4X4X4X4X4X# .   1 5 6 6 6 6 6 6 6 6 6 6 u u u i 6 3 $ . @ 4X4X4X4X4X4X4X4X4X4X4X4X4X4X4X4X4X4X4X4X",
"4X4X4X4X4X4X4X4X4X4X4X4X4X4X4X4X4X4X+ . X O * 5 6 6 6 6 6 6 6 6 5 3 1 $ . + 4X4X4X4X4X4X4X4X4X4X4X4X4X4X4X4X4X4X4X4X4X4X",
"4X4X4X4X4X4X4X4X4X4X4X4X4X4X4X4X4X4X4X4X@ o X X $ % % % % % % X X   o + 4X4X4X4X4X4X4X4X4X4X4X4X4X4X4X4X4X4X4X4X4X4X4X4X",
"4X4X4X4X4X4X4X4X4X4X4X4X4X4X4X4X4X4X4X4X4X4X4X4X+ o   o o . X + 4X4X4X4X4X4X4X4X4X4X4X4X4X4X4X4X4X4X4X4X4X4X4X4X4X4X4X4X",
"4X4X4X4X4X4X4X4X4X4X4X4X4X4X4X4X4X4X4X4X4X4X4X4X4X4X4X4X4X4X4X4X4X4X4X4X4X4X4X4X4X4X4X4X4X4X4X4X4X4X4X4X4X4X4X4X4X4X4X4X",
"4X4X4X4X4X4X4X4X4X4X4X4X4X4X4X4X4X4X4X4X4X4X4X4X4X4X4X4X4X4X4X4X4X4X4X4X4X4X4X4X4X4X4X4X4X4X4X4X4X4X4X4X4X4X4X4X4X4X4X4X",
"4X4X4X4X4X4X4X4X4X4X4X4X4X4X4X4X4X4X4X4X4X4X4X4X4X4X4X4X4X4X4X4X4X4X4X4X4X4X4X4X4X4X4X4X4X4X4X4X4X4X4X4X4X4X4X4X4X4X4X4X",
"4X4X4X4X4X4X4X4X4X4X4X4X4X4X4X4X4X4X4X4X4X4X4X4X4X4X4X4X4X4X4X4X4X4X4X4X4X4X4X4X4X4X4X4X4X4X4X4X4X4X4X4X4X4X4X4X4X4X4X4X",
"4X4X4X4X4X4X4X4X4X4X4X4X4X4X4X4X4X4X4X4X4X4X4X4X4X4X4X4X4X4X4X4X4X4X4X4X4X4X4X4X4X4X4X4X4X4X4X4X4X4X4X4X4X4X4X4X4X4X4X4X",
"4X4X4X4X4X4X4X4X4X4X4X4X4X4X4X4X4X4X4X4X4X4X4X4X4X4X4X4X4X4X4X4X4X4X4X4X4X4X4X4X4X4X4X4X4X4X4X4X4X4X4X4X4X4X4X4X4X4X4X4X",
"4X4X4X4X4X4X4X4X4X4X4X4X4X4X4X4X4X4X4X4X4X4X4X4X4X4X4X4X4X4X4X4X4X4X4X4X4X4X4X4X4X4X4X4X4X4X4X4X4X4X4X4X4X4X4X4X4X4X4X4X"
};
