/* XPM */
static char *fc9a7b323a034005fd45553885cdfe09ZwLrysxPINOAnzda[] = {
/* columns rows colors chars-per-pixel */
"60 60 22 1 ",
"  c #040402",
". c #030401",
"X c #030402",
"o c #050402",
"O c #050302",
"+ c #060403",
"@ c #040201",
"# c #040200",
"$ c #020301",
"% c #030301",
"& c #050403",
"* c #040301",
"= c #050503",
"- c #060503",
"; c #070504",
": c #070604",
"> c #040302",
", c #030200",
"< c #050301",
"1 c #020100",
"2 c #030100",
"3 c white",
/* pixels */
"  .X        oOOOOOOOOOOOOOOOo+++oOOOOOOOOOOOO@##OOOOO+++++++",
"  $%       &+**++++oOO++O@**OOOOOOOOOOOOOOOOOO@@OOOOO+++++++",
" .%%.      =-**++++oOO+++ooOOOOOOOOOOOOOOOOOOOOOOOOOo+++++++",
" % .%      =+**++++oOO+++;:+OOOOOOOOOOOOOOOOO*O+++++++++++++",
" .          OOOo+++oOOOo++++++++oOOOOOOOOOO++oooOOOOOOOOOOOO",
"            OOOO+++oOOOOOOOo++++oOOOOOOOOOO++;-*@OOOOOOOOOOO",
"  ****>    >OOO*o++oOOOOOOOo++++oOOOOOOOOOO++OooOOOOOOOOOOOO",
"O*,,,,@OOOOOOOOOOOOOOOOOOOOOOOOOOOOOOOOOOOOOO*OoOOOOOOOOOOOO",
"O*####@OOOOOOOOOOOOOOOOOOOOOOOOOOOOOOOOOOOOOOOOOOOOOOOOOOOOO",
"O<@@@@@*****OOOOOOOOOOOOOOOOOOOOOOOOOOOOOOOOOOOOOOOOOOOOOOOO",
"OOOOOO<#####OOOOOOOOOOOOOOOOOOOOOOOOOOOOOOOOOOOOOOOOOOOOOOOO",
"OOOOOOO#####OOOOOOOOOOOOOOOOOOOOOOOOOOOOOOOOOOOOOOOOOOOOOOOO",
"OOOOOOO#####OOOOOOOOOOOOOOOOOOOOOOOOOOOOOOOooooooooooooooooo",
"OOOOOOO#####OOOOOOOOOOOOOOOOOOOOOOOOOOOOOOO+++++++++++++++++",
"OOOOOO<#####OOOOOOOOOOOOOOOOOOOOOOOOOOOOOOO+++++++++++++++++",
"@@@@@@@*<<<OOOOOOOOOOOOOOOOOOOOOOOOOOOOOOOO+++++++++++++++++",
"oo####@OOOOOOOOOOOOOOOOOOOOOOOOOOOOOOOOOOOO+++++++++++++++++",
"**####@OOOOOOOOOOOOOOOOOOOOOOOOOOOOOOOOOOOO+++++++++++++++++",
"@@<<<<OOO>         >OOOOOOOOOOOOOOOOOOOOOOOOOOOOOOOOo+++++++",
"#@OOOOOOO          >OOOOOOOOOOOOOOOOOOOOOOOOOOOOOOOOO+++++++",
"#*OOOOOOO          >OOOOOOOOOOOOOOOOOOOOOOOOOOOOOOOOO+++++++",
"OOOOOOOOO          >OOOOOOOOOOOOOOOOOOOOOOOOOOOOOOOOOOOOOOOO",
"OOOOOOOOO          >OOOOOOOOOOOOOOOOOOOOOOOOOOOOOOOOOOOOOOOO",
"OOOOOOOOO>         >OOOOOOOOOOOOOOOOOOOOOOOOOoOOOOOOOOOOOOOO",
"OOOOOOOOOOOOOOOOOOOOOOOOOOOOOOOOOOOOOOOOOOOOO+O@@OOOOOOOOOOO",
"OOOOOOOOOOOOOOOOOOOOOOOOOOOOOOOOOOOOOOOOOOOOO-o#@OOOOOOOOOOO",
"<OOOOOOOOOOOOOOOOOOOOOOOOOOOOOOOOOOOOOOOOOOOO+O@*OOOOOOOOOOO",
"#@OOOOOOOOOOOOOOOOOOOOOOOOOOOOOOOOOOOOOOOOOOOOOOOOOOO+++++++",
"#@OOOOOOOOOOOOOOOOOOOOOOOOOOOOOOOOOOOOOOOOOOOOOOOOOOO+++++++",
"@*OOOOOOOOOOOOOOOOOOOOOOOOOOOOOOOOOOOOOOOOOOOOOOOOOOO+++++++",
"OOOOOOOOOOOOOOOOOOOOOOOOOOOOOOOOOOOOOOOOOOOOOOOOOOOOO+++++++",
"OOOOOOOOOOOOOOOOOOOOOOOOOOOOOOOOOOOOOOOOOOOOOOOOOOOOO+++++++",
"OOOOOOOOOOOOOOOOOOOOOOOOOOOOOOOOOOOOOOOOOOOOOOOOOOOOO+++++++",
"OOOOOOOOOOOOOOOOOOOOOOOOOOOOOOOOOOOOOOOOOOOOOOOOOOOOO+++++++",
"OOOOOOOOOOOOOOOOOOOOOOOOOOOOOOOOOOOOOOOOOOOOOOOOOOOOO+++++++",
"OOOOOOOOOOOOOOOOOOOOOOOOOOOOOOOOOOOOOOOOOOOOOOOOOOOOO+++++++",
"OOOOOOOOOOOOOOOOOOOOOOOOOOOOOOOOOOOOOOOOOOOOOOOOOOOOO+++++++",
"OOOOOOOOOOOOOOOOOOOOOOOOOOOOOOOOOOOOOOOOOOOOOOOOOOOOO+++++++",
"OOOOOOOOOOOOOOOOOOOOOOOOOOOOOOOOOOOOOOOOOOOOOOOOOOOOO+++++++",
"OOOOOOOOOOOOOOOOOOOOOOOOOOOOOOOOOOOOOOOOOOOOOOOOOOOOO+++++++",
"OOOOOOOOOOOOOOOOOOOOOOOOOOOOOOOOOOOOOOOOOOOOOOOOOOOOO+++++++",
"OOOOOOOOOOOOOOOOOOOOOO@#########*OOOOOOOOOOOOOOOOOOOO+++++++",
"OOOOOOOOOOOOOOOOOOOOOO@#########*OOOOOOOOOOOOOOOOOOOO+++++++",
"OOOOOOOOOOOOOOOOOOOOOO@@@@@@@@@#@*@*OOOOOOOOOOOOOOOOOo++++++",
"OOOOOOOOOOOOOOOOOOOOOOOOOOOOOOO@##,##@OOOOOOOOOOOOOOOOOOOO++",
"OOOOOOOOOOOOOOOOOOOOOOOOOOOOOOO@#,1,#@OOOOOOOOOOOOOOOOOOOO++",
"OOOOOOOOOOOOOOOOOOOOOO*********@##2##@OOOOOOOOOOOOOOOOOOOO++",
"OOOOOOOOOOOOOOOOOOOOOO@##############@OOOOOOOOOOOOOOOOOOOO++",
"OOOOOOOOOOOOOOOOOOOOOO@##############@OOOOOOOOOOOOOOOOOOOO++",
"OOOOOOOOOOOOOOOOOOOOOO****************O>>>>OOOOOOOOOOooooo++",
"OOOOOOOOOOOOOOOOOOOOOOOOOOOOOOOOOOOOOOO    OOOOOOOOOO+++++++",
"O*OOOO*<OOOOOOOOOOOOOOOOOOOOOOOOOOOOOO>    OOOOOOOOOO+++oO++",
"@@OOOO*@OOOOOOOOOOOOOOOOOOOOOOOOOOOO>      OOOOOOOOOO++oOOOO",
"@@OOOO++@@OOOOOOOOOOOOOOOOOOOOOOOOOO>      OOOOOOOOOO++OO<OO",
"@@OOOO<*<OOOOOOOOOOOOOOOOOOOOOOOOOOO>  X   OOOOOOOOOO++O@#<O",
"O@OOOO**OOOOOOOOOOOOOOOOOOOOOOOOOOOO>  XX  OOOOOOOOOO++<##<O",
"O<OOOOOOOOOOOOOOOOOOOOOOOOOOOOOOOOOO>  XX  OOOOOOOOOOoO###<O",
"OOOOOOOOOOOOOOOOOOOOOOOOOOOOOO>>>>>>   XX  OOOOOOOOOOO@@@@<O",
"OOOOOOOOOOOOOOOOOOOOOOOOOOOOOO         X   OOOOOOOOOOOOOOOOO",
"OOOOOOOOOOOOOOOOOOOOOOOOOOOOOO             OOOOOOOOOOOOOOOOO"
};
