/* XPM */
static char *_2a2eff5f8634ae1b4111ed6f9f205a3po9KqNaPtW5ncnt7[] = {
/* columns rows colors chars-per-pixel */
"60 60 127 2 ",
"   c None",
".  c #CE161E",
"X  c #CC181F",
"o  c #D2161E",
"O  c #DE151D",
"+  c #D4181F",
"@  c #DF181F",
"#  c #E0161E",
"$  c #ED171F",
"%  c #C71A21",
"&  c #CE1920",
"*  c #D61920",
"=  c #DC1921",
"-  c #ED1720",
";  c #E21A22",
":  c #ED1C24",
">  c #E6242B",
",  c #ED232B",
"<  c #E6282F",
"1  c #ED282F",
"2  c #EE2D34",
"3  c #EF3037",
"4  c #EE343B",
"5  c #EF383F",
"6  c #EC3D44",
"7  c #F03D44",
"8  c #EF4147",
"9  c #ED454B",
"0  c #F04147",
"q  c #F0454B",
"w  c #F1494F",
"e  c #ED4C52",
"r  c #F14E54",
"t  c #ED565C",
"y  c #EE5A5F",
"u  c #F15057",
"i  c #F45459",
"p  c #F4595E",
"a  c #F35F65",
"s  c #F36066",
"d  c #F3656B",
"f  c #F46E73",
"g  c #F6767A",
"h  c #F87479",
"j  c #F5797E",
"k  c #053C86",
"l  c #073F88",
"z  c #083F88",
"x  c #0D4189",
"c  c #1A4C90",
"v  c #255495",
"b  c #2C5898",
"n  c #315E9B",
"m  c #35609C",
"M  c #39639E",
"N  c #3D67A0",
"B  c #446DA4",
"V  c #4771A8",
"C  c #4E74A8",
"Z  c #5377AB",
"A  c #5578AB",
"S  c #597CAE",
"D  c #F57E83",
"F  c #728FBA",
"G  c #7C97BE",
"H  c #F58185",
"J  c #F68589",
"K  c #F68B8F",
"L  c #F7969A",
"P  c #F79B9E",
"I  c #F79DA1",
"U  c #F89EA2",
"Y  c #F8A2A5",
"T  c #F8A7AA",
"R  c #F9ACAE",
"E  c #F9AEB1",
"W  c #F9B3B5",
"Q  c #FAB6B8",
"!  c #FABBBD",
"~  c #85A1C5",
"^  c #8CA4C6",
"/  c #93AACA",
"(  c #9EB2CF",
")  c #AEBED6",
"_  c #FABEC0",
"`  c #B0C0D7",
"'  c #B8C6DB",
"]  c #BBC9DE",
"[  c #EFC3C9",
"{  c #FAC3C5",
"}  c #F0C4C8",
"|  c #FBCACC",
" . c #FBCFD1",
".. c #FCD2D4",
"X. c #FDD6D8",
"o. c #FCDBDC",
"O. c #C1CEE0",
"+. c #C8D6E6",
"@. c #CFD9E7",
"#. c #DDDBE5",
"$. c #D3DBE8",
"%. c #E1DCE5",
"&. c #FCDFE0",
"*. c #DAE1EC",
"=. c #FDE3E4",
"-. c #FEECED",
";. c #E3E8F0",
":. c #EAEEF4",
">. c #FEEFF0",
",. c #EDF0F6",
"<. c #EFF2F7",
"1. c #F4F4F7",
"2. c #F6F7FA",
"3. c #FEF7F8",
"4. c #FEF7F8",
"5. c #F7F8FA",
"6. c #F6F8FB",
"7. c #F8F9FB",
"8. c #FFF8F8",
"9. c #FFFBFB",
"0. c #FAFDFF",
"q. c #FCFCFD",
"w. c #FFFCFC",
"e. c #FFFDFD",
"r. c #FFFEFE",
"t. c white",
"y. c #FFFFFF",
/* pixels */
"                                                                                                                        ",
"                                                                                                                        ",
"                                                                                                                        ",
"                                              y t r 9 0 7 7 7 7 0 9 u p t                                               ",
"                                        e e 0 3 , : : : : : $ : : : : , 2 7 e u                                         ",
"                                    e 9 2 , : : : : : : : : : : : : : : - : , 3 9 e                                     ",
"                                9 6 2 : : : : : : : : : : : : : : : : : : : : : : 2 0 9                                 ",
"                              6 5 , : : : : : : : : : : : : : : : : : : : : : : : : , 3 6                               ",
"                            6 2 : : : : : : : : : : : : : : : : : : : : : : : : : : : : 1 6                             ",
"                          4 1 : : : : : : : : : : : : : : : : : : : : : : : : : : : : : : , 5                           ",
"                        4 , : : : : : : : : : : : : : : : : : : : : : : : : : : : : : : : : , 3                         ",
"                      4 , : : : : : : : : : : : : : : : : : : : : : : : : : : : : : : : : : : , 3                       ",
"                    2 , : : : : : : : : : : : : : : : : : : : : : : : : : : : : : : : : : : : : , 2                     ",
"                  < 1 : : : : : : : : : : : : , : : : : : : : : : : : : : : : : : : : : : : : : : , <                   ",
"                  2 : : : : : : : : : : : : : : : : : : : : : : : : : : : : : : : : : : : : : : : : 2                   ",
"                > : : : : : : : : : : : : : : : : : : : : : : : : : : : : : : : : : : : : : : : : : , >                 ",
"                , : : : : : : : : : : : : : : : : : : : : : : : : : : : : : : : : : : : : : : : : : : ,                 ",
"              ; , : : : : : : : : : : : : : $ : : : $ : : : : : : : : : : : : : : : - - : : : $ : : : : >               ",
"              , : : : : : : : : : : : : : 2 f I W T D 0 : : : : : : : : : : : : : : r K R W P s 1 : : : :               ",
"            = , : : : : : : : : : : : , d ..t.t.t.t.t.=.J 1 : : : : : : : : : : 4 Y -.t.t.t.t.8.! r : : , ;             ",
"            ; : : : : : : : : : : : : f -.t.t.t.t.t.t.t.9.U 1 : : : : : : : : 4 _ t.t.t.t.t.t.t.t.&.r : : :             ",
"            : : : : : : : : : : : - w =.t.t.t.t.t.t.:.;.2.9.g - : : : : : : : P t.t.t.t.t.t.2.;.:.t.| 4 : ;             ",
"            : : : : : : : : : : : : Y t.t.t.t.t.2./ M b A +. .2 : : : : : : q -.t.t.t.t.t.$.S b m ^ 1.g : :             ",
"            : : : : : : : : : : : 3 o.t.t.t.t.t.( x k k k M %.i $ : : : : $ j t.t.t.t.t.:.B k k k x / Q , : =           ",
"          = : : : : : : : : : : : q -.t.t.t.t.7.Z k k x k x ` h - : : : : - L t.t.t.t.t.] x k z x k V [ 2 : O           ",
"          ; : : : : : : : : : : $ 9 -.t.t.t.t.2.C k x k x x ) h - : : : : - L t.t.t.t.t.' x x z k k B [ 2 : ;           ",
"          O : : : : : : : : : : : 4 o.t.t.t.t.t./ k k k k n #.p - : : : : - J t.t.t.t.t.;.M k k k k ~ ! , : ;           ",
"          @ : : : : : : : , : : : , R t.t.t.t.t.,.G b c M ] ..3 : : : : : : w -.t.t.t.t.t.O.B c v F :.H : : ;           ",
"          O : : : : : : : : : : : - u -.t.t.t.t.t.t.*.@.,.e.H : : : : : : : : R t.t.t.t.t.t.:.@.$.0...5 : : =           ",
"          O : : - : : : : : : : : : : H 3.t.t.t.t.t.t.t.0.W 1 : : : : : : : : 7 | t.t.t.t.t.t.t.t.-.a : : : ;           ",
"          O : : : : : : : : : : : : : , j &.t.t.t.t.t.-.P 2 : : : : : : : : : : 7 Q 3.t.t.t.t.t...a : : : : ;           ",
"          O : : : : : : : : : : : : : : : 6 H W | ! L u : : : : : : : : : : : : : 1 s I { | E g 2 : : : : : >           ",
"          O : : : : : : : : : : : : : : : : : , , , - - : : : : : : : : : : : : : : - : , , , - : : : : : : >           ",
"          O : : : : : : : : : : : : : : : : : : : : : : : : : : : : : : : : : : : : : : : : : : : : : : : : ;           ",
"          O : : : : : : : : : : : : : : : : : : : : : : : : : , : : : : : : : : : : : : : : : : : : : : : : >           ",
"          O : : : : : : : : : : : : : : : : : : : : : : : : : : : : : : : : : : : : : : : : : : : : : : : : =           ",
"          O : : : : : : : : : : : : : : : : : : : : : : : : : : : : : : : : : , : : : : : : : : : : : : : : ;           ",
"          O : : : : : : : : : : : : : : : : , : : : : : : : : : : : : : : : : : : : : : : : : : : : : : : : ;           ",
"          O : : : : : : : : : : : : : : : : : : : : : : : : : : : : : : : : : : : : : : : : : : : : : : : : #           ",
"          # : : : : : : : : : : : : : : : : : : : : : : : : : : : : : : : : : : : : : : : : : : : : : : : : ;           ",
"          O : : : : : : : , : : : : : : : : : : : : : : : : : : : : : : , : : : : : : : : : : : : : : : : : #           ",
"          O : : : : : : : : : : : : : : : : : : : : : : : : : : : : : : : : : : : : : : : : : : : : : : : : ;           ",
"          O : : : : : : : : : : : : : : : : : : : : : : : : : : : : : : : : : : : : : : : : : : : : : : : : ;           ",
"          O : : : : : : : : : : : : : : : : : : : : : : : : : : : : : : : : : : : : : : : : , : : : : : : : ;           ",
"          # : : : : : : : : : : : : : : : : : : : : : : : : : : : : : : : : : : : : : : : : : : : : : : : : ;           ",
"          # : : : : : : : : : : : : : : : , : : : : : : : : : : : : : : : : : : : : : : : : : : : : : : : : #           ",
"          # : : : : : : : : : : : : : : : : : : : : : : : : : : : : : : : : : : : : : : : : : : : : : : : : #           ",
"          # : : : : : : : : : : : : : : : : : : : : : : : : : : : : : : : : : : : : : : : : : : : : : : : : ;           ",
"          # : : : : : : : : : : : : : : : : : : : : : : : : : : : : : : : : : : : : : : : : : : : : : : : : ;           ",
"          # : : : : : : : : : : : : : : : : : : : : : : : : : : : : : : : : : : : : : : : : : : : : : : : : ;           ",
"          O : : : : : : : : : : : : : : : : : : : : : : : : : : : : : : : : : : : : : : : : : : : : : : : : #           ",
"          O : : : : : : : : * o * : : : : : : : : : : : = o o * : : : : : : : : : : : : * o * : : : : : : : ;           ",
"          ; : : : : : : ; X       o ; : : : : : : : : *         . : : : : : : : : : : *       o ; : : : : : ;           ",
"          = : : : : : = %           * : : : : : : : +             o : - : , : : : : +           o ; : : : : =           ",
"            ; : : : = %               = : : : : : ;                 ; : : : : : : =               + : : : : #           ",
"            : : : ; X                   ; : : : : +                   : : : : : =                   + : : : +           ",
"            @ ; ;                       o = : ; o                       * : ; =                       * : =             ",
"                                            X                             & .                                           ",
"                                                                                                                        ",
"                                                                                                                        "
};
