/* XPM */
static char *_a82ab07af214658c78bcc242c1e6cbe0l01phBhJPOGwgDH[] = {
/* columns rows colors chars-per-pixel */
"60 60 126 2 ",
"   c None",
".  c #1E1C17",
"X  c #1F1D18",
"o  c #201E19",
"O  c #23211C",
"+  c #272420",
"@  c #2D2A25",
"#  c #33312C",
"$  c #3F3C38",
"%  c #45423E",
"&  c #474541",
"*  c #484642",
"=  c #4F4C48",
"-  c #595754",
";  c #5D5B57",
":  c #605E5B",
">  c #6C6C69",
",  c #73716D",
"<  c #7A7875",
"1  c #7D7E7C",
"2  c #963713",
"3  c #943815",
"4  c #9C3916",
"5  c #943919",
"6  c #A63A14",
"7  c #AE3D16",
"8  c #B03D14",
"9  c #BB3E14",
"0  c #DB3F09",
"q  c #CE3F10",
"w  c #E63E05",
"e  c #EB3D00",
"r  c #E43F08",
"t  c #B54016",
"y  c #D2420D",
"u  c #DE420D",
"i  c #C24011",
"p  c #CA4214",
"a  c #DF4D1C",
"s  c #E54007",
"d  c #EC4006",
"f  c #E3420B",
"g  c #EC4209",
"h  c #E24612",
"j  c #E24914",
"k  c #EB4810",
"l  c #DE5324",
"z  c #DE5A2D",
"x  c #DE5E32",
"c  c #E05424",
"v  c #DB6037",
"b  c #DD643C",
"n  c #E0673D",
"m  c #DE6943",
"M  c #DC7552",
"N  c #DC7856",
"B  c #DD7E5E",
"V  c #E06C44",
"C  c #DC8263",
"Z  c #DD8669",
"A  c #DD8F74",
"S  c #DE9277",
"D  c #DD967D",
"F  c #DE987F",
"G  c #E09176",
"H  c #848481",
"J  c #888684",
"K  c #908F8C",
"L  c #989693",
"P  c #A09E9B",
"I  c #A2A09D",
"U  c #A2A3A1",
"Y  c #B5B4B2",
"T  c #BCBAB8",
"R  c #DE9980",
"E  c #E09880",
"W  c #DFA28C",
"Q  c #E0A28D",
"!  c #E1A691",
"~  c #E1A895",
"^  c #E1AE9D",
"/  c #DEB0A1",
"(  c #C1BFBE",
")  c #E2B4A4",
"_  c #E4BFB1",
"`  c #E6C6BA",
"'  c #E6C8BC",
"]  c #C9C4C1",
"[  c #CAC8C7",
"{  c #CBCBCA",
"}  c #DAD0CC",
"|  c #D4D3D2",
" . c #D8DAD8",
".. c #E9D0C7",
"X. c #EAD5CD",
"o. c #E7D7D0",
"O. c #ECDCD5",
"+. c #EEDFD8",
"@. c #E1E0DF",
"#. c #EDEDEC",
"$. c #F0E7E3",
"%. c #F1E9E5",
"&. c #F3EFEC",
"*. c #F3F0ED",
"=. c #F5F4F3",
"-. c #F7F8F7",
";. c #F8F8F7",
":. c #F8FAF9",
">. c #F9FBFB",
",. c #F8FCFB",
"<. c #F9FCFB",
"1. c #FAFCFB",
"2. c #FCFCFB",
"3. c #FAFDFC",
"4. c #FBFDFC",
"5. c #FBFEFE",
"6. c gray99",
"7. c #FDFEFD",
"8. c #FDFFFE",
"9. c #FCFFFF",
"0. c #FDFFFF",
"q. c #FEFEFE",
"w. c #FEFFFE",
"e. c #FFFFFE",
"r. c #FEFFFF",
"t. c white",
/* pixels */
"                                                                                                                        ",
"                                                                                                                        ",
"                                              w g e e e e e e g e e e e g g                                             ",
"                                        g g e e e e e e e e e e e e e e e e e g                                         ",
"                                    k e e e e e e e e e e e e e e e e e e e e e e g                                     ",
"                                k e e e e e e e e e e e e e e e e e e e e e e e e e w                                   ",
"                              w e e e e e e e e e e e e e e e e e e e e e e e e e e e e k                               ",
"                            e e e e e e e e e e e e e e e e e e e e e e e e e e e e e e e r                             ",
"                        r e e e e e e e e e e e e e e e e e e e e e e e e e e e e e e e e w r                           ",
"                        e e e e e e e e e e e e e e e e e e e e e e e e e e e e e e e e e e w r                         ",
"                      d e e e e e e e e e e e e e e e e e e e e e e e e e e e e e e e e e e e e t                       ",
"                    g e e e e e e e e e e e e e e e e e e e e e e e e e e e e e e e e e e e e e 0                       ",
"                  g e e e e e e e e e e e e e e e e e e e e e e e e e e e e e e e e e e e e e e w f                     ",
"                  g e e e e e e e e e e e e e e e e e e e e e e e e e e e e e e e e e e e e e e e e                     ",
"                k e d e e w j h w e e e e e e e e e e e e g e e h h h e e e e e e e e e e e e e e e w                   ",
"                g e e s M ) X...) M g e e e e e e e e e e e c G ` X.` E c e e e e e e e e e e e e e e                   ",
"                e e f Q =.q.q.q.q.=.Q k e e e e e e e e e m X.q.q.q.q.q.o.V e e e e e e e e e e e e e g                 ",
"              g e s R q.q.q.q.q.q.q.>.R w e e e e e e e z O.q.q.q.q.q.q.q.O.z e w e e e e e e e e e e e                 ",
"              g e x %. .I Y #.q.q.q.q.$.x e e e e e e w ~ =.Y P | q.q.q.q.q.Q g e e e e e e e e e e e e k               ",
"              w e G { % O O < =.q.q.q.5.A e e e e e e a o.H + o $ [ q.q.q.q.o.j e e e e e e e e e e e e g               ",
"              w w ^ 1 X O O @ [ q.q.q.q.^ w e e e e e n ] # o O . , 2.q.q.q.=.x e e e e e e e e e e e e e               ",
"              e w / > . O O + T q.q.q.q.) w e e e e e V T @ O O o : ;.q.q.6.=.x e e e e e e e e e e e e e               ",
"              e e Q U o X . $ $.q.q.q.q.! e e e e e e z } = X o O L q.q.q.q.$.z e e e e e e e e e e e e e g             ",
"            h e e M #.K & - ( q.q.q.q.>.N e e e e e e h ` [ ; & J #.q.q.q.q.` h e e e e e e e e e e e e e g             ",
"            q e e h ` 6.#.=.q.q.q.q.q.` h e e e e e e e B ;.=.#.6.q.q.q.q.=.B e e e e e e e e e e e e e e g             ",
"            p e e e V O.6.6.q.q.q.q.+.m e e e e e e e e r ! 6.q.q.6.q.q.1.Q f e e e e e e e e e e e e e e g             ",
"            p e e e e x _ &.6.6.&._ x w e e e e e e e e e h S O.;.6.;.+.S f e e e e e e e e e e e e e e e g             ",
"            q w e e e e h b B C b h e e e e e e e e e e e e w l N B M c e e e e e e e e e e e e e e e e e g             ",
"            7 w e e e e e e e e e e e e e e e e e e e e e e e e e e e e e e e e e e e e e e e e e e e e e e             ",
"            6 e e e e e e e e e e e e e e e e e e e e e e e e e e e e e e e e e e e e e e e e e e e e e e e             ",
"            4 w e e e e e e e e e e e e e e e e e e e e e e e e e e e e e e e e e e e e e e e e e e e e e g             ",
"            4 e e e e e e e e e e e e e e e e e e e e e e e e e e e e e e e e e e e e e e e e e e e e e e e             ",
"            4 e e e e e e e e e e e e e e e e e e e e e e e e e e e e e e e e e e e e e e e e e e e e e e e             ",
"            5 w e e e e e e e e e e e e e e e e e e e e e e e e e e e e e e e e e e e e e e e e e e e e e e             ",
"            5 e e e e e e e e e e e e e e e e e e e e e e e e e e e e e e e e e e e e e e e e e e e e e e e             ",
"            5 e e e e e e e e e e e e e e e e e e e e e e e e e e e e e e e e e e e e e e e e e e e e e e g             ",
"            5 e e e e e e e e e e e e e e e e e e e e e e e e e e e e e e e e e e e e e e e e e e e e e e e             ",
"            5 w e e e e e e e e e e e e e e e e e e e e e e e e e e e e e e e e e e e e e e e e e e e e e g             ",
"            5 e e e e e e e e e e e e e e e e e e e e e e e e e e e e e e e e e e e e e e e e e e e e e e g             ",
"            5 e e e e e e e e e e e e e e e e e e e e e e e e e e e e e e e e e e e e e e e e e e e e e e d             ",
"            5 e e e e e e e e e e e e e e e e e e e e e e e e e e e e e e e e e e e e e e e e e e e e e e g             ",
"            5 e e e e e e e e e e e e e e e e e e e e e e e e e e e e e e e e e e e e e e e e e e e e e e e             ",
"            3 e e e e e e e e e e e e e e e e e e e e e e e e e e e e e e e e e e e e e e e e e e e e e e e             ",
"            2 w e e e e e e e e e e e e e e e e e e e e e e e e e e e e e e e e e e e e e e e e e e e e e g             ",
"            4 e e e e e e e e e e e e e e e e e e e e e e e e e e e e e e e e e e e e e e e e e e e e e e w             ",
"            4 e e e e e e e e e e e e e e e e e e e e e e e e e e e e e e e e e e e e e e e e e e e e e e w             ",
"            6 e e e e e e e e e e e e e e e e e e e e e e e e e e e e e e e e e e e e e e e e e e e e e e g             ",
"            6 e e e e e e e e e e e e e e e e e e e e e e e e e e e e e e e e e e e e e e e e e e e e e e e             ",
"            6 e e e e e e e e e e e e e e e e e e e e e e e e e e e e e e e e e e e e e e e e e e e e e e w             ",
"            8 d e e e e e e e e e e e e e e e e e e e e e e e e e e e e e e e e e e e e e e e e e e e e e e             ",
"            i e e e e e e e e e e e e e e e e e e e e e e e e e e e e e e e e e e e e e e e e e e e e e e e             ",
"            y e e e e e e e e e e e e e e e e e e e e e e e e e e e e e e e e e e e e e e e e e e e e e e e             ",
"            f e e e e e w s s s g e e e e e e e e e e e w f   f w e e e e e e e e e w h u f w e e e e e e g             ",
"            f e e e e e u         s w e e e e e e e e f           w e e e e e e e s           0 e e e e e g             ",
"            d d e e e f             g e e e e e e e s               w e e e e e s               r e e e e g             ",
"              e e e w                 d e e e e e g                 r e e e e w                   g e e e g             ",
"              e e d g                   e e e e d                     g e e e g                     g e e               ",
"              d e g                       d w d                         g e g                         e g               ",
"                                                                                                                        ",
"                                                                                                                        "
};
