/* XPM */
static char *f2a06e818b24467998a6307716d43babGh2Ac2DvuwP8k65P[] = {
/* columns rows colors chars-per-pixel */
"60 60 202 2 ",
"   c None",
".  c #161515",
"X  c #191616",
"o  c #1C1916",
"O  c #161619",
"+  c #191719",
"@  c #16191C",
"#  c #1B1A1B",
"$  c #171816",
"%  c #151214",
"&  c #231B16",
"*  c #221D1B",
"=  c #291E18",
"-  c #2B1E16",
";  c #3A1E1D",
":  c #25211D",
">  c #2B221C",
",  c #292116",
"<  c #322219",
"1  c #36261C",
"2  c #3D331D",
"3  c #151C23",
"4  c #1B1D22",
"5  c #201F23",
"6  c #1C2123",
"7  c #1C232B",
"8  c #17212A",
"9  c #232324",
"0  c #2B2623",
"q  c #2E2B23",
"w  c #252529",
"e  c #282729",
"r  c #26292C",
"t  c #2B2B2C",
"y  c #322A21",
"u  c #322C2A",
"i  c #35312C",
"p  c #3C352C",
"a  c #3C3429",
"s  c #2D2E33",
"d  c #282D39",
"f  c #2E3135",
"g  c #2F3238",
"h  c #323336",
"j  c #3C3533",
"k  c #31333A",
"l  c #39373B",
"z  c #36383E",
"x  c #3A3B3D",
"c  c #462916",
"v  c #432819",
"b  c #443623",
"n  c #47382A",
"m  c #523E2A",
"M  c #433C32",
"N  c #413D3B",
"B  c #543230",
"V  c #472622",
"C  c #783A38",
"Z  c #3D403D",
"A  c #4D4438",
"S  c #52493B",
"D  c #554A38",
"F  c #5A523D",
"G  c #59422C",
"H  c #614D27",
"J  c #283143",
"K  c #373941",
"L  c #3B3C43",
"P  c #3D3E49",
"I  c #333B46",
"U  c #403F42",
"Y  c #3F414A",
"T  c #3E4247",
"R  c #3E4F6C",
"E  c #434244",
"W  c #42434C",
"Q  c #48464A",
"!  c #454B4E",
"~  c #4B4B4D",
"^  c #5A4C42",
"/  c #5D5444",
"(  c #454651",
")  c #464954",
"_  c #494A57",
"`  c #484A56",
"'  c #494A55",
"]  c #494A57",
"[  c #494A58",
"{  c #4A4B59",
"}  c #464B5C",
"|  c #514E55",
" . c #4E515B",
".. c #4B5054",
"X. c #51535D",
"o. c #5C5B5C",
"O. c #535559",
"+. c #635949",
"@. c #6B5E4D",
"#. c #635844",
"$. c #765956",
"%. c #634848",
"&. c #5E615F",
"*. c #6E614C",
"=. c #72674F",
"-. c #6E6352",
";. c #62605F",
":. c #726551",
">. c #766954",
",. c #7A6C54",
"<. c #7D6E5D",
"1. c #7F7157",
"2. c #7D715C",
"3. c #555662",
"4. c #5B5B63",
"5. c #5E5F6A",
"6. c #485675",
"7. c #605E65",
"8. c #5C6166",
"9. c #5F666C",
"0. c #5C687A",
"q. c #656365",
"w. c #64646D",
"e. c #6C6B6B",
"r. c #666671",
"t. c #666D75",
"y. c #696873",
"u. c #6D6C74",
"i. c #68717B",
"p. c #747374",
"a. c #7E7C7C",
"s. c #736565",
"d. c #9B7938",
"f. c #A07D39",
"g. c #9D5A59",
"h. c #84735A",
"j. c #86775A",
"k. c #8C7D64",
"l. c #807368",
"z. c #807F7E",
"x. c #907D63",
"c. c #9B896C",
"v. c #938368",
"b. c #A08F6C",
"n. c #A3906F",
"m. c #A08E74",
"M. c #AB9779",
"N. c #AA9676",
"B. c #B39E7C",
"V. c #B9A37E",
"C. c #475A80",
"Z. c #56668A",
"A. c #6B7688",
"S. c #727D84",
"D. c #7B7F8D",
"F. c #6A7895",
"G. c #717E99",
"H. c #778289",
"J. c #7B8892",
"K. c #88898B",
"L. c #91908F",
"P. c #818C95",
"I. c #98999B",
"U. c #86939E",
"Y. c #BBA682",
"T. c #BCA783",
"R. c #A3A39F",
"E. c #8999A4",
"W. c #8E9EAA",
"Q. c #8895A7",
"!. c #959BA4",
"~. c #8FA1AC",
"^. c #96A0B0",
"/. c #9CA2A9",
"(. c #B8BABC",
"). c #A6A8AF",
"_. c #C79090",
"`. c #C08C8A",
"'. c #C2AC84",
"]. c #C3AB86",
"[. c #C9B28B",
"{. c #D3BA8F",
"}. c #D1B68C",
"|. c #D6BD91",
" X c #DDC395",
".X c #DFC69A",
"XX c #E5CA9A",
"oX c #E9CE9E",
"OX c #E1C79A",
"+X c #EDD19F",
"@X c #EED2A1",
"#X c #F3D6A2",
"$X c #F6D9A5",
"%X c #F9DAA5",
"&X c #FBDCA8",
"*X c #AEB4C2",
"=X c #BEC8D2",
"-X c #D8D7D6",
";X c #C7CDD1",
":X c #E1E0DF",
">X c #ECEAE8",
",X c #F2F1ED",
/* pixels */
"                                                                                                                        ",
"                                                                                                                        ",
"                                                      7 7 6 4 # # 4 3 4 4                                               ",
"                                          7 8 4 # @ @ $ X # t L Q ~ E j 9 @ 3                                           ",
"                                  3 # + 9 0 t h x x x l u w 9 r l | w.u.w.U # @                                         ",
"                              # # 9 l | 4.w.y.y.y.y.e.y.y.w.4.| L t f W 4.u.O.6 @                                       ",
"                          3 O 9 L | X.{ ( W W W W ) { { { { X.3.4.4.~ L W { w.o.w O                                     ",
"                        @ O * e e * + + * w t k L W ( { { _ _ _ ( { { X.( ( ` 4.4.e o # # + # @ 4 4                     ",
"                    3 X X O $ . # 9 s K W ) ( _ [ [ _ _ _ _ _ _ _ ] [ [ ` ` ` ` 3.4.| { _ Q Q K h r * # 4               ",
"                4 @ O $ + + w k U ) _ _ _ _ _ _ [ [ _ _ _ _ _ _ _ _ [ ] ` ` _ _ [  .X. .3.4.5.w.y.y.w.Q 9 +             ",
"              # O $ $ + r L ) _ [ [ _ _ _ _ _ _ _ [ _ _ _ _ _ _ _ _ _ _ ` ` ` _ [ ] ` ` ` W L P (  .5.u.4.9 +           ",
"          8 3   4 + 5 K ( _ _ _ _ [ _ _ _ _ _ _ ) ( _ _ _ _ _ _ _ _ _ _ ` [ [ _ ] ] ` ` ` ` P s 5 w s U 7.| + 3         ",
"              4 + w W _ _ _ _ _ _ _ _ ) W P K z K k L ` _ _ _ _ _ _ _ _ _ _ _ _ [ _ _ _ _ _ _ ( K 5 . + 5 U w O         ",
"              + 9 W [ _ _ _ _ [ _ W L k k f f s s s g Y ) _ _ _ _ _ _ _ _ _ _ _ _ _ _ _ _ _ _ _ [ W r . . . O X         ",
"            @ * Y ` [ _ _ _ ) P k f r 9 4 O X X O 4 s K ) _ _ _ ] [ _ _ _ _ _ _ _ _ _ _ _ _ ` ` [ [ ) t X X 4 # #       ",
"          3 X k [ [ _ _ _ Y h w 5 # # t A o.p.z.h X t k W _ ) _ ] _ _ _ _ _ _ _ _ _ _ _ _ ` ` ` [ { [ ( e X 4   8       ",
"          $ 9 ) _ _ _ ) k 9 + $ X q q.I.(.-X-X:Xp.$ 9 k L ) P ( ` _ _ _ _ _ _ _ _ _ _ _ ] ] ] ` Y Y ` [ T * $           ",
"        4 $ k [ ' ( z 9 + + # # + # 9 u j Q ;.z.e.o + s z L g Y _ _ _ _ _ _ _ _ _ _ _ _ ] ` [ ` I g K ( [ k + 4         ",
"        @ # ) ` T e $ $ 9         9 * + . % % % $ $ $ t g g g K ) _ _ _ _ _ _ _ _ _ _ _ ] ` ` ` L k k k Y W 6 @         ",
"        O e ( k # . . o o # o # : : 0 q i p p A A i $ w k g s z ( _ _ _ _ _ _ _ _ _ _ _ ] ` ` ` K k g s r L e O         ",
"        X t f + . > / +.-.>.>.-.+.^ F / :.k.N.V.B.,.o 6 g f w g W [ _ _ ) [ ` ` _ _ _ _ _ _ ] ( z g g f 6 r e +         ",
"        + # + + . S T.].n.*.M q > M / h.b.V. XXXY.v.: + g r 4 f P [ _ _ [ ` [ [ _ _ _ [ _ _ ] W z g k k 9 + 9 $         ",
"        $ $ 3   $ F @XM.> > S j.V. X@X%X&X&X%X#X].m.u X t 6 # f L [ _ _ [ _ ` ` _ ( ) [ _ _ _ P k g k k w $ + +         ",
"        $ @     . A oX'.h.V.V.c.h.=.*.,.n.oX%X$X}.M.M X 4 + + f K ) _ [ [ _ [ ` ` P k W ] _ ( K k g k k w @ + X         ",
"        4       $ a  X%XY.S s d J I 9.w.u #. X$X|.B.S . X . + s K ) [ [ ) Y ` [ ( z k k ) _ P k z g k k r + X X         ",
"                @ : V.oXA z 0.R Z.Z.F.;XR.0 =.#X XY./ O X . # s K ) [ ) L z ( _ L k k k P Y k k g g k k w . X +         ",
"                @ o n.{.1 8.3.8 K.W.6.^.,Xe.q {..XB.-.X u # # s K ) ) K g g P P k k k k k k k k k k k k 9 X + O         ",
"                8 $ v.}.q 9.} % h A.C.Q.,XL.* ].XXY.<.p :.* # f z P k k k k K k k k k k k k k k g k k g # +   3         ",
"                6 $ v.OXn ' D.J ( F.6.*X,Xe.1 }.@XT.v.x.<.X # h k k k k k g g s f k k k k k k h e t k t O @   8         ",
"                @ * B.%Xj.9 I.W.F.F.).>XR.0 >.#X%X{.B.Y.+.$ 9 k k k g k k g s w f g k k k k k t @ 9 s # O               ",
"                @ : ].&X.XF u e.p.p.p.4.u #.OX%X%XoXY.M.M . r k k k k k k s 9 r k k g k k h s # $ 4 6 X 4               ",
"                @ # M.&X%X Xv.>.*.*.:.h.N.oX%X%X%X#X].c.0 # s k k k k k s 5 5 g g k k k k s # X X + O 4                 ",
"                  @ F XX&X%X%X%X$X$X%X%X%X%X%X%X%X@X].:.$ @ k k k k h t @ # f k k k h g e # # + $ . 3                   ",
"                  @ + / '.@X&X%X%X%X%X$X%X%X$X%X#X}.M.M . w h k k f w @ + t k h k g r 6 + @   3 # 3                     ",
"                      O 0 / c.[.OX+X#X%X%X$X#XOX].Y.l.* # f h s w # $ + t g f t w # o @       3                         ",
"                          O $ > i ^ @.>.h.1.:.:.:.@.a . 6 r : o X $ $ : 9 9 # @ $ @                                     ",
"                                  % O . % 4 * & . . X $ X $ . . $ . $ X $ . X , o 6                                     ",
"                                      3 5 l.$.; & X 4 t # . h ' s . $ + O . 2 f.d.b                                     ",
"                                      O j s.u X X x 9. .+ r J.U.t.s X x s O * m H 1                                     ",
"                                      O * * O X s S.P.P $ X.W.U.S.X.+ t E X * N r 3                                     ",
"                                    4 + ; V & + t.W.P.s @ S.W.E.H.i.e $ + + + u e                                       ",
"                                    @ * C C X w J.~.H.# t J.W.E.H.i.T $ # N # + #                                       ",
"                                    . j `.$.$ . ..E.i.X ' ;X=X=X/.I.e.# h q.O # @                                       ",
"                                    . ^ _.%.. * @ T ! X ! (.;X;X!.K.;.# 9 e . $ #                                       ",
"                                    X B g.n $ w.&.0 $ $ + 0 e t 0 9 # . $ O + $ #                                       ",
"                                    O & ; & . x K.I.! . j 2.:.:.>.2.@.* # ..z O                                         ",
"                                  3 @ w 4 + x r # x f % @. X|.{.{. XT.q 9 J.' O                                         ",
"                                  3 @ I r f J.J.8.Z 0 X p [.%X%X%XOX,.o s t.Z X 8                                       ",
"                                  @ $ # $ 9 x T ! ! Z * . i =.h.@.n & O + # + #                                         ",
"                                        @ O o * & o $ o 1 > > = > y : O X @                                             ",
"                                          3 X & = * $ = m G m m m n , X @                                               ",
"                                            $ & < < & X # * - & & & o X                                                 ",
"                                            + & 1 v - X = c c c v < + #                                                 ",
"                                            @ $ o & X X & > < < - o O                                                   ",
"                                                      $ $ O O O X X                                                     ",
"                                                                                                                        ",
"                                                                                                                        ",
"                                                                                                                        ",
"                                                                                                                        ",
"                                                                                                                        "
};
