/* XPM */
static char *_d3f9c053563419d8f87d3afd6aec9a9qkASNJeWkuUV0v31[] = {
/* columns rows colors chars-per-pixel */
"60 60 217 2 ",
"   c None",
".  c #161515",
"X  c #191616",
"o  c #1B1916",
"O  c #161719",
"+  c #19171A",
"@  c #16191B",
"#  c #1B1B1B",
"$  c #171817",
"%  c #13120F",
"&  c #241B16",
"*  c #231D1B",
"=  c #261A17",
"-  c #361F1C",
";  c #1F201E",
":  c #25211E",
">  c #2B261D",
",  c #3C231B",
"<  c #382618",
"1  c #151B22",
"2  c #1C1D21",
"3  c #161C26",
"4  c #211F21",
"5  c #1C2329",
"6  c #232324",
"7  c #2B2623",
"8  c #2D2924",
"9  c #26262A",
"0  c #292628",
"q  c #26292C",
"w  c #2B2B2C",
"e  c #332C24",
"r  c #332E2A",
"t  c #382823",
"y  c #33312D",
"u  c #3C342D",
"i  c #3F392E",
"p  c #383024",
"a  c #2C2D32",
"s  c #262B37",
"d  c #312F32",
"f  c #2E3136",
"g  c #2A333D",
"h  c #313236",
"j  c #32343A",
"k  c #35393E",
"l  c #3B3A3D",
"z  c #3A3737",
"x  c #44251C",
"c  c #4B2423",
"v  c #5A2B26",
"b  c #4E3A26",
"n  c #433426",
"m  c #433C33",
"M  c #4C3A37",
"N  c #773633",
"B  c #6A3432",
"V  c #3D403E",
"C  c #4C4334",
"Z  c #4A433A",
"A  c #534A3D",
"S  c #5A4538",
"D  c #54402B",
"F  c #785837",
"G  c #6C4E30",
"H  c #2B3340",
"J  c #2D3946",
"K  c #373941",
"L  c #3A3C44",
"P  c #313F4C",
"I  c #3C3E49",
"U  c #413E41",
"Y  c #3E414A",
"T  c #3A4048",
"R  c #384857",
"E  c #3C4D62",
"W  c #3B4A67",
"Q  c #3B5166",
"!  c #444343",
"~  c #42434C",
"^  c #4A494C",
"/  c #48484B",
"(  c #514E4D",
")  c #5B5343",
"_  c #454651",
"`  c #474954",
"'  c #494A57",
"]  c #4A4C59",
"[  c #474B59",
"{  c #514F57",
"}  c #4E525B",
"|  c #4B5154",
" . c #535355",
".. c #52545C",
"X. c #5D5B5D",
"o. c #585859",
"O. c #635645",
"+. c #655C4B",
"@. c #6B5E4C",
"#. c #695945",
"$. c #765856",
"%. c #685050",
"&. c #6E624C",
"*. c #76674F",
"=. c #6B6151",
"-. c #786A52",
";. c #7F715B",
":. c #7E7056",
">. c #41566C",
",. c #545560",
"<. c #555B62",
"1. c #5B5B64",
"2. c #5D5E68",
"3. c #595660",
"4. c #445876",
"5. c #495574",
"6. c #605F66",
"7. c #5F6167",
"8. c #636365",
"9. c #62636C",
"0. c #6C6B6A",
"q. c #676A6D",
"w. c #78716D",
"e. c #6B6A74",
"r. c #656873",
"t. c #6B757B",
"y. c #74737B",
"u. c #787979",
"i. c #70686C",
"p. c #883432",
"a. c #88342F",
"s. c #825D38",
"d. c #875755",
"f. c #8B504F",
"g. c #A65756",
"h. c #83745B",
"j. c #88785C",
"k. c #8C7D63",
"l. c #897D6C",
"z. c #97796A",
"x. c #837B7A",
"c. c #AB7B77",
"v. c #B37671",
"b. c #948365",
"n. c #99886B",
"m. c #81817D",
"M. c #9D8C71",
"N. c #8F816C",
"B. c #A49273",
"V. c #A99474",
"C. c #AD9979",
"Z. c #B49E7B",
"A. c #A68B74",
"S. c #B7A27D",
"D. c #4A5B81",
"F. c #5A6C8B",
"G. c #4F6E88",
"H. c #6A7786",
"J. c #717B84",
"K. c #767A85",
"L. c #6B7793",
"P. c #7B858D",
"I. c #7D8082",
"U. c #7A869C",
"Y. c #5F81A2",
"T. c #7D89A4",
"R. c #6A94B7",
"E. c #888888",
"W. c #968C8B",
"Q. c #818E97",
"!. c #88939C",
"~. c #989898",
"^. c #91908F",
"/. c #B68788",
"(. c #BAA581",
"). c #BEA883",
"_. c #A4A49E",
"`. c #8C9CA5",
"'. c #8D9DA9",
"]. c #8B94AB",
"[. c #8E97A8",
"{. c #99A5B3",
"}. c #90A0A9",
"|. c #A7A8A8",
" X c #BBBAB7",
".X c #A6ADBC",
"XX c #CA8E8A",
"oX c #C3AC85",
"OX c #CBB48A",
"+X c #C7B288",
"@X c #D5BA8F",
"#X c #D6BD92",
"$X c #DABF94",
"%X c #CDB590",
"&X c #D6BAB9",
"*X c #DEC496",
"=X c #E5CA9C",
"-X c #E8CB9C",
";X c #ECD19D",
":X c #F1D39F",
">X c #C2C4BF",
",X c #EDD3A2",
"<X c #F6D9A4",
"1X c #F9DAA5",
"2X c #F9DBA8",
"3X c #F4D7A3",
"4X c #ADB5C6",
"5X c #B7BEC9",
"6X c #B8BCC5",
"7X c #A7ADC0",
"8X c #BAC0CA",
"9X c #C8C8C6",
"0X c #CED3DA",
"qX c #D6D6D7",
"wX c #D6CAC8",
"eX c #E0DFDE",
"rX c #E1E8F1",
/* pixels */
"                                                                                                                        ",
"                                                                                                                        ",
"                                                                                                                        ",
"                                            3 1 # # # # 2 4 @ # + 1                                                     ",
"                                      # + @ 4 d L ] { o.6.6.1. .L * + #                                                 ",
"                              # $ $ X X + 4 w d K U U ' { ,.1.9.e.6.l # #                                               ",
"                              $ @ @ # + X X X . . . + 4 0 j I [ ] ,.1.^ 4 #                                             ",
"                                @ @ @ 4 6 a d z l l j d w 9 9 a U ' ' ] ~ 4 . + @ 4 6 6 6 6 # . $                       ",
"                          @ O 4 K U 3.2.9.r.r.2.1.3.,.,.] ] U U K U ] ] ] I s j U ' ..3.6.9.1./ w # #                   ",
"                      @ + w / 6.r.9.3.,.] ] [ ] ' [ ' ' ' ' [ ] ' ' ] ] ' ' ' ' ] [ ' ' ] ,.6.e.e.^ 4 $                 ",
"                  1 + 6 _ 6.6...U ] ] ] ] U ] ] ' ' ' ' ' ] ] ] ' ' ' ' ' ' ' ' [ _ L j f j K _ ,.e.o.* $               ",
"                1 # h ..,.] [ [ ] ] ] ,.] ] ] ] ' ' ' ' ' [ [ ] ' ] ' ] ' ] ' ' ' ' [ _ U j 4 4 0 k 1.U X               ",
"              @ + d _ ~ T L U ] 2.2.2.3.] ] ] U [ [ [ [ ' ' ' ' ' [ ' ' ' ' ' ' ' ' ' ' ] ' ~ z 6 . 6 w X #             ",
"            @ $ # w 6 # 9 ! 6.9.2.,.,.U ] [ ] ] ] ,.U [ ' ' ] [ ' [ ' ' ' [ ' [ ' [ [ ' [ ' ' ' _ a + . O 2             ",
"          @ X $ + . # l 9.e.1.] ] U [ ] ,.[ ] U U [ I I ' 5.] U ` _ _ _ U _ ~ _ ' ' ' ' [ [ ' ' [ ' l * . 1             ",
"        1 X @ # + * { y.9.] [ [ ] ] ] [ U 5.U I K H I [ U U U I k j a s 9 9 9 d L _ ' ] [ ' ' ' [ [ ' ' 9 .             ",
"              # 4 ..y.1.' [ ' ' ] ] ] U I K j f j j L L j j a q 6 # . . . . $ $ q k ~ ` ' ` ~ ` ] [ [ ] { * +           ",
"            @ # { K.,.` ' ' ' ' [ [ [ I j f a a f j j a a 4 # + 6 l ( ( / w : $ $ q k Y ' _ K L ' ] [ [ 1.! + 3         ",
"            o l y.1.' ' ' ' ' ' U U H H f q a j j f w 2 + 6 U 0.^. X9XqXqX&X^.0.6 $ q z _ ~ j j U [ [ } } 6.0 #         ",
"          @ 4 9.9.' ' ' ' [ ' ` U d K d 9 a j f q 2 . . X l 8.E.|. XwXqXqXeX8X_.0.# @ f K ~ j j K [ [ 2.r.e.U +         ",
"          . z e.] ' ' [ ] ' ' I J K d 9 9 H a 4 . 9 z r r a 0 6 6 w l ! o.w.E.x.E.Z $ 6 j k j a j _ ` 1.K.x.6.# @       ",
"        1 + { 1._ _ ' [ ' ' ~ j H H 0 4 d 4 + * / x.^.~.~.^.u.X.Z 0 . . . . . X 5 # % # f f a w d I ` ,.y.y.e.4 @       ",
"        2 # X.~ a _ ' ' ' _ K j K a + + 4 O . 4 z y 0 0 6 4 * * 6 : : 7 : 7 8 7 * : # X 6 h 9 2 f L [ } y.^ X.w #       ",
"        + 4 / 4 a ' ' ' ' T j j d 2 + X + + * 4 i C ) O.=.-.h.k.k.b.M.B.B.B.M.l.=.@.Z X # f # # f L ' ] e.! w 0 +       ",
"        1 * 4 + j ' ' ' _ k h w 2 O . # # X : M ;.Z.OX#X$X*X=X=X-X-X-XOXn.O.m e > e u # # # $ # f L ' ' e.! + X @       ",
"        2 X X + z ' [ ' ~ k h a # $ i ;.h.&.) p * C *X1X1X<X<X<X1X2XS.e 6 i &.n.B.M.M.u . . . # a L ' ] e.! . X @       ",
"        2 X + . j ' [ ' T j j 0 $ ; A @.-.M.OXOXV.k.=X<X<X1X1X<X<X2X+Xj.S.OXoXC.j.&.+.p X m 7 % q T ] ] r.L . + @       ",
"        + O 1 . w ' [ [ T j h 2 . z ~ g s a d C k.*X<X<X1X1X<X1X<X<X<X+X*.m w a g H ` 0 > l.u . w Y ' ' 9.d . # @       ",
"        1     O 6 _ [ ` L j a O Z .XF.W W W 5.y.8 @.:X1X1X1X3X1X<X2X#Xn U J.5.>.W 4.T.~.7 A y . a ~ ' ] 1.* 1   3       ",
"              @ # L [ ` L j 9 # _.}.T.E.2 H D.4Xu.> OX1X<X1X3X1X<X1Xb.: |.].4XK.. g D.5X0.o : $ d ' ' ../ X 1           ",
"                X 0 ` [ I j 4 7 >X].T.y.* 5 >.7X~.= Z.1X3X1X2X1X1X2X-.w wXT.L.~ + s 4.5X^.. X + L ' ` ] w +             ",
"                @ + k [ Y j 6 : |.8X4.L.^.W F.0Xx.> OX1X1X1X3X1X1X2Xk.7  X.XQ r.~.5.F.qXw.. X # ~ [ ' l + 1             ",
"                  O # I _ j # . ^ >X.XT.!.L.8X Xy A :X1X1X1X<X3X1X1XOXt o.wX{.U.T.U.8X_.8 e o : ~ ] L # #               ",
"                    . 6 T L # X : u o.X.7.e.X.y C @X1X1X1X<X1X1X1X1X1XV.e Z 9.q.8.7.( r A o.o 0 _ L # .                 ",
"                      X 6 j 2 X V +.:.:.-.-.j.B.*X1X1X1X<X:X;X3X<X2X2X<XOXn.:.*.*.h.b.n.&.8 . w j # O                   ",
"                        O # X # $ > &.B.%X-X<X2X2X1X1X1X<X$X@X=X1X2X2X1X2X2X2X;X#XS.:.i $ . @ ; X @                     ",
"                          # . . T R 5 $ 8 C A :.b.B.Z.(.oXoXoX+XoXS.Z.A.b.h.@.C e * 5 P E ; . $ @                       ",
"                            1 . Q Y.g . $ % o % o o o = * * - 4 : : = = o X % . . @ R R.G.@ $                           ",
"                                g s X T w . $ : v B B -.M - z ( n ) W.%.- X X X z q 2 Q Q                               ",
"                                @ $ 7.u.5 $ $ $ : x f.>Xc.p./.&Xv.f.x.c X X . . k t.w @ q                               ",
"                              1 $ } `.} $ h T 1 . X 8  .S v $.w.M = + = c - . . 2 J.t.6 $                               ",
"                            5 X o.}.`.f $ <.I.7.w . % . $ o ; ; 0 + . c N v X . . ..{.J.6 5                             ",
"                            O w  XrX|.; q P.Q.P.K.<.9 % . 0 o.m.~.{ % , p.p.- X . ! 0X0X/ .                             ",
"                          5 . . k u.q.$ T `.}.}.`.}.} $ 6 @ ; ! E.K.* t g.v.$.X . 6 7.! # $ @                           ",
"                        3 $ r ) C ; $ $ <.'.`.'.'.}...@ R R q 1 # 6 # 8 /.XX$.o $ . X m =.) # @                         ",
"                        @ e C.(.C.b.8 # t.'.`.'.'.'...# T g V f a O X * c.XXc.= $ . e M.).+X#.O                         ",
"                        @ m *X,X*XC.> 5 P.'.'.'.'.P.| 1 g V m.w g + # * d.g.N & . X : S.3X;X#.O                         ",
"                        @ o *.#X<XS.; h T.'.'.'.P.V h ; R T g R P + X X - c = # 0 X # B.+X&.# O                         ",
"                          @ # p ) A . a t.P.U.J.a . o 2 E 4.>.4.T O 7 6 ; * w _ ..# # e 7 . @                           ",
"                            @ . . O . + # 6 7 5 o o . $ q g s g 5 O w w 6 6 6 5 @ + $ @                                 ",
"                              @ $ # O + . : b b G G p < $ @ @ $ # < p p n b n o @                                       ",
"                                        @ & D F s.F F b $ @   @ * S F s.s.G n X 1                                       ",
"                                        1 . $ & & : & X +     @ X o & > & & % X                                         ",
"                                          $ o < x , & X @       X % < , x < X #                                         ",
"                                          1 X = * & X $           $ o * = # $                                           ",
"                                              $ O @                 $ X . @                                             ",
"                                                                                                                        ",
"                                                                                                                        ",
"                                                                                                                        ",
"                                                                                                                        "
};
