/* XPM */
static char *d57e2910f8264154e0c9ac3ab7a10382vTD6Q184R6YBN6Jx[] = {
/* columns rows colors chars-per-pixel */
"60 60 139 2 ",
"   c None",
".  c #000000",
"X  c #0C0C0C",
"o  c #131313",
"O  c #171817",
"+  c #1A1C1A",
"@  c #232524",
"#  c #272927",
"$  c #2B2D2B",
"%  c #2F3230",
"&  c #313432",
"*  c #363936",
"=  c #383A37",
"-  c #3A3D3A",
";  c #3D403E",
":  c #3F4340",
">  c #434643",
",  c #454945",
"<  c #474B48",
"1  c #4A4D4A",
"2  c #4D514D",
"3  c #51544F",
"4  c #525651",
"5  c #565A55",
"6  c #595C57",
"7  c #5A5E59",
"8  c #5E625C",
"9  c #61655E",
"0  c #626660",
"q  c #656A63",
"w  c #696D66",
"e  c #6B6F68",
"r  c #6C7067",
"t  c #6C7069",
"y  c #6D7169",
"u  c #6C7068",
"i  c #6E7169",
"p  c #6E7269",
"a  c #6D716A",
"s  c #6E726A",
"d  c #6F736A",
"f  c #6E726B",
"g  c #6F736B",
"h  c #6E726C",
"j  c #6F736C",
"k  c #6D726A",
"l  c #70746B",
"z  c #70746C",
"x  c #71746C",
"c  c #71756C",
"v  c #71756D",
"b  c #72766C",
"n  c #72766D",
"m  c #73766D",
"M  c #73776D",
"N  c #72766E",
"B  c #73776E",
"V  c #73776F",
"C  c #74776E",
"Z  c #72766D",
"A  c #74786E",
"S  c #74786F",
"D  c #75796F",
"F  c #76796F",
"G  c #75796F",
"H  c #737770",
"J  c #737870",
"K  c #757970",
"L  c #747871",
"P  c #747971",
"I  c #757971",
"U  c #767970",
"Y  c #767A70",
"T  c #777A70",
"R  c #767A71",
"E  c #777A71",
"W  c #777B71",
"Q  c #777B72",
"!  c #767A73",
"~  c #777B73",
"^  c #767A71",
"/  c #787B71",
"(  c #787B72",
")  c #787C72",
"_  c #797C72",
"`  c #787C73",
"'  c #797D73",
"]  c #7A7D73",
"[  c #7A7E73",
"{  c #787D74",
"}  c #797D74",
"|  c #797D75",
" . c #7A7E74",
".. c #7B7E74",
"X. c #7A7E75",
"o. c #7B7F75",
"O. c #797D76",
"+. c #7B7F76",
"@. c #7B7F77",
"#. c #7C7F75",
"$. c #7C7F76",
"%. c #797D74",
"&. c #7B8076",
"*. c #7C8076",
"=. c #7D8076",
"-. c #7C8077",
";. c #7D8177",
":. c #7E8177",
">. c #7D8077",
",. c #7D8178",
"<. c #7D8179",
"1. c #7D8279",
"2. c #7E8278",
"3. c #7F8278",
"4. c #7E8279",
"5. c #7F8279",
"6. c #7F8379",
"7. c #7E827A",
"8. c #7E837A",
"9. c #7F837A",
"0. c #7E8279",
"q. c #80847A",
"w. c #80847B",
"e. c #81857B",
"r. c #81857C",
"t. c #82857C",
"y. c #82867C",
"u. c #82867D",
"i. c #83877E",
"p. c #81857B",
"a. c #84887F",
"s. c #85897F",
"d. c #848980",
"f. c #858980",
"g. c #868A80",
"h. c #868A81",
"j. c #878B82",
"k. c #8A8E85",
"l. c #8B9087",
/* pixels */
"                                                                                                                        ",
"                                                                                                                        ",
"                                                                                                                        ",
"                                                                                                                        ",
"                                                                                                                        ",
"                                                                                                                        ",
"                                                      w e e w e u u                                                     ",
"                                                    v f.f.f.f.f.a.a.2.u                                                 ",
"                                                    J q.q.q.2.2.J j d 8                                                 ",
"                                                    u ' #...#.=.u w u 8                                                 ",
"                                                    w / ' ' #.=.j w w 9                                                 ",
"                                                    9 v E ' E =.A u 0 4                                                 ",
"                                                w 8 5 w E E A &.E E 0 6 j u                                             ",
"                                  9 q       e ' =.A 4 8 A u d ' W W 0 u i.2.E q       j w                               ",
"                                E =.v q 8 v ..W v u 4 8 ' ' ' ' W W 8 E E u E ..w v 2.f.q.q                             ",
"                              E ..' E u q &.&.' ' A 8 8 =.=.6.=...A 0 W E v u v 0 E f.f.q.A 5                           ",
"                            u W A A W W w q ' ' E d 7 2 0 w w w w 8 7 A A A A q 9 q.f.f.q.=.w                           ",
"                            9 v A E E W W 8 r d 9 ; + O + + + + + + + = 7 u u 8 ..i.i.2.i.q.q                           ",
"                              8 A A A A ' r 2 - + X . . . . . . . . . . o & 1 q f.6.2.2...e                             ",
"                              6 8 A A W v 2 + X . . . . . . . . . . . . . . o , v W 2...q 9 7                           ",
"                            v =.q 0 l w , o . . . . . . . . . . . . . . . . . X = 8 e 9 q #.u                           ",
"                          9 &.=.J 5 7 > X . . . . . . . . . . . . . . . . . . . X * 2 w 2.i.E 8                         ",
"                          d ' E &.r ; O . . . . . . . . . . . . . . . . . . . . . X ; A 2.i.2.u 8                       ",
"                        4 w A ' &.q @ . . . . . . . . . . . . . . . . . . . . . . . + 6 ..2...e 7                       ",
"                        0 8 w v E > X . . . . . . . . . . . . . . . . . . . . . . . . & u A q 8 5                       ",
"                        ' A u u 0 @ . . . . . . . . . . . . . . . . . . . . . . . . . O 2 0 u l w 5                     ",
"                      u A A ' A 1 X . . . . . . . . . . . . . . . . . . . . . . . . . . $ q / A l q                     ",
"                      l A v l u & X . . . . . . . . . . . . . . . . . . . . . . . . . . + q v l C A                     ",
"                      q A v j 8 + . . . . . . . . . . . . . . . . . . . . . . . . . . . X 4 v v A u                     ",
"                      8 9 0 8 ; . . . . . . . . . . . . . . . . . . . . . . . . . . . . . $ 7 9 9 8 8                   ",
"                  8 ..q.6.u.-.= . . . . . . . . . . . . . . . . . . . . . . . . . . . . . # v 2...i.i.' 9               ",
"                2 j E A u v A = . . . . . . . . . . . . . . . . . . . . . . . . . . . . . # u ..=.w./ E 8               ",
"                4 6./ ..' j u = . . . . . . . . . . . . . . . . . . . . . . . . . . . . . $ E E &.2...E 8               ",
"                4 &./ 2.i.=.u = . . . . . . . . . . . . . . . . . . . . . . . . . . . . . $ ..A ......' 9               ",
"                2 l A ' ....v = . . . . . . . . . . . . . . . . . . . . . . . . . . . . . $ -...' ..{ J 8               ",
"                < w w r w l u * . . . . . . . . . . . . . . . . . . . . . . . . . . . . . $ { E j v u w 5               ",
"                , 7 8 7 8 8 8 * . . . . . . . . . . . . . . . . . . . . . . . . . . . . . # 9 9 8 8 7 4 2               ",
"                  > , 2 8 0 6 % . . . . . . . . . . . . . . . . . . . . . . . . . . . . . @ 5 0 0 4 4 4 >               ",
"                      q k.l.{ = . . . . . . . . . . . . . . . . . . . . . . . . . . . . . $ { i...0 6                   ",
"                      0 f.d.J = . . . . . . . . . . . . . . . . . . . . . . . . . . . . . $ 2.E H 0 6                   ",
"                      8 ..2.E = . . . . . . . . . . . . . . . . . . . . . . . . . . . . . $ ..E A q 6                   ",
"                      7 v #.A = . . . . . . . . . . . . . . . . . . . . . . . . . . . . . $ J u w 0 5                   ",
"                      7 v E u = . . . . . . . . . . . . . . . . . . . . . . . . . . . . . # u w 8 7 2                   ",
"                      7 u q 8 % . . . . . . . . . . . . . . . . . . . . . . . . . . . . . # q u 0 7                     ",
"                    > 2 4 4 < $ . . . . . . . . . . . . . . . . . . . . . . . . . . . . . @ 4 4 4 4 ,                   ",
"                < q J ..O.{ h * . . . . . . . . . . . . . . . . . . . . . . . . . . . . . # e E H j u u 8               ",
"                2 { &.2.i.8.J = . . . . . . . . . . . . . . . . . . . . . . . . . . . . . $ E v v ..2.2.8               ",
"                2 E W ..&.W u * . . . . . . . . . . . . . . . . . . . . . . . . . . . . . $ J q u 2.u.=.8               ",
"                3 ..W 6.&.v r * . . . . . . . . . . . . . . . . . . . . . . . . . . . . . $ 2.v v =.q.' 9               ",
"                3 =...=.&.v r = . . . . . . . . . . . . . . . . . . . . . . . . . . . . . $ 2.2.&.=.' A 9               ",
"                2 ' ..2.' l w & . . . . . . . . . . . . . . . . . . . . . . . . . . . . . $ E 2...2.=.v 8               ",
"                1 w v u w 9 8 % . . . . . . . . . . . . . . . . . . . . . . . . . . X . . $ 0 v u j j 9 2               ",
"                  2 4 4 5 7 5 % . . . . . . . . . . . . . . X X X X . X X X X X O O o X X $ 2 5 7 5 5 1 ;               ",
"                      7 E &.v * . . . . . . . . . . X .                                   - e -...q 7                   ",
"                      8 u ..E = . . . . . . . X X X X o                                     ..E v q 7                   ",
"                      8 A E j = . . . . . X X X o o O                                     1 ..E E q 5                   ",
"                      9 ..v v = . . . X X o O o o                                         , A A A r 6                   ",
"                      9 E j e = X X X o O + +                                             , r A ' u 7                   ",
"                      8 u q 8 = X o o o                                                   > q E 2.u                     ",
"                      4 8 8 6 - O                                                         ; 7 q w 8                     "
};
