/* XPM */
static char *dcbf28d98b094186d202bfdcf0144f62oBIi4MnTYL3Z3Hht[] = {
/* columns rows colors chars-per-pixel */
"60 60 184 2 ",
"   c None",
".  c #1B160E",
"X  c #161515",
"o  c #191615",
"O  c #171817",
"+  c #1B1816",
"@  c #161619",
"#  c #191619",
"$  c #16191B",
"%  c #1B1A1B",
"&  c #231C16",
"*  c #2B1E17",
"=  c #221E1B",
"-  c #251B19",
";  c #321F16",
":  c #321E1C",
">  c #23201C",
",  c #2B231B",
"<  c #322115",
"1  c #32241D",
"2  c #332A1E",
"3  c #38281B",
"4  c #161C22",
"5  c #1B1D21",
"6  c #171D2A",
"7  c #1A1721",
"8  c #211F21",
"9  c #1D2122",
"0  c #1B222A",
"q  c #172028",
"w  c #232223",
"e  c #292524",
"r  c #2D2926",
"t  c #25262A",
"y  c #2C272A",
"u  c #27282C",
"i  c #2A2A2B",
"p  c #3C2E22",
"a  c #332E2C",
"s  c #3A2E2D",
"d  c #362E25",
"f  c #36312E",
"g  c #3C352B",
"h  c #393024",
"j  c #2D2D32",
"k  c #302F31",
"l  c #2F3135",
"z  c #2F3138",
"x  c #323235",
"c  c #3B3734",
"v  c #3D3835",
"b  c #31333A",
"n  c #35393E",
"m  c #3A3A3C",
"M  c #383338",
"N  c #48381E",
"B  c #423324",
"V  c #443E2E",
"C  c #413C39",
"Z  c #443C37",
"A  c #642E2B",
"S  c #702F2B",
"D  c #4F4124",
"F  c #49433E",
"G  c #47413C",
"H  c #785D2E",
"J  c #6F5439",
"K  c #745638",
"L  c #7E5D3A",
"P  c #7C642F",
"I  c #7C6537",
"U  c #373942",
"Y  c #3A3C44",
"T  c #3C3F48",
"R  c #383740",
"E  c #413F44",
"W  c #3D4144",
"Q  c #3F424C",
"!  c #424143",
"~  c #4B4542",
"^  c #4C4845",
"/  c #42444D",
"(  c #444A4E",
")  c #4A4B4C",
"_  c #48474C",
"`  c #534B46",
"'  c #544D4A",
"]  c #584E42",
"[  c #5D5446",
"{  c #444651",
"}  c #464954",
"|  c #494A57",
" . c #4A4B58",
".. c #524F51",
"X. c #4D5154",
"o. c #4F515C",
"O. c #525356",
"+. c #56575E",
"@. c #52545C",
"#. c #54595C",
"$. c #59585E",
"%. c #5C5D5F",
"&. c #58575D",
"*. c #645B4B",
"=. c #72504F",
"-. c #73654F",
";. c #6E6554",
":. c #766C54",
">. c #555661",
",. c #555663",
"<. c #575E63",
"1. c #5A5B65",
"2. c #5E5E65",
"3. c #595B65",
"4. c #625F66",
"5. c #5C6365",
"6. c #5C646B",
"7. c #5F6771",
"8. c #6D6463",
"9. c #616269",
"0. c #64646D",
"q. c #65676B",
"w. c #726E6A",
"e. c #78736F",
"r. c #656570",
"t. c #676873",
"y. c #636C72",
"u. c #6A6A72",
"i. c #6C6C76",
"p. c #6A6C74",
"a. c #6E6D78",
"s. c #706F78",
"d. c #6B757A",
"f. c #747577",
"g. c #71717A",
"h. c #74747F",
"j. c #797B7E",
"k. c #71787F",
"l. c #825E3B",
"z. c #8A623B",
"x. c #87613A",
"c. c #8F723C",
"v. c #96783B",
"b. c #897A64",
"n. c #907E60",
"m. c #817B76",
"M. c #AA853B",
"N. c #AE8941",
"B. c #988867",
"V. c #AB9877",
"C. c #D8A846",
"Z. c #C2A97F",
"A. c #777D83",
"S. c #7E8285",
"D. c #79858F",
"F. c #7C8892",
"G. c #828586",
"H. c #8F8A86",
"J. c #86898C",
"K. c #888B8C",
"L. c #8C8D91",
"P. c #85939C",
"I. c #919395",
"U. c #94979A",
"Y. c #BAA581",
"T. c #8C9AA5",
"R. c #8F9EAA",
"E. c #909FAA",
"W. c #9B9EA1",
"Q. c #8EA0AC",
"!. c #93A0AB",
"~. c #A4A7AA",
"^. c #ADB1B4",
"/. c #B4B8BD",
"(. c #C5B489",
"). c #D1B98F",
"_. c #D2BA93",
"`. c #F2D3A1",
"'. c #F7DBA5",
"]. c #BAC0C7",
"[. c #C5CACF",
"{. c #C1C6CB",
"}. c #D5DBE5",
"|. c #DCE5EC",
/* pixels */
"                                                                                                                        ",
"                                                                                                                        ",
"                                                                                                                        ",
"                                                                                                                        ",
"                                                                                                                        ",
"                                                    6 7 $ + $ % + # % @ 4 7 5                                           ",
"                                              @ 7 5 8 M ! ..@.$.&.&...| ! b y 7 % o $                                   ",
"                                          $ @ y _ 0.u.A.A.d.i.p.t.t.u.p.i.g.a.4.O.Y y + @                               ",
"                              @ o # % % # 8 { a.g.u.4.,.o. .| | | | | |  .o.,.1.r.a.u.,.R 8 X 7                         ",
"                        % # % x | &.3.&.&.1.i.1.o.( / } | | | | | | | | | | | | |  .>.4.p.2.T 7 @ 4                     ",
"                    6 @ % Y 2.i.0.2.1.,.,.>.} T Y Y / | | | | | | | | | | |  .| | |  .}  .,.A.,.v % #                   ",
"                  4 + M 4.g.0.o.{ / T Y Y R R R T { | | | | | | | | | | | | | | | |  . .|  . .,.0.| w @                 ",
"                @ w O.g.t.@.| | | } { / E E } }  . .| | | | | | | | | |  .}  . .| | | |  .E  .E } @.O.r #               ",
"            q # r 4.g.1.| | | | | | | |  .|  . . . .|  .|  .| | | | | |  . . . .| | | | E T R 6 u j U Y w #             ",
"            X i q.s.@.| | | | |  .| | | | | | |  .} | | | | | | | | | | }  .|  .| | | |  . .E R u % o + + X o           ",
"          @ e 0.r. .| | | | | | | | | | | | | | }  .| | | |  .| | | | | | | | | | | | |  . . . .} Y w o o @ # $         ",
"        % % +.r. .} | | | | | | | | | | | | | |  .| | | |  . .| | | | | | | | | |  .| | | | | | }  ./ j @ %     6       ",
"      6 @ ! r.X. .| |  .| | | | | |  .| | | | | | | | | |  .| | | | | | | | | | | | | | | | | | | | | } x $ $           ",
"      @ w 2.o.|  . .| | | | | | | | | | | | | | | | | | | | |  .| | | | | | |  .E | | | | | | | | |  .} | u o 7         ",
"    q o W >.} | | | | | | | | | | | | | | | | | | |  .| | | | | | | | | | | | | o. .| | | | | | | | }  . .( w O         ",
"    $ % (  .| | | | |  .| | | |  .| | | | | | | | | | | |  .| | | | | | | | | |  . . . . . .| | | | | | | | n O $       ",
"    + w | { n /  .| | | | | | | | | | | | | | | | | | | | | | | | | | | | | | |  . . . . . .| | | |  .} { | { w @       ",
"    @ t Q u u Q | | | } | | }  .| | | | | | | | | | | | | | | | | | | | | | | |  . . . . .| | |  .}  .{ j U | l o $     ",
"    @ 5 t $ j  .| { }  .| |  . .| | | | | | | | | | | | |  .| | | | | | | |  . . . .E  . .| | |  . . .{ u % n U + @     ",
"    @ O O o u { | W U | | |  . .| | | | | | | | | |  .| | | | | | | | | | |  . .| | | | | { ( | } } { R u # # j + $     ",
"    $ o O @ u U / n l U { |  .Q Y / { | | | | | } }  . . .| | | | } | | | | E T } | | | / b T }  .E R b b % # % X 4     ",
"    $ o X X t b b b z b n Q } W b b Y / { | | | T R Q  .| | |  . . . . .} T b R { | / Y b b Y / Y b b b b 5 @ # o 7     ",
"      q 4 X t b b b b b z z U U b b b b Y / | { R R U Q | | | | }  .} / R b b b Y Y b b b b b b b b b b b % X # #       ",
"          o 5 x b b b b b b z b b b b b z b Y T z z z U U Q } | } { U b b b b b b b b b b b b b b b b b l % # % #       ",
"          $ O j b b b b b b b b b b b b b b b z z z z z U U U T U b b b b b b b b b b b b b x b b b b b i % #   %       ",
"            X w b b b b b b b b b b b b b b U z b b U z z z U z z b b b b b b b b b b b b b b b b b b b t X $           ",
"            O O u b b z b b b b b b b b b z z b b b z z z U z z b b b b b b b b b b b b b b b b b b b l % @             ",
"              @ + j b b b b b x b b b z b b b b b b z b b b b b b b b z b b b b b b b b b b b b b b z w o $             ",
"                @ @ u z b b l t u b b b b b b b b b b b b b b b b b b b b b b b b b b u z b b b b x 8 X $               ",
"                  $ o w j b j % + u l b b b b b b b b b b b b b b b b b b b b b b l 8 7 z b b l u % o @                 ",
"                    % @ % w % % X @ w l b b b b b b b b b b b b b b b b b b b b t 7 o 8 x j u = O @                     ",
"                        % o ' w.m O O % w l l x b b b b b b b b b b b b b b j 8 # o # 8 w % @ $                         ",
"                          5 m e.H.8.f @ $ % % 9 j z b b b b b b b b b j u 8 + o + X o # @ $                             ",
"                            5 w ~ m.H.~ X 2 H N + 9 w u j x l z j u 8 % # o o # + @ @ 5                                 ",
"                                % w ^ f 3 M.C.P % % O O O % % + # # # - + o # # # 4                                     ",
"                                % $ O p c.M.P > a F f = o o + f 4.=.A S A : O 9 j # q                                   ",
"                              % % % , P v.D $ r ~ ' ' a o w = w Z s : 3 : + O % 5.} % %                                 ",
"                            % % 6.7.> , h + r v v F F > + A.G.> . X X > b W z O / P.} O q                               ",
"                          4 w p.Q.A.% % t % r f c c r o ! {.j.o + y O u O.d.5.> w F.T.O.O 0                             ",
"                        0 X ' }.}.p.X W k.b o + r a % % f.!.f X 8 M o o % n d.x X S.|.].x +                             ",
"                        4 o w X.L.G X k x % y ) a % o Y I.O.O o # t #.K.) X b W X O.J._ + O 5                           ",
"                      $ = [ [ d + O O 9 G j./.[.A.= # ) ^ % + x %.W.^.G.m X + y @ # & g *.] = @                         ",
"                    q o -._.Y.B.r O 5.~.[.].L.O.w 5 % + X x u.G.f.X.r O > f M w # + ;.V.(.).*.o                         ",
"                    % @ b.'.`.Y.e w I.U.%.k O t { d.d.n % y ) x % O X & C ` ` ` c - g V.`.'.:.#                         ",
"                      @ d B._.(.d o e % 9 W y.F.T.R.Q.P.y.b O X w r o w M C F ` ' F > V V.n.r #                         ",
"                        $ % r g = O l 6.D.T.Q.!.R.R.Q.Q.Q.P.7.l = + + w c v c C F ` Z % , % +                           ",
"                              % @ O w n W Q X.#.5.6.q.y.y.y.y.5.U y w @ % r x c c G ~ e $                               ",
"                                    @ X > 1 , * - = + o # % + # % & * , , , = w e y r = 4                               ",
"                                      o p I x.x.l.K B + 7   4 o 3 J l.l.z.K 2 O % 5 $                                   ",
"                                      X @ , p B B 1 % X       O + , B B p , O O                                         ",
"                                      @ o & < < < - o 5       % O * ; ; 1 & o %                                         ",
"                                        $ + - , * + o           % + * * - + +                                           ",
"                                          % @ @ # $               $ @ @ $ $                                             ",
"                                                                                                                        ",
"                                                                                                                        "
};
