/* XPM */
static char *deb79f774b0b4aa393fdde318dab8917qANFjSOF0bqVXAF6[] = {
/* columns rows colors chars-per-pixel */
"60 60 193 2 ",
"   c None",
".  c #0F1217",
"X  c #161516",
"o  c #191616",
"O  c #1D1916",
"+  c #15161A",
"@  c #191619",
"#  c #15181C",
"$  c #1B1A1B",
"%  c #171816",
"&  c #241C17",
"*  c #281C15",
"=  c #211E1B",
"-  c #2A1D18",
";  c #301E15",
":  c #26211E",
">  c #29211B",
",  c #342216",
"<  c #3D2619",
"1  c #3B2517",
"2  c #131621",
"3  c #151B22",
"4  c #1E1E21",
"5  c #241F20",
"6  c #1E2124",
"7  c #18212D",
"8  c #1F2730",
"9  c #232324",
"0  c #2B2623",
"q  c #2E2924",
"w  c #242529",
"e  c #28272A",
"r  c #27292B",
"t  c #2B2B2E",
"y  c #272827",
"u  c #362C27",
"i  c #332E2C",
"p  c #3A342B",
"a  c #242C33",
"s  c #2C2E32",
"d  c #232532",
"f  c #312F33",
"g  c #2E3134",
"h  c #2F3138",
"j  c #323235",
"k  c #3B3633",
"l  c #3D3933",
"z  c #31343A",
"x  c #38363A",
"c  c #36393D",
"v  c #3B3B3E",
"b  c #442817",
"n  c #4C3B26",
"m  c #42352D",
"M  c #423A2F",
"N  c #453727",
"B  c #423B33",
"V  c #413C39",
"C  c #493F32",
"Z  c #5C452D",
"A  c #484133",
"S  c #4B4339",
"D  c #47413D",
"F  c #544A3C",
"G  c #544737",
"H  c #5D503F",
"J  c #2D3741",
"K  c #373941",
"L  c #3B3C44",
"P  c #313D4A",
"I  c #3E3F4A",
"U  c #413F41",
"Y  c #3F4246",
"T  c #3E414A",
"R  c #3A4755",
"E  c #394957",
"W  c #394558",
"Q  c #444243",
"!  c #4B4540",
"~  c #42444C",
"^  c #4D4B4D",
"/  c #4B4948",
"(  c #554D46",
")  c #5F5444",
"_  c #444651",
"`  c #474A55",
"'  c #464954",
"]  c #494A53",
"[  c #494A55",
"{  c #494A57",
"}  c #494A56",
"|  c #494A56",
" . c #494A57",
".. c #494A58",
"X. c #4A4B58",
"o. c #4A4B58",
"O. c #4C5257",
"+. c #4E5659",
"@. c #515154",
"#. c #52535C",
"$. c #5A5A5D",
"%. c #5F5452",
"&. c #675C4B",
"*. c #6D614B",
"=. c #75664E",
"-. c #7E6F59",
";. c #756954",
":. c #7E7056",
">. c #414E69",
",. c #43526D",
"<. c #565661",
"1. c #575864",
"2. c #5B5D64",
"3. c #5D5D68",
"4. c #485979",
"5. c #615E67",
"6. c #5E6267",
"7. c #5C636B",
"8. c #62636B",
"9. c #68666F",
"0. c #676771",
"q. c #646D73",
"w. c #6B6A74",
"e. c #686770",
"r. c #667177",
"t. c #6B737A",
"y. c #6D787F",
"u. c #7A787A",
"i. c #83745C",
"p. c #887558",
"a. c #8B7C62",
"s. c #877962",
"d. c #857673",
"f. c #8E8068",
"g. c #968768",
"h. c #A49273",
"j. c #AC9876",
"k. c #B19D7B",
"l. c #BAA57F",
"z. c #4C5E82",
"x. c #4F6287",
"c. c #566785",
"v. c #6F7785",
"b. c #6E7981",
"n. c #61718F",
"m. c #727B82",
"M. c #787E85",
"N. c #697893",
"B. c #7B858E",
"V. c #748185",
"C. c #7E8A95",
"Z. c #7F8D98",
"A. c #8A8B8B",
"S. c #90908D",
"D. c #818F99",
"F. c #85919C",
"G. c #8A939F",
"H. c #9F9D9B",
"J. c #BAA581",
"K. c #B7A381",
"L. c #8C9AA5",
"P. c #8E9DAA",
"I. c #8795A0",
"U. c #919EAD",
"Y. c #9C9FA4",
"T. c #9DA0A9",
"R. c #97A1B2",
"E. c #A8A8A6",
"W. c #A6ADB6",
"Q. c #A6B2BD",
"!. c #B6B5B4",
"~. c #C3AC85",
"^. c #C4AD89",
"/. c #C9B387",
"(. c #CCB58B",
"). c #D3BB8E",
"_. c #D7BE92",
"`. c #DBC295",
"'. c #E4C99A",
"]. c #E2C797",
"[. c #ECD19F",
"{. c #F4D99F",
"}. c #EFD4A3",
"|. c #F3D6A2",
" X c #F7D9A5",
".X c #FADBA5",
"XX c #FADBA9",
"oX c #C4C5CF",
"OX c #CCD0D6",
"+X c #E0DFD8",
"@X c #E4E0DE",
"#X c #E7E6E7",
"$X c #E3E9F1",
/* pixels */
"                                                                                                                        ",
"                                                                                                                        ",
"                                              4 3 # # @ # @ # 2                                                         ",
"                                          # @ e v / ] @.] Q x f 9 $ @ #                                                 ",
"                                      3 % e #.w.0.7.3.3.2.<.@.~ x 5 X X + + 3                                           ",
"                                    # @ x 0.w.1.| _ L K z f s s a t t e 9 = $ @ @ %                                     ",
"                                  2 @ v w.8.] L L L U _ ~ ] | | ` ` ` ` ` ~ T K s 9 $ % +                               ",
"                          + X X + @ U 0.<.~ ~ ~ ` X.| X.X.{ { | X.| | | X.X.X...X._ T h 5 + #                           ",
"                  + + = 9 t j x K / 8.o.| | ..X.| X.| | X.X.......| ..| | ..| X.| ....X._ c 5 + #                       ",
"              $ $ j ] 5.9.0.8.3.1.<...| | ....| | | X.` | | | | | | X.| X.| ..| ..| X...| ` ~ h @ #                     ",
"          3 @ s $.t.w.5.#.` ` ` | | ..| | | | | X.| X.X.| | | | | X.| X.| | X...| | | | | | X.| L : + 3                 ",
"          @ j 0.w.#.I z K _ ` ..| X.| ..| ....| | X.| | X.| ..X...| | ..| ..| | | ..| | | | | | | L 9 +                 ",
"        # e 2.@.f 9 t L | | | | | X.| X...| | ..| X.| | ..| | X.| X.| | X.| | | ..| | ..| | | | | ` L @ +               ",
"        @ e f $ $ z ] { | | | X.X.| X.` X.| | X.| | | ....| | ....| | ..| ..| X.| X...| | X.X.| | _ t o #               ",
"      3 o o o $ K | | { | | X.| | X.| X.| | | | X...X...| ..| | X.| ..| | ..| ..X.| X.| | | | | _ s + @ @               ",
"      7 o o $ K { X.| { X.| | X.X.` X.| ....X.| | ..| | | ....X.| ..| | X.| ..| | ..| | | | X._ s # 4 z $ #             ",
"        # @ z ` o.| X.| | | X.| | X.| | ..| ..| | ..| | X.X.X.| X.| X.| X.| | | | | | | X.| _ t X % $ I w o             ",
"        + w _ | ` | | | X.| | | ..| | ..| | X.| | X.| X.| L _ | X.| | X.| ] ~ ] | | | | | I 9 # ^ Q % x x % 3           ",
"      3 o x X.| ..X.X.| | | | | X.| X.| X.| | X.| ..| _ K z ~ X.X.X.| X._ z z | ] | X.| c 5 X j u.^ % w L @ @           ",
"      3 4 ~ I L | X.....| | X.| ..| ..| ..| | | | ..R z j z I X.| | | ~ j 3 L X.X.X._ f o o o $ = O + 9 L $ #           ",
"      @ w U w K ` | X.| ......| | | | | | | | | | T c z z j L ` ` ` R z 4 $ L | _ L w X p &.;.i.f.F @ w K $ #           ",
"      @ r r $ L | X.| | ` | X.X.| | | ..| | | | ~ z h z z z c | ` T x w @ $ h w 4 @ X @ ( g.(.].'.p.% # $ o #           ",
"      % $ @ 4 K ..| _ L ` | ` o.X.| | | | | | _ K h z j s z z T _ c j $ o 6 f $ o l &.C q > G h.|.i.X o X %             ",
"      % % % 9 J ..| K z ~ ..` ` | | ..| | X.` K z z z s a z z K L j s o o o % % D i.h.~.J.a.A G '.=.X + % +             ",
"      # @ + 9 z ~ T z z K _ ` ` ~ K R | ` ` R z z h z a w z z z z j w % o = X : l k s j G i.l._.}.) X                   ",
"      @ o % 9 z K c z z z K ` ` K z z T ` | K z z h z t 9 z h z j g 6 % B 0 k E.W.c.,.,.W j N ).].M %                   ",
"      # % % 4 h z z h z z z T T c z z z K T z z h z z r 4 h z z z h $ = l 9 E.#XN.4.U.C.>.b.9 g.(.q %                   ",
"      + $ # @ s z h z z z z z z h z z h h c h c z z z s # t z z h h $ = : Q @XoXz.,./ e d v.i p.j.$ 3                   ",
"      3   # % w z g r z z z h z z z h c z z z h z h z s # y z z z g @ : q U +XOXz.n.w.@ P M.9 g.h.% 3                   ",
"            + 4 f 9 @ g h z z z z z z h z z z z z z z h $ $ g z z s $ : G 9 H.#XR.c.z.,.F.9.q /.k.: #                   ",
"            + X 9 9 % 4 h z z z z z h h h z z z z z h z 9 % 9 h z f 3 & -.) i S.!.Y.I.T.A.0 :.{.(.e +                   ",
"              X o % % @ $ g z z z h z h t h z h z z z z r % @ t z j 9 X &._.i.B V B V B p =.].XX(.u #                   ",
"                + % % @ % $ t j z z z h 6 6 g z z z z z h $ % $ s z t + m `. X'._.(.(.(.`.|.XX.Xg.O #                   ",
"                  X o $   + + 9 s h z z s $ @ t h z z z z w + % $ t h $ $ f. XXXXXXXXXXX.X.X{.k.u X                     ",
"                    # o     o o $ 5 t h h t $ # $ t j z h j 6 @ % @ 9 9 @ u J.XX.X.X.XXX].l.&.> %                       ",
"                                # # @ $ 9 w w $ o @ $ w s j g $ % % @ $ @ X m j.l.h.p.*.M = X %                         ",
"                                      + + % @ @ o o o % o 4 w w @ o @ % X X o & & O X X .                               ",
"                                          @ @ X + % % y 9 o o % % % o O m %.5 X #                                       ",
"                                          + $ c 9 % L y.B.z % 4 s 9 @ o u d.( + 3                                       ",
"                                          % Y 7.$ 9 q.C.R.y.$ 9 r.t.j % o 5 i @ 2                                       ",
"                                        + $ q./ X Y b.Z.P.G.c + q.P.y.6 r a + #                                         ",
"                                      + X s M.s % 6.V.Z.P.L.O.% O.P.I.Y 6 E 6 %                                         ",
"                                      % X / b.3 s M.B.T.R.Q.u.@ v I.P.t.$ T z %                                         ",
"                                    % % X 7.q.X D H.W.OX$X$XW.4 g F.P.Z.g 8 R $ %                                       ",
"                                  # : $ $ b.7.X $ j U O.$.@.x % g Z.P.P.+.3 E d %                                       ",
"                                  # j 9 : B.#.X p F A N l A u X Y L.P.P.b.4 P J +                                       ",
"                                  @ $ @ s C.c o s.^.J.J.J.~.s.o z G.P.P.Z.t a R + +                                     ",
"                                3 9 p % j B.L X i.}.|.|.|.|.p.o Y P.P.P.L./ 6 E $ +                                     ",
"                                $ l k @ $ t w % : *.j././.a.> # O.r.r.q.6.c % w $ +                                     ",
"                                - / ! i q $ % + o O > 0 9 O O % $ $ O O % % X +                                         ",
"                                = ! D l i $   # & N n n n Z Z N % X > : O +                                             ",
"                                @ i i w $     # o O & - > > > & % > ; & X #                                             ",
"                                  # #           % & < b < b , O O < b - @                                               ",
"                                                + o - < < < , o o - - o +                                               ",
"                                                  # o O o O o @ @ X @ +                                                 ",
"                                                                                                                        ",
"                                                                                                                        ",
"                                                                                                                        ",
"                                                                                                                        ",
"                                                                                                                        "
};
