/* XPM */
static char *c734e9f0c873412b9fcbaae1aaca214cTN7enAalAjJtAu6h[] = {
/* columns rows colors chars-per-pixel */
"60 60 146 2 ",
"   c #010103",
".  c #03050C",
"X  c #05080F",
"o  c #040710",
"O  c #050A14",
"+  c #060D1B",
"@  c #080F1E",
"#  c #070F20",
"$  c #080F21",
"%  c #071021",
"&  c #091124",
"*  c #0B152B",
"=  c #0B182F",
"-  c #0C1731",
";  c #0D1A34",
":  c #0E1D3B",
">  c #101F3F",
",  c #0F203E",
"<  c #10203F",
"1  c #0F1F40",
"2  c #101F40",
"3  c #0F2041",
"4  c #112244",
"5  c #12254B",
"6  c #14284E",
"7  c #142751",
"8  c #152A54",
"9  c #182F56",
"0  c #162D5A",
"q  c #182E5C",
"w  c #18305E",
"e  c #172F61",
"r  c #182F60",
"t  c #193264",
"y  c #1B356A",
"u  c #1D386D",
"i  c #1C3570",
"p  c #1E3A73",
"a  c #1F3D7A",
"s  c #203D77",
"d  c #203E7B",
"f  c #21407D",
"g  c #223F81",
"h  c #234283",
"j  c #24458B",
"k  c #264A8D",
"l  c #274690",
"z  c #274B91",
"x  c #284C95",
"c  c #274C99",
"v  c #2A4E9C",
"b  c #2B519E",
"n  c #2B4FA2",
"m  c #2C55A4",
"M  c #2D58A7",
"N  c #2D57AA",
"B  c #2E59AC",
"V  c #3057AA",
"C  c #305AAE",
"Z  c #2F5BB3",
"A  c #325EB4",
"S  c #345FB8",
"D  c #3060AE",
"F  c #3461B6",
"G  c #3562BA",
"H  c #3863B9",
"J  c #376BBC",
"K  c #396DBE",
"L  c #4375BC",
"P  c #3A6DC3",
"I  c #3C72C5",
"U  c #3E76C9",
"Y  c #3F78CA",
"T  c #4075C7",
"R  c #497CC6",
"E  c #4076CA",
"W  c #437BCB",
"Q  c #427CCD",
"!  c #417CCF",
"~  c #467FCD",
"^  c #437AD0",
"/  c #427DD0",
"(  c #447FD3",
")  c #4A81C5",
"_  c #4B81C7",
"`  c #4682CB",
"'  c #4B83CB",
"]  c #4D84CA",
"[  c #4A87CD",
"{  c #4D85CF",
"}  c #4C89CD",
"|  c #4E88CD",
" . c #4E8CCD",
".. c #5087CE",
"X. c #538BCB",
"o. c #528BCE",
"O. c #5590CD",
"+. c #4681D1",
"@. c #4684D1",
"#. c #4786D6",
"$. c #4D85D1",
"%. c #4B8BD1",
"&. c #4F89D0",
"*. c #4989D5",
"=. c #4E8FD4",
"-. c #4B8FD8",
";. c #4E8DDE",
":. c #538CD1",
">. c #558ED1",
",. c #5591D1",
"<. c #5396D7",
"1. c #569BD6",
"2. c #5093D8",
"3. c #5294DD",
"4. c #579ADD",
"5. c #619EDA",
"6. c #68A5D3",
"7. c #61A2DD",
"8. c #68A5DF",
"9. c #7DBBDF",
"0. c #5194E3",
"q. c #589EE0",
"w. c #5EAAE1",
"e. c #63A4E1",
"r. c #60ACE3",
"t. c #61B0E7",
"y. c #7DB7E2",
"u. c #7EBBE3",
"i. c #7FC0E3",
"p. c #80BDE6",
"a. c #81BDE8",
"s. c #84C5E2",
"d. c #81C2E5",
"f. c #82C3E5",
"g. c #83C2E6",
"h. c #83C5E4",
"j. c #86C5E7",
"k. c #88C6E6",
"l. c #86C9E6",
"z. c #86CAE6",
"x. c #88CFE7",
"c. c #84C2EA",
"v. c #89C6EC",
"b. c #8CCDE9",
"n. c #8AD1E9",
"m. c #91D2EF",
/* pixels */
"b ) x.t.<.-.*.*.+.( / / / Q / Y / Y Y Y Q U U T I I Y Y Y Y Y Y Y Y Y Y Y Y Y Y W W Y Y W Y Q Q Q +.+.+.@.*.-.0.w.n.X.m ",
"m ] k.q.~ P J G F A C A B B B B B B B B N m m m m m b m b M b b m m m b m m m N m m B m B M M C C A F F G K U ^ 1.z.,.B ",
"N | j.3.P S N m m c x x x l l k j j j j j h h h h f h f f f f f d f d d h h j h j j j j k k l z x x v b N N A P  .h.O.Z ",
"B | h.-.P Z v x l j h h f f f a a p p p p u u u u u u y y u u u u y y y u u u p p p s s a a f g h h j k l n N S [ i.,.B ",
"B | s.%.S n l j g a p i i y y y t e e e e q q q 0 0 0 0 0 0 0 0 q q q q q q q q q t t t y y y p p p a d j z b F [ g.:.Z ",
"B $.g.@.Z n j a a p u y t e e e 0 0 0 8 7 7 6 5 6 5 6 6 6 6 5 5 5 5 5 5 6 6 9 6 8 8 0 q q q e t y y u p a j b C ` g.>.F ",
"Z $.g.[ Z c j a p y y t e e e 8 8 8 7 6 6 5 5 5 3 5 3 5 5 3 3 3 5 4 4 < 4 5 5 6 6 6 7 8 0 0 q e t t y u f h x C ~ u.X.Z ",
"C { g.` N c h p y y e q 0 0 8 7 7 6 5 3 4 4 3 < 1 : : , : : , , ; > < > < < < 4 2 5 5 6 7 8 8 q q t u u p h x N ` g.>.Z ",
"A $.p.` V z f u y w q 9 8 7 6 5 4 > < < : : ; ; ; ; ; ; ; ; ; ; ; ; ; ; ; ; : : , , 3 3 6 6 8 8 0 q t y s f k V ~ g.X.A ",
"N $.p.~ V k f y t w 0 7 6 6 5 1 2 > > ; ; ; ; = - - * - - = = = = = = = = = = ; = , , , 3 3 6 6 8 8 0 y u s j m W p.X.Z ",
"N $.g.` m j s y e 0 8 6 5 4 3 : > ; ; - = * = = * - * * & * & & = * & = * = = * = - ; , , 3 5 6 7 8 0 r u s j m / u.:.Z ",
"N $.g.~ M h s y t 0 6 5 5 3 : : ; - - * * * & & & & # & & & & & & & & & * & * * = - ; ; , , 3 3 6 8 0 e y d j V U u.X.Z ",
"N $.u.~ m h s t w 8 8 3 3 3 : ; - = * & & & & & % % % @ $ + @ # @ @ @ @ & & & & * = - - ; , , 3 5 6 0 0 y i h m Q u.o.Z ",
"Z $.g.Q m h s t w 8 6 3 3 3 ; - = * & & % % % @ @ + + O + + O + + + + + @ $ $ # $ & & = - - : , 1 5 7 0 t p h m W u.o.A ",
"N $.u.Q M h s t 0 8 3 3 : : ; - * & & @ + + + + + O O O O O O O O O O O + + @ @ % % & = = = : : 1 5 5 0 t u h m W u.X.Z ",
"N $.i.~ m h u q 9 6 3 3 : ; - * & % % @ O + + O O O O O X o o O O O O O O O O + @ % & & * - ; : 1 5 5 7 w y h b W 9.{ Z ",
"B ' a.Q m g u q 8 7 1 1 ; ; = = & % @ @ O o O O O X o o X X X . o o o O O O O + + @ # & & = - ; > > 5 9 0 u g m Q u.:.B ",
"N ' p.R m d u q 8 5 1 : ; ; & & % % @ O + o O o X . X o X . . . . o o o X O O O O @ # # & * = ; > > 5 6 q y g v U u.' B ",
"N ' p.W m d u 0 7 5 1 ; ; - * & + @ + O o o X o . . .   X   . . . . . X . X X O o O + + $ * * - ; > 4 6 9 y d v E u.:.B ",
"N ' p.W m d y q 7 5 1 ; - * & # + @ O O o o   . .     X   X       .   . . . X X O + + + $ $ & - ; ; 2 6 9 y d v U u.' B ",
"N ' u./ n d y 8 6 4 : ; - & & # @ O O O X .   .   .   .     .       . . . . . O o O + + $ $ * - ; : > 6 9 t d c U 9...N ",
"N ) u.Q n a t 0 6 3 ; ; - * & # @ O O o X . . . .   .     . .   .         . X . o o o + $ $ & * ; : > 5 8 t d c U 9...N ",
"B ) u.` n a y 8 5 4 > - - & # # + + O X X .                               . X . o o + + $ $ $ - - : > 5 8 t s x T g...m ",
"B ) u.Q n d t 9 5 4 : - - & % # O O O X . .   . .                             . o o o + @ $ * * - ; > 5 9 e d x T u...M ",
"B ) u.Q v a t 8 5 3 : - * & # + + o o o . . .                               . . o o o + + $ $ * - : > 5 9 r d v T 9.X.B ",
"N ' u.Q m d t 8 5 3 : * - & # + + o o o . .                                   . o o O + + $ & * - ; 2 4 9 r s x T u...m ",
"m ] a.~ n d t 0 5 3 : = * & % + o O o . .   .                               . . X o o O + $ & * - : : 4 9 r s x E u.:.m ",
"m R u.Q n d e 0 5 3 ; * * & % + + O o o . .                                   . X o o O + + & * - : > 5 8 t s x U u.X.m ",
"m ' p.W n d t 8 5 1 : - * & + + O O X X .                                 . .   . X o O + + $ * * : > 5 8 r d v T 9.X.m ",
"m R p.Q n g y 8 6 3 : * * & # + + o X . o   .                                 . . X O O + @ & * * : > 5 8 q s x T p...m ",
"N _ a.U n d y 7 5 1 ; - * & # + + O o X .                                   . . o o O O + @ & * - : 2 5 q q s v T u...N ",
"N _ a.Q n d e 0 6 1 ; ; - & # + + o o . o .                                 . X o o O O @ @ & * * : > > 9 t s x E u...N ",
"V _ u.Q n d t 0 5 2 ; - = $ $ $ + o O o X     .   .                       . . . . . o + $ $ $ - - ; 2 5 9 r d x E p.X.m ",
"N ] u.~ n a t 0 5 2 > - * * $ $ + O o o o X .                               . . X o o + @ $ & * ; ; 2 5 8 t d x T p...m ",
"N ) u./ n a y 8 5 4 > - - & $ $ + O O o o .     .         .               . . X X O O + $ $ * * ; > 2 5 8 t d x T p...V ",
"N ) u.~ n d t 9 7 4 > = - * * $ @ + O O o . . .   .   .     .   . .     . . . X o o O @ $ $ * * ; ; > 5 8 t d v T p...V ",
"B ] p.W m d y 9 7 2 2 ; - * $ $ @ O O o X . . . . .     . . .     X   . . . X o o O + @ $ & * * ; > 2 6 9 t s v T 9.:.N ",
"B ' p.Q m d y q 7 5 2 ; - * * $ @ + + o o . . . . . .   . . .     . . . X X X O O o + @ $ & * - ; > 4 5 9 y d v T 9.' B ",
"B ' u.Q m f u q 9 5 2 : ; = * & # @ @ O O O X X o . . . . . . . o . o X X O O O + + $ $ $ * - - ; 2 4 7 0 t g b E 9...B ",
"B ' u.( m d u q 8 5 2 ; > - = * & @ @ @ O O O X o o o o . X X X o o o o o o O O + + $ $ & - - ; > 4 5 7 q y d b E u...M ",
"M ' u.Q m f u w 0 5 4 : ; ; ; = * & # @ + O O O O X X X X X X X X O O O O O + + + # & & * * ; : 1 1 5 7 q u g b E u.:.B ",
"N $.g.~ M h p t 0 7 5 4 : ; - = & & # # + + + O O + O O X O O O O O O O O + + # # # & & * = ; : 3 5 7 0 t i g m Q u.X.Z ",
"N $.i.~ m h p t 0 7 5 4 1 : ; - = & & $ @ @ + @ + + + O O + O + + O O + + + # # $ $ * * = = : : : 5 7 q t u h m Q u.:.Z ",
"A $.i.~ M h p t q 8 5 5 1 2 ; ; - * = $ & % % % % % @ + + + + + @ + + # # % & & * * = - ; : : 3 5 6 8 q t s h m W u.:.Z ",
"N $.g.Q N h s y e 0 7 5 5 3 : : ; ; - = * & * & % & % % & & % % % & & % % * * * - = = ; : , 3 3 5 8 0 w y s j m U u.:.Z ",
"N #.a.~ M h s u t 0 7 5 5 1 3 : ; ; ; - = * * * * * * & & & & * * & & = & * * * - ; ; ; : 3 4 4 6 8 0 e y a k m W u.X.Z ",
"B $.p.) M k a u t w 7 7 6 5 5 1 : : : - - - = = = = = * * * * * * = = = = = - = ; ; , , 3 4 6 6 8 8 q t u s j N Q u.:.Z ",
"Z $.g.` M k f u t e 0 0 7 5 5 5 4 , > : > ; : ; - - - ; ; = ; - = ; = = ; ; ; : : : , 4 4 5 6 8 8 0 e y u a k m Q u.:.Z ",
"C $.a.` M l h p y t e q q 0 7 7 5 5 1 3 3 : : : , : : , : : : : : : ; < < < < < 3 4 4 5 5 6 8 0 q e y y p a z N Q u.,.Z ",
"N $.h.[ A c j p p u t e q q 0 0 7 7 6 5 6 5 4 5 3 3 3 3 3 3 3 3 4 < 4 < < 4 4 5 5 5 6 8 8 0 q e e t y i a g x B / g.O.Z ",
"A $.g.[ Z n j a p i y y t e q q 0 0 8 8 7 5 6 6 5 6 5 5 5 5 5 5 5 5 5 5 5 5 6 6 6 7 7 0 9 0 e e y y y p f h c C ` i.,.A ",
"N $.g.| A m j h g s i u y y t e t q q q q 0 8 8 8 8 8 8 9 8 8 8 8 8 6 8 9 9 9 w 0 0 t q t y y y y p p a f k b S [ i.,.Z ",
"B &.h.=.P Z c l j h h d p p p p p y u y y y y y y t y y y y t y t t t y y y y y y u u s p p a p f h h h k v m G | g.>.Z ",
"B :.h.2.P Z N c c c l j k j j h j h h h h g f p d a s s s s s d d d d d a d d f f f h h j h j j k z x c n m Z P | g.,.M ",
"m ' j.4.U J Z A C N N m m m m n m v v v v v c x x x x x x z x x x x x c c c v v b b b b n m m m m m V C A G P P <.z.,.B ",
"m ] x.w.:.@.^ U Y U P I I I I I P P P I P K K K K J K J J J J J J J J J K K K P K K K K P P I I I U U U W / #.;.w.x.o.m ",
"l L b.m.b.k.v.c.a.c.a.a.d.p.a.a.u.u.y.u.y.y.y.y.y.p.y.y.p.9.y.y.u.y.y.y.y.y.p.y.y.y.y.p.u.u.u.a.a.a.a.a.g.c.c.v.m.b.R c ",
"a M X.7.e.e.e.e.e.e.e.e.8.e.e.e.e.e.e.e.e.w.e.e.e.q.5.5.7.7.5.5.7.7.7.7.5.w.e.e.e.e.5.e.e.e.e.e.e.e.e.e.e.r.e.e.6.O.C h ",
"y h m N F J G G G G H H F F F F G F S S F F A Z A A A A D D A A D C F F F A A F A A S S F F G G F F G S G G F G M b j y ",
"9 u f d h k k z x x x x z x x x z l l x z l z k k k k j j j k k k k k k k k k k l z l l z k z z x z z x k z z j j s i q "
};
